<svg width="1214" height="361" viewBox="0 0 1214 361" fill="none" xmlns="http://www.w3.org/2000/svg">
<path fill-rule="evenodd" clip-rule="evenodd" d="M1214 151L1163.5 145.167C1113 139.333 1012 127.667 911 121.833C810 116 709 116 608 127.667C507 139.333 406 162.667 305 156.833C204 151 103 116 52.5 98.5L2.00001 81V361H52.5C103 361 204 361 305 361C406 361 507 361 608 361C709 361 810 361 911 361C1012 361 1113 361 1163.5 361H1214V151Z" fill="#853167"/>
<path d="M1209.85 165.641L1158.43 162.414C1107.02 159.188 1004.18 152.734 903.578 158.496C802.975 164.257 704.604 182.233 610.697 224.637C516.79 267.042 427.346 333.875 326.743 339.637C226.14 345.398 114.377 290.087 58.4957 262.432L2.61424 234.777" stroke="white" stroke-width="2" stroke-linecap="round" stroke-linejoin="round" stroke-dasharray="15 9"/>
<path d="M1203.88 148.987L1153.72 137.237C1103.56 125.487 1003.23 101.987 903.077 90.9033C802.92 79.8192 702.929 81.1506 603.269 107.313C503.608 133.476 404.278 184.469 304.122 173.385C203.966 162.301 102.983 89.1392 52.491 52.5582L1.99946 15.9772" stroke="#8B8B8B" stroke-width="2" stroke-linecap="round" stroke-linejoin="round" stroke-dasharray="15 9"/>
</svg>
