<svg width="1200" height="491" viewBox="0 0 1200 491" fill="none" xmlns="http://www.w3.org/2000/svg">
<g clip-path="url(#clip0)">
<rect width="1200" height="491" fill="white"/>
<path fill-rule="evenodd" clip-rule="evenodd" d="M0 0L100 36C200 72 400 144 600 168C800 192 1000 168 1100 156L1200 144V0H1100C1000 0 800 0 600 0C400 0 200 0 100 0H0Z" fill="#853167"/>
<path d="M35.4688 221L115 306.33C93.0416 329.89 57.4272 329.89 35.4688 306.33C13.5104 282.771 13.5104 244.572 35.4688 221Z" fill="#6B9BA5"/>
<path d="M810.531 478L731 391.841C752.958 368.053 788.573 368.053 810.531 391.841C832.49 415.629 832.49 454.212 810.531 478Z" fill="#DA5077"/>
<path d="M259.531 301L180 214.841C201.958 191.053 237.573 191.053 259.531 214.841C281.49 238.629 281.49 277.212 259.531 301Z" fill="#7CB305"/>
<path d="M909.703 272C909.037 273.727 908.462 275.503 908 277.291L961.129 335C962.775 334.498 964.399 333.873 966 333.151L909.703 272Z" fill="#6B9BA5"/>
<path d="M913.405 264C912.513 265.486 911.723 267.021 911 268.581L968.823 332C970.245 331.208 971.645 330.341 973 329.363L913.405 264Z" fill="#6B9BA5"/>
<path d="M918.021 258C916.946 259.244 915.939 260.525 915 261.855L975.424 327C976.658 326 977.857 324.914 979 323.743L918.021 258Z" fill="#6B9BA5"/>
<path d="M990 275C987.934 268.476 984.482 262.329 979.634 257.134C974.786 251.927 969.074 248.22 963 246L990 275Z" fill="#6B9BA5"/>
<path d="M940.584 336.096C943.026 336.629 945.513 336.926 948 337L906 291C906.068 293.724 906.328 296.436 906.825 299.123L940.584 336.096Z" fill="#6B9BA5"/>
<path d="M906.774 281C906.376 283.047 906.125 285.119 906 287.202L952.136 336C954.106 335.868 956.064 335.591 958 335.181L906.774 281Z" fill="#6B9BA5"/>
<path d="M930.176 248C928.754 248.781 927.354 249.634 926 250.598L985.596 315C986.488 313.536 987.278 312.024 988 310.487L930.176 248Z" fill="#6B9BA5"/>
<path d="M958.416 243.904C955.974 243.371 953.487 243.074 951 243L993 289C992.932 286.276 992.672 283.564 992.175 280.877L958.416 243.904Z" fill="#6B9BA5"/>
<path d="M908 305C910.066 311.524 913.518 317.671 918.366 322.866C923.214 328.073 928.926 331.78 935 334L908 305Z" fill="#6B9BA5"/>
<path d="M937.871 245C936.225 245.502 934.601 246.127 933 246.849L989.297 308C989.963 306.273 990.538 304.497 991 302.709L937.871 245Z" fill="#6B9BA5"/>
<path d="M946.864 243C944.894 243.135 942.936 243.417 941 243.834L992.226 299C992.624 296.915 992.875 294.806 993 292.685L946.864 243Z" fill="#6B9BA5"/>
<path d="M923.575 253C922.342 254 921.143 255.086 920 256.257L980.979 322C982.054 320.756 983.061 319.475 984 318.146L923.575 253Z" fill="#6B9BA5"/>
<path d="M494.348 288.521C491.861 290.294 489.306 290.646 486.83 288.606C484.366 286.577 484.138 283.819 485.096 280.418C481.868 281.159 478.959 281.147 477.053 278.073C475.422 275.449 475.81 272.874 477.43 270.396C477.635 270.189 477.829 269.983 478.035 269.776C479.187 268.89 480.533 268.039 481.868 268.319C484.32 268.841 483.875 267.626 484.001 265.792C484.183 263.253 483.932 262.208 481.252 262.621C480.282 262.767 479.164 261.844 478.103 261.406C477.818 261.103 477.544 260.811 477.259 260.507C475.833 257.981 475.399 255.393 477.122 252.83C479.027 249.987 481.731 249.744 485.05 250.692C484.206 247.218 484.332 244.168 487.207 242.152C489.659 240.427 492.066 240.864 494.382 242.565C494.576 242.784 494.77 242.99 494.964 243.209C495.432 244.448 496.459 245.772 496.276 246.89C495.797 249.902 497.143 249.356 499.105 249.526C501.467 249.732 501.672 249.052 501.604 246.902C501.569 245.687 502.459 244.436 502.938 243.209C503.144 242.978 503.36 242.759 503.566 242.528C506.041 240.682 508.585 240.366 511.072 242.371C513.548 244.375 513.844 247.133 512.886 250.51C516.035 249.927 518.978 249.781 520.895 252.879C522.526 255.503 522.161 258.066 520.61 260.568C520.37 260.823 520.13 261.078 519.891 261.321C518.716 261.807 517.484 262.816 516.377 262.682C513.981 262.39 514.004 263.301 514.038 265.464C514.073 267.553 513.947 268.574 516.389 268.282C517.495 268.149 518.727 269.157 519.891 269.655C520.13 269.91 520.381 270.165 520.621 270.432C522.275 273.068 522.606 275.777 520.701 278.401C518.818 281.001 516.274 281.414 513.08 280.309C513.73 283.819 513.616 287.014 510.582 289.031C508.243 290.574 505.927 290.148 503.714 288.642C503.418 288.326 503.109 287.998 502.813 287.682C501.638 285.836 501.341 283.759 501.661 281.596C498.318 281.195 495.535 281.293 495.877 286.018C495.922 286.589 495.329 287.196 495.033 287.792C494.793 288.047 494.576 288.29 494.348 288.521ZM510.376 277.66C508.46 276.421 512.487 272.522 508.209 272.51C506.019 272.497 505.517 273.299 505.528 275.449C505.562 279.956 509.167 275.68 510.376 277.66ZM487.663 277.709C488.838 275.996 493.116 280.053 492.374 274.49C491.781 270.068 489.146 273.554 487.686 272.412C488.279 274.259 487.652 275.802 487.663 277.709ZM510.525 253.462C505.46 254.02 505.585 254.033 505.437 255.296C504.935 259.645 508.026 258.163 510.422 258.843C509.703 256.827 510.251 255.174 510.525 253.462ZM487.617 253.219C487.902 255.187 488.074 256.863 487.8 258.77C489.192 257.434 491.998 260.726 492.466 256.353C493.048 250.935 488.747 255.235 487.617 253.219ZM497.018 265.184C497.097 266.338 496.287 267.978 498.501 267.529C499.619 267.298 501.067 268.148 500.874 265.658C500.748 263.97 500.668 263.314 498.854 263.435C497.497 263.532 496.516 263.387 497.018 265.184Z" fill="#EE885E"/>
<path d="M495.53 243.122C495.338 242.899 495.146 242.688 494.953 242.465C494.919 242.192 494.953 241.883 494.852 241.647C493.573 238.562 493.528 235.638 496.152 233.383C498.279 231.549 500.688 231.537 502.826 233.358C505.461 235.589 505.427 238.525 504.172 241.61C504.07 241.858 504.092 242.155 504.058 242.428C503.855 242.663 503.64 242.886 503.436 243.122C500.801 244.311 498.166 244.274 495.53 243.122Z" fill="#EE885E"/>
<path d="M520.551 271.029C520.313 270.769 520.064 270.509 519.825 270.237C518.714 267.402 518.736 264.58 519.825 261.746C520.064 261.486 520.302 261.226 520.54 260.979C521.38 260.694 522.208 260.335 523.07 260.162C525.52 259.655 527.63 260.298 529.037 262.674C530.319 264.84 530.319 267.13 529.048 269.308C527.642 271.685 525.543 272.341 523.093 271.846C522.23 271.672 521.402 271.301 520.551 271.029Z" fill="#EE885E"/>
<path d="M478.19 270.38C477.985 270.592 477.792 270.804 477.587 271.016C474.479 272.099 471.359 273.071 469.037 269.409C467.682 267.278 467.659 264.949 468.945 262.757C471.154 259.007 474.285 259.842 477.427 260.876C477.712 261.187 477.985 261.486 478.27 261.797C479.306 264.675 479.203 267.528 478.19 270.38Z" fill="#EE885E"/>
<path d="M524.192 252.991C521.207 252.802 518.729 249.924 519.024 246.999C519.319 244.156 522.009 241.833 524.806 242.009C527.791 242.198 530.281 245.076 529.974 248.001C529.679 250.844 526.977 253.167 524.192 252.991Z" fill="#EE885E"/>
<path d="M473.826 242.003C476.373 241.897 478.781 244.271 478.986 247.108C479.202 250.052 476.892 252.877 474.171 252.996C471.472 253.115 468.989 250.468 469 247.488C469.011 244.674 471.256 242.122 473.826 242.003Z" fill="#EE885E"/>
<path d="M522 238.524C521.988 241.507 519.25 244.125 516.276 243.995C513.443 243.866 510.988 241.307 511 238.476C511.012 235.493 513.762 232.875 516.724 233.005C519.557 233.134 522.012 235.705 522 238.524Z" fill="#EE885E"/>
<path d="M482.524 233C485.502 233.012 488.137 235.768 487.994 238.726C487.864 241.565 485.289 244.012 482.476 244C479.498 243.988 476.863 241.232 477.006 238.274C477.136 235.435 479.711 232.976 482.524 233Z" fill="#EE885E"/>
<path d="M532.929 262C529.854 261.644 528.096 259.866 528.003 256.474C527.909 253.248 530.367 250.72 533.313 251.025C536.399 251.343 538.111 253.35 537.994 256.703C537.89 260.095 535.968 261.771 532.929 262Z" fill="#EE885E"/>
<path d="M465.206 251C468.316 251.414 470.113 253.289 469.995 256.756C469.876 260.222 467.949 262.123 464.804 261.994C461.635 261.877 459.909 259.769 460.004 256.329C460.11 252.837 462.085 251.181 465.206 251Z" fill="#EE885E"/>
<path d="M1047 453.882C1046.67 457.195 1045.04 459.046 1041.88 458.999C1038.74 458.952 1036.97 457.089 1037 453.929C1037.04 450.757 1038.89 448.977 1042.02 449C1045.2 449.012 1046.71 450.993 1047 453.882Z" fill="#EE885E"/>
<path d="M1064 454.551C1063.71 457.924 1062.11 459.88 1059.01 459.996C1056.06 460.112 1053.77 457.473 1054.02 454.204C1054.27 450.792 1056.09 448.913 1059.14 449.003C1062.25 449.093 1063.78 451.191 1064 454.551Z" fill="#EE885E"/>
<path d="M541.814 261.001C544.215 261.433 545.846 263.02 545.995 266.003C546.122 268.695 543.606 271.323 541.205 270.968C538.574 270.574 537.035 268.758 537 265.788C536.966 263.236 539.309 260.938 541.814 261.001Z" fill="#EE885E"/>
<path d="M1050.44 440C1053.13 440.347 1054.95 441.93 1055 444.954C1055.05 447.978 1053.31 449.934 1050.59 449.998C1047.84 450.063 1046.07 448.145 1046 445.147C1045.93 442.11 1047.72 440.463 1050.44 440Z" fill="#EE885E"/>
<path d="M1029 454.424C1028.7 457.117 1027.28 458.94 1024.55 458.999C1021.83 459.057 1020.07 457.329 1020 454.601C1019.93 451.861 1021.65 450.073 1024.36 450.003C1027.09 449.92 1028.58 451.696 1029 454.424Z" fill="#EE885E"/>
<path d="M1075.43 449C1078.12 449.345 1079.94 450.931 1080 453.948C1080.06 456.965 1078.32 458.921 1075.59 458.998C1072.85 459.074 1071.07 457.157 1071 454.165C1070.94 451.122 1072.73 449.486 1075.43 449Z" fill="#EE885E"/>
<path d="M533.564 243C530.875 242.678 529.047 241.251 529.001 238.535C528.954 235.819 530.689 234.059 533.412 234.001C536.159 233.944 537.928 235.67 537.998 238.363C538.068 241.09 536.275 242.574 533.564 243Z" fill="#EE885E"/>
<path d="M470 238.371C469.686 241.119 468.268 242.952 465.547 242.999C462.827 243.057 461.071 241.331 461.001 238.594C460.943 235.857 462.652 234.072 465.361 234.001C468.093 233.943 469.558 235.74 470 238.371Z" fill="#EE885E"/>
<path d="M542.126 243C544.707 243.302 546.116 244.89 545.992 247.776C545.857 250.7 544.234 252.162 541.675 251.986C539.274 251.822 537.967 250.158 538.001 247.487C538.046 244.563 539.579 243.151 542.126 243Z" fill="#EE885E"/>
<path d="M1066.99 441C1069.56 441.203 1071.06 442.522 1071 445.116C1070.94 447.721 1069.4 449.086 1066.81 448.996C1064.41 448.917 1063.04 447.518 1063 445.116C1062.96 442.534 1064.42 441.203 1066.99 441Z" fill="#EE885E"/>
<path d="M457.259 252C454.537 251.822 453 250.396 453 247.469C453.011 244.554 454.492 242.962 457.088 243.001C459.491 243.026 460.891 244.554 460.994 247.252C461.108 250.18 459.627 251.656 457.259 252Z" fill="#EE885E"/>
<path d="M1037 445.16C1036.72 447.736 1035.29 449.137 1032.72 448.989C1030.12 448.841 1028.85 447.2 1029.01 444.648C1029.17 442.243 1030.65 440.956 1033.04 441.001C1035.65 441.047 1036.88 442.596 1037 445.16Z" fill="#EE885E"/>
<path d="M1058.39 432C1060.35 432.153 1061.79 433.304 1061.98 435.618C1062.19 438.176 1060.88 439.851 1058.67 439.991C1056.45 440.132 1055.02 438.559 1055 436.028C1054.98 433.7 1056.3 432.384 1058.39 432Z" fill="#EE885E"/>
<path d="M554 256.866C553.792 259.267 552.683 260.948 550.533 260.999C548.383 261.049 547.022 259.457 547 256.98C546.978 254.705 548.273 253.164 550.215 253.012C552.376 252.848 553.594 254.402 554 256.866Z" fill="#EE885E"/>
<path d="M448.404 253C450.362 253.124 451.785 254.118 451.979 256.163C452.183 258.399 450.908 259.868 448.677 259.992C446.446 260.116 445.023 258.75 445 256.524C444.978 254.48 446.275 253.305 448.404 253Z" fill="#EE885E"/>
<path d="M1045 435.927C1044.84 438.194 1043.79 439.803 1041.78 439.983C1039.56 440.177 1038.08 438.67 1038 436.133C1037.92 433.584 1039.32 431.987 1041.54 432C1043.58 432.013 1044.71 433.545 1045 435.927Z" fill="#EE885E"/>
<path d="M1083.72 442C1085.86 442.124 1087.02 443.251 1087 445.592C1086.98 447.71 1085.95 448.949 1084.12 448.999C1082.12 449.048 1081 447.797 1081 445.468C1080.99 443.313 1082.11 442.285 1083.72 442Z" fill="#EE885E"/>
<path d="M1092.18 451C1094.66 451.123 1096.02 452.242 1096 454.592C1095.97 456.707 1094.77 457.949 1092.64 457.999C1090.3 458.048 1089 456.793 1089 454.456C1088.99 452.316 1090.29 451.271 1092.18 451Z" fill="#EE885E"/>
<path d="M1019 445.585C1018.82 447.723 1017.87 449.013 1016 449C1013.96 448.987 1012.89 447.571 1013.01 445.218C1013.12 443.056 1014.29 441.905 1016.13 442.006C1018 442.107 1018.89 443.435 1019 445.585Z" fill="#EE885E"/>
<path d="M1079 435.893C1078.84 437.668 1077.92 438.902 1076.17 438.994C1074.21 439.098 1072.98 437.887 1073 435.916C1073.02 434.141 1074.18 433.012 1075.95 433C1077.74 432.989 1078.69 434.153 1079 435.893Z" fill="#EE885E"/>
<path d="M1028 436.019C1027.75 437.77 1026.81 438.988 1025.04 439C1023.11 439.012 1021.89 437.759 1022.01 435.799C1022.11 434.059 1023.3 432.933 1025.07 433.003C1026.84 433.073 1027.76 434.267 1028 436.019Z" fill="#EE885E"/>
<path d="M1008.11 458C1006.08 457.75 1004.98 456.637 1005 454.475C1005.02 452.1 1006.24 450.862 1008.25 451.012C1010.11 451.15 1011.07 452.525 1011 454.65C1010.91 456.85 1009.69 457.787 1008.11 458Z" fill="#EE885E"/>
<path d="M549.814 242C548.004 241.553 546.809 240.329 547.025 238.079C547.219 236.118 548.391 234.855 550.144 235.013C552.056 235.184 553.172 236.632 552.978 238.855C552.808 240.829 551.601 241.868 549.814 242Z" fill="#EE885E"/>
<path d="M451 238.596C450.664 240.685 449.68 242.079 447.863 241.997C446.08 241.901 444.934 240.508 445.003 238.377C445.072 236.274 446.265 234.922 448.071 235.004C449.877 235.072 450.803 236.52 451 238.596Z" fill="#EE885E"/>
<path d="M1036 427.023C1035.8 428.195 1035.03 428.99 1033.56 429C1031.88 429.01 1030.88 428.164 1031.01 426.819C1031.12 425.667 1032.11 424.933 1033.61 425.005C1035.08 425.076 1035.84 425.861 1036 427.023Z" fill="#EE885E"/>
<path d="M1053 427.012C1052.79 429.203 1051.78 430.177 1050.16 429.974C1048.69 429.798 1047.92 428.608 1048.01 426.836C1048.11 424.794 1049.19 423.834 1050.81 424.023C1052.28 424.186 1052.96 425.416 1053 427.012Z" fill="#EE885E"/>
<path d="M1070 426.398C1069.7 428.202 1068.79 429.155 1067.17 428.979C1065.79 428.829 1064.91 427.864 1065.01 426.41C1065.12 424.756 1066.14 423.866 1067.76 424.016C1069.18 424.142 1069.83 425.207 1070 426.398Z" fill="#EE885E"/>
<path d="M442 247.501C441.859 248.967 441.244 249.974 440.064 249.999C438.723 250.037 437.916 248.979 438.007 247.297C438.088 245.844 438.864 244.939 440.054 245.003C441.244 245.067 441.849 246.048 442 247.501Z" fill="#EE885E"/>
<path d="M561 247.235C560.878 249.041 560.076 249.988 558.446 250C557.024 250 556.136 249.189 556.015 247.776C555.881 246.178 556.671 245.133 558.301 245.01C559.954 244.887 560.745 245.871 561 247.235Z" fill="#EE885E"/>
<path d="M191.951 408.373C189.249 410.331 186.478 410.712 183.776 408.459C181.097 406.231 180.846 403.178 181.884 399.435C178.372 400.26 175.214 400.236 173.139 396.862C171.36 393.969 171.794 391.138 173.549 388.405C173.766 388.171 173.983 387.949 174.199 387.716C175.453 386.743 176.913 385.795 178.372 386.115C181.04 386.694 180.55 385.364 180.698 383.333C180.892 380.526 180.618 379.381 177.711 379.837C176.65 379.997 175.431 378.987 174.29 378.507C173.983 378.175 173.675 377.842 173.367 377.522C171.828 374.728 171.349 371.884 173.219 369.065C175.294 365.938 178.224 365.667 181.827 366.701C180.915 362.872 181.051 359.511 184.164 357.283C186.832 355.387 189.454 355.855 191.963 357.739C192.179 357.973 192.384 358.206 192.601 358.44C193.114 359.807 194.22 361.272 194.026 362.503C193.513 365.827 194.973 365.224 197.105 365.408C199.67 365.63 199.887 364.879 199.818 362.515C199.773 361.173 200.753 359.807 201.266 358.44C201.494 358.194 201.722 357.936 201.95 357.689C204.641 355.646 207.411 355.301 210.114 357.517C212.804 359.733 213.124 362.761 212.086 366.479C215.506 365.839 218.699 365.679 220.797 369.089C222.575 371.982 222.165 374.814 220.477 377.571C220.215 377.855 219.953 378.125 219.702 378.409C218.425 378.95 217.091 380.058 215.883 379.91C213.272 379.59 213.306 380.588 213.34 382.976C213.374 385.29 213.249 386.398 215.894 386.078C217.103 385.93 218.437 387.051 219.702 387.592C219.964 387.876 220.227 388.159 220.5 388.442C222.302 391.347 222.655 394.339 220.591 397.232C218.539 400.1 215.78 400.556 212.303 399.325C213.009 403.19 212.896 406.711 209.589 408.927C207.047 410.626 204.538 410.158 202.121 408.496C201.791 408.139 201.471 407.782 201.141 407.438C199.864 405.394 199.533 403.116 199.887 400.74C196.249 400.297 193.228 400.408 193.604 405.616C193.65 406.243 193.011 406.92 192.681 407.573C192.43 407.856 192.191 408.115 191.951 408.373ZM209.372 396.395C207.286 395.028 211.664 390.732 207.012 390.707C204.641 390.695 204.082 391.569 204.105 393.945C204.139 398.931 208.061 394.216 209.372 396.395ZM184.688 396.456C185.977 394.573 190.617 399.042 189.808 392.911C189.158 388.036 186.296 391.877 184.711 390.621C185.361 392.652 184.677 394.351 184.688 396.456ZM209.532 369.729C204.025 370.345 204.162 370.37 204.002 371.748C203.467 376.537 206.819 374.912 209.418 375.663C208.643 373.435 209.247 371.613 209.532 369.729ZM184.643 369.471C184.951 371.638 185.145 373.497 184.837 375.589C186.353 374.124 189.397 377.744 189.91 372.918C190.537 366.947 185.874 371.687 184.643 369.471ZM194.859 382.656C194.95 383.924 194.06 385.746 196.466 385.229C197.686 384.97 199.259 385.906 199.054 383.173C198.917 381.314 198.826 380.588 196.854 380.723C195.372 380.821 194.311 380.661 194.859 382.656Z" fill="#FFC263"/>
<path d="M175.666 327.044C175.45 326.81 175.246 326.575 175.031 326.341C174.997 326.044 175.031 325.711 174.929 325.451C173.533 322.105 173.488 318.944 176.347 316.499C178.672 314.511 181.292 314.498 183.629 316.474C186.499 318.894 186.465 322.068 185.104 325.414C185.002 325.674 185.024 326.007 184.99 326.304C184.763 326.55 184.536 326.81 184.31 327.057C181.417 328.329 178.536 328.304 175.666 327.044Z" fill="#FFC263"/>
<path d="M96.5589 186.949C96.3191 186.665 96.0793 186.382 95.829 186.098C94.7133 183.029 94.7341 179.972 95.829 176.903C96.0689 176.62 96.3087 176.348 96.5381 176.065C97.3828 175.757 98.2065 175.375 99.072 175.177C101.523 174.623 103.629 175.325 105.037 177.901C106.319 180.256 106.319 182.733 105.047 185.088C103.65 187.664 101.533 188.379 99.0825 187.824C98.2274 187.651 97.4036 187.257 96.5589 186.949Z" fill="#FFC263"/>
<path d="M104.555 427.277C105.03 427.17 105.499 427.073 105.964 426.959C106.675 427.159 107.397 427.365 108.102 427.574C111.13 428.452 113.266 430.208 113.653 433.32C114.002 436.175 112.732 438.306 110.05 439.374C107.133 440.531 104.56 439.508 102.344 437.272C101.82 436.747 101.308 436.202 100.784 435.677C100.679 435.341 100.563 434.998 100.457 434.662C100.743 431.595 102.184 429.168 104.555 427.277Z" fill="#FFC263"/>
<path d="M74.0756 440.927C74.1713 441.233 74.2563 441.533 74.352 441.839C73.6774 445.37 72.8897 448.848 68.1895 449.057C65.4543 449.183 63.2558 447.956 61.8947 445.548C59.5852 441.433 62.0658 438.917 64.7454 436.502C65.1897 436.401 65.634 436.301 66.0675 436.195C69.3292 436.794 71.9643 438.431 74.0756 440.927Z" fill="#FFC263"/>
<path d="M105.999 200.888C106.064 204.132 103.379 207.058 100.403 206.999C97.5774 206.94 95.0553 204.203 95.0012 201.112C94.9362 197.856 97.6099 194.942 100.597 195.001C103.412 195.072 105.934 197.809 105.999 200.888Z" fill="#FFC263"/>
<path d="M89.5406 455.679C87.9542 458.504 83.9265 459.551 81.182 457.846C78.5554 456.223 77.5809 452.472 79.09 449.781C80.6764 446.956 84.7041 445.909 87.4486 447.614C90.0811 449.227 91.0497 452.988 89.5406 455.679Z" fill="#FFC263"/>
<path d="M100.281 444.623C103.141 446.132 104.406 449.91 102.919 452.492C101.513 454.932 97.8904 455.793 95.1644 454.361C92.3046 452.851 91.0396 449.073 92.5268 446.491C93.9381 444.042 97.5505 443.175 100.281 444.623Z" fill="#FFC263"/>
<path d="M100.196 167.989C97.1978 167.771 94.7212 164.376 95.0253 160.904C95.3186 157.548 98.0125 154.806 100.804 155.011C103.802 155.229 106.279 158.637 105.975 162.096C105.692 165.452 102.998 168.194 100.196 167.989Z" fill="#FFC263"/>
<path d="M151.789 325.004C154.838 324.875 157.733 327.685 157.983 331.036C158.245 334.503 155.47 337.854 152.206 337.995C148.978 338.137 145.988 335.018 146 331.5C146.012 328.162 148.704 325.133 151.789 325.004Z" fill="#FFC263"/>
<path d="M97 151.532C96.9881 155.058 93.9911 158.16 90.7572 157.994C87.6654 157.84 84.9882 154.814 85 151.468C85.0119 147.942 88.0089 144.84 91.2428 145.006C94.3346 145.16 97.0118 148.199 97 151.532Z" fill="#FFC263"/>
<path d="M161.532 315C164.509 315.013 167.136 318.266 166.995 321.765C166.864 325.121 164.291 328.026 161.478 328C158.501 327.987 155.874 324.734 156.005 321.235C156.146 317.892 158.719 314.974 161.532 315Z" fill="#FFC263"/>
<path d="M118.874 412.628C121.719 414.213 122.761 418.217 121.069 420.988C119.453 423.625 115.703 424.608 113.007 423.096C110.161 421.511 109.114 417.517 110.822 414.742C112.437 412.105 116.172 411.126 118.874 412.628Z" fill="#FFC263"/>
<path d="M107.818 451.267C104.857 449.005 104.094 446.369 105.818 443.455C107.465 440.674 111.264 440.137 114.148 442.273C117.166 444.514 117.733 447.282 115.837 450.055C113.894 452.883 111.021 453.005 107.818 451.267Z" fill="#FFC263"/>
<path d="M109.508 197C106.139 196.681 104.171 194.782 104.006 191.085C103.853 187.566 106.492 184.761 109.744 185.016C113.137 185.284 115.069 187.438 114.998 191.11C114.939 194.807 112.866 196.694 109.508 197Z" fill="#FFC263"/>
<path d="M74.0406 451.427C76.8879 453.342 77.9314 455.75 76.3671 458.513C74.8191 461.248 72.2019 461.859 69.1522 460.151C66.1183 458.441 65.2552 455.887 66.7722 453.135C68.3157 450.36 70.9134 449.975 74.0406 451.427Z" fill="#FFC263"/>
<path d="M122.569 426.297C125.606 428.305 126.829 430.786 125.391 433.512C123.959 436.203 121.267 436.76 117.92 435.138C114.722 433.589 113.352 430.129 114.926 427.654C116.586 425.056 119.222 424.724 122.569 426.297Z" fill="#FFC263"/>
<path d="M109.416 177C106.038 176.65 104.108 174.863 104.002 171.477C103.908 168.255 106.592 165.721 109.84 166.025C113.229 166.34 115.112 168.348 114.995 171.699C114.865 175.097 112.747 176.766 109.416 177Z" fill="#FFC263"/>
<path d="M49.599 442.876C51.5133 440.387 54.037 439.768 56.9742 441.599C59.9217 443.435 60.5977 446.048 58.9245 448.714C57.2351 451.408 54.5537 451.847 51.6159 450.042C48.6369 448.212 48.1942 445.671 49.599 442.876Z" fill="#FFC263"/>
<path d="M176 311.374C175.633 315.009 173.836 317.058 170.37 316.999C166.917 316.939 164.954 314.902 165.001 311.422C165.048 307.943 167.082 305.976 170.524 306C174.025 306.024 175.681 308.193 176 311.374Z" fill="#FFC263"/>
<path d="M87 141.553C86.7118 144.925 85.1104 146.878 82.0144 146.996C79.0572 147.114 76.7725 144.476 77.0181 141.198C77.2636 137.79 79.0785 135.909 82.1425 136.003C85.2385 136.098 86.7758 138.192 87 141.553Z" fill="#FFC263"/>
<path d="M106.054 465.077C104.235 467.548 101.848 468.518 99.1912 467.07C96.5501 465.617 95.8054 462.98 97.26 460.313C98.7207 457.636 101.36 456.867 103.997 458.303C106.666 459.731 107.093 462.281 106.054 465.077Z" fill="#FFC263"/>
<path d="M128.665 445.867C126.87 448.276 124.491 449.251 121.84 447.805C119.204 446.355 118.465 443.707 119.901 441.05C121.359 438.379 123.999 437.609 126.636 439.033C129.32 440.47 129.755 443.011 128.665 445.867Z" fill="#FFC263"/>
<path d="M810.344 391.002C813.01 391.477 814.83 393.225 814.995 396.502C815.136 399.47 812.329 402.361 809.675 401.963C806.751 401.526 805.036 399.534 805.001 396.257C804.954 393.456 807.561 390.925 810.344 391.002Z" fill="#FFC263"/>
<path d="M190.344 174.002C193.01 174.477 194.83 176.225 194.995 179.502C195.136 182.47 192.329 185.361 189.675 184.963C186.751 184.526 185.036 182.534 185.001 179.257C184.954 176.456 187.561 173.925 190.344 174.002Z" fill="#FFC263"/>
<path d="M138 350.957C137.562 354.113 136.068 356.081 133.346 355.997C130.646 355.913 128.938 353.933 129.002 350.885C129.066 347.849 130.838 345.941 133.549 346.001C136.281 346.061 137.648 348.149 138 350.957Z" fill="#FFC263"/>
<path d="M179.436 296C182.126 296.377 183.956 298.122 183.999 301.454C184.053 304.773 182.32 306.933 179.586 306.999C176.842 307.064 175.066 304.968 175.002 301.662C174.937 298.33 176.724 296.521 179.436 296Z" fill="#FFC263"/>
<path d="M157 311.916C156.667 314.908 155.086 316.927 152.054 316.999C149.035 317.059 147.073 315.148 147.002 312.109C146.931 309.057 148.833 307.075 151.84 307.003C154.872 306.918 156.524 308.889 157 311.916Z" fill="#FFC263"/>
<path d="M131.676 410.772C134.059 412.658 135.039 414.933 133.609 417.249C132.189 419.546 129.613 420.041 127.009 418.467C124.419 416.89 123.634 414.397 125.048 412.085C126.458 409.757 128.938 409.548 131.676 410.772Z" fill="#FFC263"/>
<path d="M100.421 136C103.105 136.388 104.935 138.122 104.999 141.447C105.052 144.759 103.319 146.92 100.592 146.998C97.8535 147.076 96.0671 144.967 96.0029 141.667C95.9174 138.342 97.7037 136.53 100.421 136Z" fill="#FFC263"/>
<path d="M84.1339 463.062C86.1207 460.564 88.542 459.688 91.1207 461.271C93.6848 462.831 94.3406 465.494 92.7675 468.106C91.1901 470.701 88.5418 471.377 85.9554 469.832C83.3442 468.258 83.0652 465.701 84.1339 463.062Z" fill="#FFC263"/>
<path d="M109.564 157C106.882 156.612 105.055 154.868 105.001 151.546C104.948 148.238 106.679 146.08 109.414 146.002C112.15 145.925 113.924 148.031 113.998 151.327C114.062 154.674 112.267 156.483 109.564 157Z" fill="#FFC263"/>
<path d="M148 321.336C147.656 324.702 146.076 326.932 143.048 326.998C140.032 327.064 138.073 324.952 138.002 321.613C137.931 318.26 139.831 316.095 142.835 316.003C145.886 315.91 147.513 318.115 148 321.336Z" fill="#FFC263"/>
<path d="M128.015 397.121C130.315 398.996 131.099 401.287 129.741 403.927C128.522 406.325 124.776 407.173 122.642 405.527C120.308 403.712 119.603 401.213 121.21 398.73C122.822 396.262 125.321 395.931 128.015 397.121Z" fill="#FFC263"/>
<path d="M119.126 157C121.707 157.301 123.117 158.89 122.992 161.777C122.858 164.699 121.23 166.16 118.68 165.986C116.286 165.824 114.969 164.166 115.001 161.476C115.032 158.565 116.576 157.151 119.126 157Z" fill="#FFC263"/>
<path d="M118.616 206C115.601 205.693 113.955 204.044 114.001 200.885C114.047 197.727 115.706 195.962 118.558 196.001C121.423 196.039 123 197.88 123 201.026C122.988 204.248 121.214 205.731 118.616 206Z" fill="#FFC263"/>
<path d="M133.316 376C130.427 375.636 128.847 373.868 129.012 370.658C129.177 367.409 131.017 365.81 133.894 366.018C136.607 366.213 138.057 368.072 137.998 371.048C137.951 374.31 136.194 375.844 133.316 376Z" fill="#FFC263"/>
<path d="M91.4939 127C94.3797 127.221 96.0572 128.713 95.9985 131.627C95.9281 134.552 94.192 136.078 91.2945 135.997C88.5846 135.915 87.0479 134.33 87.001 131.638C86.954 128.713 88.6081 127.221 91.4939 127Z" fill="#FFC263"/>
<path d="M133.797 336C130.733 335.824 129 334.397 129 331.471C129.012 328.557 130.674 326.965 133.597 327.001C136.307 327.024 137.875 328.557 137.993 331.249C138.123 334.186 136.461 335.661 133.797 336Z" fill="#FFC263"/>
<path d="M135.777 423.522C138.568 425.517 139.279 427.782 137.691 430.176C136.079 432.61 133.575 432.836 130.91 431.087C128.397 429.438 127.844 427.185 129.211 424.89C130.739 422.367 133.128 422.236 135.777 423.522Z" fill="#FFC263"/>
<path d="M119.459 461.844C117.673 464.375 115.382 464.963 112.631 463.27C109.87 461.571 109.305 459.215 110.852 456.763C112.305 454.474 114.598 454.062 117.2 455.521C120.077 457.124 120.519 459.409 119.459 461.844Z" fill="#FFC263"/>
<path d="M166 301.684C165.672 304.573 164.082 306.153 161.192 305.988C158.268 305.823 156.829 303.983 157.016 301.106C157.192 298.393 158.864 296.943 161.543 297.002C164.479 297.049 165.86 298.806 166 301.684Z" fill="#FFC263"/>
<path d="M818.968 411C816.39 410.445 814.8 408.871 815.02 406.109C815.229 403.425 816.901 401.747 819.409 402.031C821.65 402.276 823.078 404.006 822.997 406.548C822.904 409.322 821.209 410.664 818.968 411Z" fill="#FFC263"/>
<path d="M198.968 194C196.39 193.445 194.8 191.871 195.02 189.109C195.229 186.425 196.901 184.747 199.409 185.031C201.65 185.276 203.078 187.006 202.997 189.548C202.904 192.322 201.209 193.664 198.968 194Z" fill="#FFC263"/>
<path d="M124.505 365C122.34 364.751 120.949 363.386 121.001 360.834C121.043 358.507 122.372 357.012 124.432 357C126.671 356.988 128.041 358.555 127.999 361.107C127.947 363.421 126.608 364.715 124.505 365Z" fill="#FFC263"/>
<path d="M81.8754 118C84.1149 118.153 85.7501 119.293 85.9753 121.62C86.2122 124.17 84.7311 125.85 82.2071 125.991C79.6595 126.132 78.0362 124.558 78.0006 122.031C77.9651 119.704 79.4699 118.376 81.8754 118Z" fill="#FFC263"/>
<path d="M823 386.356C822.77 389.063 821.504 390.947 819.04 390.999C816.589 391.051 815.035 389.259 815 386.473C814.977 383.91 816.451 382.183 818.672 382.013C821.135 381.83 822.528 383.583 823 386.356Z" fill="#FFC263"/>
<path d="M203 169.356C202.77 172.063 201.504 173.947 199.04 173.999C196.589 174.051 195.035 172.259 195 169.473C194.977 166.91 196.451 165.183 198.672 165.013C201.135 164.83 202.528 166.583 203 169.356Z" fill="#FFC263"/>
<path d="M124.4 337C126.356 337.143 127.779 338.271 127.978 340.61C128.187 343.163 126.9 344.85 124.683 344.992C122.454 345.123 121.032 343.579 121 341.026C120.979 338.686 122.277 337.356 124.4 337Z" fill="#FFC263"/>
<path d="M129.885 453.595C131.863 454.981 132.743 456.791 131.676 458.666C130.614 460.532 128.566 460.914 126.411 459.672C124.428 458.53 123.767 456.646 124.63 454.888C125.585 452.949 127.537 452.665 129.885 453.595Z" fill="#FFC263"/>
<path d="M174 291.933C173.846 294.207 172.796 295.806 170.769 295.984C168.547 296.174 167.075 294.669 167.003 292.134C166.921 289.587 168.32 287.988 170.543 288C172.57 288.024 173.712 289.552 174 291.933Z" fill="#FFC263"/>
<path d="M140.918 442.627C139.429 444.584 137.459 445.33 135.346 444.045C133.253 442.772 132.765 440.596 134.077 438.483C135.277 436.562 137.324 436.009 139.298 437.093C141.479 438.282 141.846 440.32 140.918 442.627Z" fill="#FFC263"/>
<path d="M141.788 401.055C140.467 402.934 138.621 403.342 136.365 401.924C134.317 400.639 133.794 398.853 134.874 397.032C136.073 395.003 138.03 394.712 140.269 396.107C142.351 397.385 142.722 399.123 141.788 401.055Z" fill="#FFC263"/>
<path d="M109.173 128C111.671 128.125 113.023 129.24 113 131.596C112.977 133.712 111.774 134.953 109.643 134.998C107.306 135.055 106.011 133.792 106 131.471C106.011 129.32 107.317 128.284 109.173 128Z" fill="#FFC263"/>
<path d="M139.07 409.778C140.317 408.028 142.028 407.543 144.162 408.733C146.474 410.026 147.126 411.872 145.933 413.89C144.848 415.721 143.037 416.096 140.903 414.932C138.563 413.636 138.068 411.828 139.07 409.778Z" fill="#FFC263"/>
<path d="M118.187 138C120.668 138.124 122.022 139.244 122 141.595C121.977 143.709 120.782 144.953 118.642 144.998C116.309 145.055 115 143.788 115 141.46C115 139.323 116.297 138.271 118.187 138Z" fill="#FFC263"/>
<path d="M146 301.578C145.792 303.72 144.672 305.012 142.5 305C140.109 304.988 138.862 303.568 139.012 301.217C139.139 299.053 140.514 297.912 142.662 298.005C144.833 298.098 145.873 299.437 146 301.578Z" fill="#FFC263"/>
<path d="M133.642 387C135.776 387.262 137.034 388.56 136.999 391.05C136.953 393.789 135.523 395.178 133.169 394.982C131 394.811 129.893 393.212 130.008 390.761C130.147 388.271 131.496 387.105 133.642 387Z" fill="#FFC263"/>
<path d="M104 121.379C103.817 123.451 102.742 124.882 100.689 124.992C98.4051 125.116 96.9759 123.71 97.0003 121.404C97.0247 119.332 98.3807 118.025 100.445 118C102.534 117.988 103.646 119.357 104 121.379Z" fill="#FFC263"/>
<path d="M155 291.514C154.747 293.556 153.808 294.987 152.046 295C150.105 295.012 148.892 293.556 149.008 291.265C149.113 289.236 150.295 287.917 152.078 288.004C153.85 288.091 154.768 289.485 155 291.514Z" fill="#FFC263"/>
<path d="M102.095 473.952C103.315 472.176 105.048 471.641 107.226 472.856C109.598 474.183 110.209 476.094 108.93 478.103C107.761 479.948 105.859 480.199 103.755 478.933C101.617 477.648 101.194 475.911 102.095 473.952Z" fill="#FFC263"/>
<path d="M818.975 430C817.11 429.699 815.902 428.521 816.006 426.26C816.1 424.251 817.235 422.976 818.985 423C820.923 423.036 822.079 424.419 821.996 426.669C821.912 428.701 820.735 429.759 818.975 430Z" fill="#FFC263"/>
<path d="M305.975 383C304.11 382.699 302.902 381.521 303.006 379.26C303.1 377.251 304.235 375.976 305.985 376C307.923 376.036 309.079 377.419 308.996 379.669C308.912 381.701 307.735 382.759 305.975 383Z" fill="#FFC263"/>
<path d="M203.975 452C202.11 451.699 200.902 450.521 201.006 448.26C201.1 446.251 202.235 444.976 203.985 445C205.923 445.036 207.079 446.419 206.996 448.669C206.912 450.701 205.735 451.759 203.975 452Z" fill="#FFC263"/>
<path d="M124.236 378C126.464 378.246 127.908 379.314 127.995 381.352C128.095 383.611 126.663 385.048 124.373 384.999C122.319 384.962 121.013 383.587 121 381.536C120.988 379.437 122.456 378.43 124.236 378Z" fill="#FFC263"/>
<path d="M133.625 315C131.267 314.747 129.977 313.642 130 311.477C130.024 309.094 131.441 307.863 133.8 308.012C135.961 308.15 137.088 309.52 136.995 311.661C136.902 313.849 135.484 314.793 133.625 315Z" fill="#FFC263"/>
<path d="M818.813 370C817 369.553 815.806 368.331 816.026 366.082C816.215 364.124 817.399 362.866 819.148 363.011C821.055 363.181 822.176 364.619 821.977 366.844C821.799 368.839 820.594 369.879 818.813 370Z" fill="#FFC263"/>
<path d="M198.813 153C197 152.553 195.806 151.331 196.026 149.082C196.215 147.124 197.399 145.866 199.148 146.011C201.055 146.181 202.176 147.619 201.977 149.844C201.799 151.839 200.594 152.879 198.813 153Z" fill="#FFC263"/>
<path d="M120.16 469.921C121.758 471.205 122.454 472.72 121.542 474.252C120.636 475.776 118.915 476.116 117.111 475.089C115.105 473.945 114.514 472.176 115.605 470.553C116.571 469.1 118.284 469.022 120.16 469.921Z" fill="#FFC263"/>
<path d="M143.099 422.816C144.583 420.919 146.291 420.251 148.193 421.446C149.876 422.514 150.335 424.304 149.305 426.067C148.171 428.011 146.308 428.489 144.397 427.332C142.682 426.273 142.578 424.52 143.099 422.816Z" fill="#FFC263"/>
<path d="M128 321.606C127.615 323.689 126.462 325.095 124.34 324.995C122.256 324.907 120.929 323.501 121.003 321.38C121.09 319.271 122.467 317.928 124.576 318.003C126.673 318.091 127.764 319.534 128 321.606Z" fill="#FFC263"/>
<path d="M831 395.922C830.832 397.89 829.994 399.023 828.456 399C826.917 398.976 825.981 397.831 826 395.97C826.02 394.109 826.967 392.988 828.505 393C830.053 393.012 830.842 394.205 831 395.922Z" fill="#FFC263"/>
<path d="M211 178.922C210.832 180.89 209.994 182.023 208.456 182C206.917 181.976 205.981 180.831 206 178.97C206.02 177.109 206.967 175.988 208.505 176C210.053 176.012 210.842 177.205 211 178.922Z" fill="#FFC263"/>
<path d="M151.379 434.819C152.816 435.726 153.303 436.845 152.707 438.154C152.028 439.651 150.739 440.153 149.249 439.36C147.769 438.573 147.453 437.25 148.3 435.825C149.063 434.547 150.266 434.467 151.379 434.819Z" fill="#FFC263"/>
<path d="M140.168 456.059C138.449 454.746 138.093 453.251 139.177 451.689C140.279 450.096 141.899 449.936 143.438 451.047C144.809 452.033 145.101 453.49 144.197 454.96C143.185 456.619 141.681 456.748 140.168 456.059Z" fill="#FFC263"/>
<path d="M133.176 467.033C134.467 467.988 134.911 469.208 134.023 470.611C133.249 471.815 132.002 472.127 130.75 471.406C129.318 470.58 128.977 469.249 129.844 467.86C130.604 466.634 131.817 466.474 133.176 467.033Z" fill="#FFC263"/>
<path d="M164 281.527C163.803 282.992 163.026 283.988 161.553 284C159.871 284.012 158.874 282.957 159.013 281.269C159.129 279.827 160.115 278.913 161.611 279.007C163.072 279.089 163.826 280.062 164 281.527Z" fill="#FFC263"/>
<path d="M183 282C182.752 284.193 181.539 285.164 179.596 284.977C177.838 284.803 176.897 283.607 177.009 281.838C177.133 279.783 178.432 278.836 180.376 279.023C182.146 279.173 182.938 280.406 183 282Z" fill="#FFC263"/>
<path d="M94 111.4C93.7043 113.197 92.7833 114.153 91.1686 113.98C89.7926 113.83 88.9057 112.863 89.008 111.412C89.1104 109.765 90.1451 108.866 91.7598 109.016C93.1699 109.143 93.8181 110.202 94 111.4Z" fill="#FFC263"/>
<path d="M118 331.507C117.826 332.969 117.048 333.976 115.585 333.999C113.901 334.034 112.903 332.993 113.007 331.296C113.1 329.845 114.087 328.944 115.573 329.003C117.06 329.085 117.814 330.056 118 331.507Z" fill="#FFC263"/>
<path d="M831 376.245C830.888 378.051 830.081 379 828.446 379C827.023 379 826.127 378.187 826.015 376.775C825.88 375.183 826.676 374.133 828.311 374.009C829.958 373.896 830.742 374.89 831 376.245Z" fill="#FFC263"/>
<path d="M211 159.245C210.888 161.051 210.081 162 208.446 162C207.023 162 206.127 161.187 206.015 159.775C205.88 158.183 206.676 157.133 208.311 157.009C209.958 156.896 210.742 157.89 211 159.245Z" fill="#FFC263"/>
<path d="M118 351.012C117.874 352.947 116.83 354.072 114.818 353.996C113.032 353.933 112.013 352.858 112 351.063C111.988 349.027 113.132 347.939 115.145 348.003C116.943 348.053 117.862 349.153 118 351.012Z" fill="#FFC263"/>
<path d="M118 371.581C117.78 373.03 116.992 374.023 115.52 374C113.84 373.976 112.855 372.913 113.017 371.23C113.156 369.805 114.165 368.893 115.648 369.01C117.108 369.127 117.873 370.108 118 371.581Z" fill="#FFC263"/>
<path d="M831 415.937C830.899 417.848 830.091 419 828.451 419C827.025 419 826.127 418.024 826.015 416.33C825.88 414.419 826.677 413.145 828.316 413.009C829.933 412.887 830.809 413.985 831 415.937Z" fill="#FFC263"/>
<path d="M211 198.937C210.899 200.848 210.091 202 208.451 202C207.025 202 206.127 201.024 206.015 199.33C205.88 197.419 206.677 196.145 208.316 196.009C209.933 195.887 210.809 196.985 211 198.937Z" fill="#FFC263"/>
<path d="M640 292L543 187H640V292Z" fill="#EE885E"/>
<path d="M529 289L626 393H529V289Z" fill="#DA5077"/>
<path d="M142 170L45 66H142V170Z" fill="#244579"/>
<path d="M410.506 193L403 201H418L410.506 193Z" fill="#DA5077"/>
<path d="M432.995 193L426 201H440L432.995 193Z" fill="#DA5077"/>
<path d="M455.494 193L448 201H463L455.494 193Z" fill="#DA5077"/>
<path d="M477.5 193L470 201H485L477.5 193Z" fill="#DA5077"/>
<path d="M536.5 165L529 173H544L536.5 165Z" fill="#DA5077"/>
<path d="M559.5 165L552 173H567L559.5 165Z" fill="#DA5077"/>
<path d="M324.32 220.122L323.989 230.74L332.635 221.945L324.32 220.122Z" fill="#597EF7"/>
<path d="M338.215 205.987L337.576 216.92L346.839 207.497L338.215 205.987Z" fill="#597EF7"/>
<path d="M351.806 192.164L351.163 203.099L360.426 193.677L351.806 192.164Z" fill="#597EF7"/>
<path d="M365.393 178.343L364.75 189.279L374.013 179.856L365.393 178.343Z" fill="#597EF7"/>
<path d="M325.75 186.536L325.111 197.469L334.375 188.046L325.75 186.536Z" fill="#597EF7"/>
<path d="M339.339 172.712L338.696 183.648L347.96 174.225L339.339 172.712Z" fill="#597EF7"/>
<path d="M421.5 180L414 188H429L421.5 180Z" fill="#DA5077"/>
<path d="M444.5 180L437 188H452L444.5 180Z" fill="#DA5077"/>
<path d="M466.5 180L459 188H474L466.5 180Z" fill="#DA5077"/>
<path d="M525.5 152L518 160H533L525.5 152Z" fill="#DA5077"/>
<path d="M548 152L541 160H555L548 152Z" fill="#DA5077"/>
<path d="M324.943 202.779L324.3 213.715L333.564 204.292L324.943 202.779Z" fill="#597EF7"/>
<path d="M338.53 188.958L337.887 199.894L347.151 190.471L338.53 188.958Z" fill="#597EF7"/>
<path d="M352.117 175.14L351.474 186.076L360.738 176.653L352.117 175.14Z" fill="#597EF7"/>
<path d="M443.52 182.109L436.98 188.649H450.06L443.52 182.109Z" fill="#DA5077"/>
<path d="M603.5 421L596 429H611L603.5 421Z" fill="#FFC263"/>
<path d="M592.506 433L585 441H600L592.506 433Z" fill="#FFC263"/>
<path d="M614.506 433L607 441H622L614.506 433Z" fill="#FFC263"/>
<path d="M614.506 408L607 416H622L614.506 408Z" fill="#FFC263"/>
<path d="M175.494 215L183 207H168L175.494 215Z" fill="#FFC263"/>
<path d="M153.005 215L160 207H146L153.005 215Z" fill="#FFC263"/>
<path d="M130.5 215L138 207H123L130.5 215Z" fill="#FFC263"/>
<path d="M108.5 215L116 207H101L108.5 215Z" fill="#FFC263"/>
<path d="M153.005 239L160 231H146L153.005 239Z" fill="#FFC263"/>
<path d="M130.5 239L138 231H123L130.5 239Z" fill="#FFC263"/>
<path d="M108.5 239L116 231H101L108.5 239Z" fill="#FFC263"/>
<path d="M130.5 264L138 256H123L130.5 264Z" fill="#FFC263"/>
<path d="M108.5 264L116 256H101L108.5 264Z" fill="#FFC263"/>
<path d="M164.5 228L172 220H157L164.5 228Z" fill="#FFC263"/>
<path d="M141.5 228L149 220H134L141.5 228Z" fill="#FFC263"/>
<path d="M119.5 228L127 220H112L119.5 228Z" fill="#FFC263"/>
<path d="M97.5 228L105 220H90L97.5 228Z" fill="#FFC263"/>
<path d="M141.5 252L149 244H134L141.5 252Z" fill="#FFC263"/>
<path d="M119.5 252L127 244H112L119.5 252Z" fill="#FFC263"/>
<path d="M97.5 252L105 244H90L97.5 252Z" fill="#FFC263"/>
<path d="M119.5 277L127 269H112L119.5 277Z" fill="#FFC263"/>
<path d="M1096 472C1045.82 472 1005 428.039 1005 374C1005 319.961 1045.82 276 1096 276C1146.18 276 1187 319.961 1187 374C1186.99 428.039 1146.17 472 1096 472ZM1096 277.238C1046.45 277.238 1006.14 320.648 1006.14 374.012C1006.14 427.377 1046.45 470.786 1096 470.786C1145.55 470.786 1185.86 427.377 1185.86 374.012C1185.86 320.648 1145.54 277.238 1096 277.238Z" fill="#FFC263"/>
<path d="M1096 462C1050.79 462 1014 422.521 1014 374C1014 325.479 1050.79 286 1096 286C1141.21 286 1178 325.479 1178 374C1178 422.533 1141.21 462 1096 462ZM1096 288.449C1052.04 288.449 1016.27 326.832 1016.27 374.012C1016.27 421.192 1052.04 459.575 1096 459.575C1139.96 459.575 1175.73 421.192 1175.73 374.012C1175.73 326.832 1139.96 288.449 1096 288.449Z" fill="#FFC263"/>
<path d="M1096 438C1063.47 438 1037 409.288 1037 374C1037 338.712 1063.47 310 1096 310C1128.53 310 1155 338.712 1155 374C1155 409.288 1128.53 438 1096 438ZM1096 312.442C1064.71 312.442 1039.26 340.049 1039.26 373.988C1039.26 407.926 1064.71 435.534 1096 435.534C1127.29 435.534 1152.74 407.926 1152.74 373.988C1152.74 340.061 1127.29 312.442 1096 312.442Z" fill="#FFC263"/>
<path d="M1096 427C1068.98 427 1047 403.224 1047 374C1047 344.776 1068.98 321 1096 321C1123.02 321 1145 344.776 1145 374C1145 403.236 1123.02 427 1096 427ZM1096 322.227C1069.61 322.227 1048.13 345.451 1048.13 374C1048.13 402.549 1069.61 425.773 1096 425.773C1122.39 425.773 1143.87 402.549 1143.87 374C1143.87 345.463 1122.39 322.227 1096 322.227Z" fill="#FFC263"/>
<path d="M1095.5 407C1078.68 407 1065 392.201 1065 374C1065 355.799 1078.68 341 1095.5 341C1112.32 341 1126 355.799 1126 374C1126 392.189 1112.31 407 1095.5 407ZM1095.5 343.444C1079.94 343.444 1067.27 357.15 1067.27 373.988C1067.27 390.825 1079.94 404.531 1095.5 404.531C1111.06 404.531 1123.73 390.825 1123.73 373.988C1123.73 357.15 1111.06 343.444 1095.5 343.444Z" fill="#FFC263"/>
<path d="M1095.99 390C1087.73 390 1081 382.824 1081 374.006C1081 365.188 1087.73 358 1095.99 358C1104.26 358 1111 365.176 1111 374.006C1110.99 382.824 1104.26 390 1095.99 390ZM1095.99 359.198C1088.35 359.198 1082.12 365.835 1082.12 374.006C1082.12 382.177 1088.35 388.802 1095.99 388.802C1103.64 388.802 1109.88 382.165 1109.88 374.006C1109.88 365.847 1103.64 359.198 1095.99 359.198Z" fill="#FFC263"/>
<path d="M771.35 444L770.396 443.205C783.089 425.035 789.799 403.33 789.799 380.425C789.799 344.942 773.426 312.298 746 293.101L746.651 292C774.425 311.43 791 344.49 791 380.425C791 403.611 784.199 425.598 771.35 444Z" fill="#6B9BA5"/>
<path d="M220.35 267L219.396 266.205C232.089 248.035 238.799 226.33 238.799 203.425C238.799 167.942 222.426 135.298 195 116.101L195.651 115C223.425 134.43 240 167.49 240 203.425C240 226.611 233.199 248.598 220.35 267Z" fill="#853167"/>
<path d="M693.5 485C639.74 485 596 437.896 596 380C596 322.104 639.74 275 693.5 275V276.309C640.41 276.309 597.227 322.826 597.227 379.988C597.227 437.161 640.421 483.666 693.5 483.666C709.541 483.666 725.424 479.335 739.421 471.138L740 472.288C725.822 480.62 709.734 485 693.5 485Z" fill="#6B9BA5"/>
<path d="M142.5 308C88.7397 308 45 260.896 45 203C45 145.104 88.7397 98 142.5 98V99.3091C89.41 99.3091 46.227 145.826 46.227 202.988C46.227 260.161 89.4213 306.666 142.5 306.666C158.541 306.666 174.424 302.335 188.421 294.138L189 295.288C174.822 303.62 158.734 308 142.5 308Z" fill="#853167"/>
<path d="M81.5925 248C78.3863 226.628 68.1403 207.041 52.7255 192.854C37.151 178.509 17.2408 170.615 -3.31987 170.615C-19.9213 170.615 -36.032 175.686 -49.9179 185.29C-66.0971 196.483 -78.4426 213.346 -84.6838 232.775L-87 231.919C-80.5876 211.941 -67.8884 194.601 -51.2528 183.091C-36.9676 173.218 -20.4005 168 -3.33129 168C17.8226 168 38.292 176.126 54.3115 190.875C70.1598 205.464 80.7025 225.614 84 247.597L81.5925 248Z" fill="#6B9BA5"/>
<path d="M693.698 448C658.573 448 630 417.359 630 379.692C630 364.445 634.584 350.027 643.24 338L645.174 339.598C636.848 351.174 632.446 365.03 632.446 379.692C632.446 415.908 659.927 445.378 693.698 445.378C699.693 445.378 705.619 444.45 711.295 442.621L712 445.134C706.085 447.049 699.92 448 693.698 448Z" fill="#6B9BA5"/>
<path d="M142.698 271C107.573 271 79 240.359 79 202.692C79 187.445 83.584 173.027 92.2401 161L94.1738 162.598C85.8475 174.174 81.4455 188.03 81.4455 202.692C81.4455 238.908 108.927 268.378 142.698 268.378C148.693 268.378 154.619 267.45 160.295 265.621L161 268.134C155.085 270.049 148.92 271 142.698 271Z" fill="#853167"/>
<path d="M736.625 431L735 429.051C747.451 416.492 754.59 398.64 754.59 380.06C754.59 366.983 751.139 354.325 744.616 343.456L746.622 342C753.414 353.301 757 366.464 757 380.072C756.989 399.38 749.57 417.947 736.625 431Z" fill="#6B9BA5"/>
<path d="M185.625 254L184 252.051C196.451 239.492 203.59 221.64 203.59 203.06C203.59 189.983 200.139 177.325 193.616 166.456L195.622 165C202.414 176.301 206 189.464 206 203.072C205.989 222.38 198.57 240.947 185.625 254Z" fill="#853167"/>
<path d="M141.481 382C130.585 372.597 117.444 367.631 103.499 367.631C91.2653 367.631 79.4626 371.539 69.3606 378.939L68 376.751C78.4989 369.056 90.7778 365 103.499 365C118.011 365 131.673 370.163 143 379.947L141.481 382Z" fill="#6B9BA5"/>
<path d="M656.383 420C646.467 409.268 641 394.997 641 379.818C641 348.493 664.545 323 693.5 323C722.444 323 746 348.493 746 379.818H744.789C744.789 349.216 721.788 324.323 693.511 324.323C665.235 324.323 642.234 349.216 642.234 379.818C642.234 394.641 647.565 408.583 657.266 419.069L656.383 420Z" fill="#6B9BA5"/>
<path d="M105.383 243C95.4673 232.268 90 217.997 90 202.818C90 171.493 113.545 146 142.5 146C171.444 146 195 171.493 195 202.818H193.789C193.789 172.216 170.788 147.323 142.511 147.323C114.235 147.323 91.2338 172.216 91.2338 202.818C91.2338 217.641 96.5653 231.583 106.266 242.069L105.383 243Z" fill="#853167"/>
<path d="M693.5 415C675.577 415 661 399.302 661 380C661 360.698 675.577 345 693.5 345V347.608C676.918 347.608 663.422 362.142 663.422 380C663.422 397.858 676.918 412.392 693.5 412.392C710.082 412.392 723.578 397.858 723.578 380H726C725.989 399.302 711.412 415 693.5 415Z" fill="#6B9BA5"/>
<path d="M142.5 238C124.577 238 110 222.302 110 203C110 183.698 124.577 168 142.5 168V170.608C125.918 170.608 112.422 185.142 112.422 203C112.422 220.858 125.918 235.392 142.5 235.392C159.082 235.392 172.578 220.858 172.578 203H175C174.989 222.302 160.412 238 142.5 238Z" fill="#853167"/>
<path d="M762.506 438C753.401 438 746 430.153 746 420.5H747.232C747.232 429.421 754.08 436.682 762.494 436.682C770.908 436.682 777.757 429.421 777.757 420.5C777.757 411.579 770.908 404.318 762.494 404.318C757.821 404.318 753.47 406.539 750.547 410.42L749.58 409.602C752.734 405.404 757.441 403 762.494 403C771.599 403 779 410.847 779 420.5C779 430.153 771.599 438 762.506 438Z" fill="#6B9BA5"/>
<path d="M142.506 221C133.401 221 126 213.153 126 203.5H127.232C127.232 212.421 134.08 219.682 142.494 219.682C150.908 219.682 157.757 212.421 157.757 203.5C157.757 194.579 150.908 187.318 142.494 187.318C137.821 187.318 133.47 189.539 130.547 193.42L129.58 192.602C132.734 188.404 137.441 186 142.494 186C151.599 186 159 193.847 159 203.5C159 213.153 151.599 221 142.506 221Z" fill="#853167"/>
<path d="M932.514 374.974L927.362 369.5L932.514 364.026C933.162 363.337 933.162 362.205 932.514 361.517C931.865 360.828 930.8 360.828 930.152 361.517L925 366.991L919.848 361.517C919.2 360.828 918.135 360.828 917.486 361.517C916.838 362.205 916.838 363.337 917.486 364.026L922.638 369.5L917.486 374.974C916.838 375.663 916.838 376.795 917.486 377.483C918.135 378.172 919.2 378.172 919.848 377.483L925 372.009L930.152 377.483C930.8 378.172 931.865 378.172 932.514 377.483C933.162 376.795 933.162 375.663 932.514 374.974Z" fill="#FFC263"/>
<path d="M419.514 327.974L414.362 322.5L419.514 317.026C420.162 316.337 420.162 315.205 419.514 314.517C418.865 313.828 417.8 313.828 417.152 314.517L412 319.991L406.848 314.517C406.2 313.828 405.135 313.828 404.486 314.517C403.838 315.205 403.838 316.337 404.486 317.026L409.638 322.5L404.486 327.974C403.838 328.663 403.838 329.795 404.486 330.483C405.135 331.172 406.2 331.172 406.848 330.483L412 325.009L417.152 330.483C417.8 331.172 418.865 331.172 419.514 330.483C420.162 329.795 420.162 328.663 419.514 327.974Z" fill="#FFC263"/>
<path d="M973.514 454.974L968.362 449.5L973.514 444.026C974.162 443.337 974.162 442.206 973.514 441.517C972.865 440.828 971.8 440.828 971.152 441.517L966 446.991L960.848 441.517C960.2 440.828 959.135 440.828 958.486 441.517C957.838 442.206 957.838 443.337 958.486 444.026L963.638 449.5L958.486 454.974C957.838 455.663 957.838 456.794 958.486 457.483C959.135 458.172 960.2 458.172 960.848 457.483L966 452.009L971.152 457.483C971.8 458.172 972.865 458.172 973.514 457.483C974.162 456.794 974.162 455.675 973.514 454.974Z" fill="#DA5077"/>
<path d="M460.514 407.974L455.362 402.5L460.514 397.026C461.162 396.337 461.162 395.206 460.514 394.517C459.865 393.828 458.8 393.828 458.152 394.517L453 399.991L447.848 394.517C447.2 393.828 446.135 393.828 445.486 394.517C444.838 395.206 444.838 396.337 445.486 397.026L450.638 402.5L445.486 407.974C444.838 408.663 444.838 409.794 445.486 410.483C446.135 411.172 447.2 411.172 447.848 410.483L453 405.009L458.152 410.483C458.8 411.172 459.865 411.172 460.514 410.483C461.162 409.794 461.162 408.675 460.514 407.974Z" fill="#7CB305"/>
<path d="M358.514 476.974L353.362 471.5L358.514 466.026C359.162 465.337 359.162 464.206 358.514 463.517C357.865 462.828 356.8 462.828 356.152 463.517L351 468.991L345.848 463.517C345.2 462.828 344.135 462.828 343.486 463.517C342.838 464.206 342.838 465.337 343.486 466.026L348.638 471.5L343.486 476.974C342.838 477.663 342.838 478.794 343.486 479.483C344.135 480.172 345.2 480.172 345.848 479.483L351 474.009L356.152 479.483C356.8 480.172 357.865 480.172 358.514 479.483C359.162 478.794 359.162 477.675 358.514 476.974Z" fill="#7CB305"/>
<path d="M127.868 409.138L120.553 410.869L118.382 403.672C118.108 402.766 117.128 402.201 116.207 402.419C115.287 402.637 114.755 403.56 115.028 404.466L117.199 411.662L109.884 413.394C108.964 413.612 108.432 414.534 108.705 415.44C108.978 416.346 109.959 416.911 110.879 416.693L118.194 414.962L120.365 422.158C120.639 423.064 121.619 423.629 122.54 423.411C123.46 423.193 123.992 422.271 123.719 421.365L121.548 414.168L128.863 412.437C129.783 412.219 130.315 411.296 130.042 410.39C129.769 409.485 128.799 408.926 127.868 409.138Z" fill="#FFC263"/>
<path d="M912 418.5C912 422.095 909.318 425 906 425C902.682 425 900 422.095 900 418.5C900 414.905 902.682 412 906 412C909.318 412 912 414.905 912 418.5Z" fill="#FFC263"/>
<path d="M399 371.5C399 375.095 396.318 378 393 378C389.682 378 387 375.095 387 371.5C387 367.905 389.682 365 393 365C396.318 365 399 367.905 399 371.5Z" fill="#FFC263"/>
<path d="M297 440.5C297 444.095 294.318 447 291 447C287.682 447 285 444.095 285 440.5C285 436.905 287.682 434 291 434C294.318 434 297 436.905 297 440.5Z" fill="#FFC263"/>
<path d="M985 389.5C985 393.095 982.318 396 979 396C975.682 396 973 393.095 973 389.5C973 385.905 975.682 383 979 383C982.307 383 985 385.905 985 389.5Z" fill="#DA5077"/>
<path d="M1028 280.5C1028 284.095 1025.32 287 1022 287C1018.68 287 1016 284.095 1016 280.5C1016 276.905 1018.68 274 1022 274C1025.32 274 1028 276.905 1028 280.5Z" fill="#FFC263"/>
<path d="M214 241.5C214 245.095 211.318 248 208 248C204.682 248 202 245.095 202 241.5C202 237.905 204.682 235 208 235C211.318 235 214 237.917 214 241.5Z" fill="#FFC263"/>
<path d="M303 141.5C303 145.095 300.318 148 297 148C293.682 148 291 145.095 291 141.5C291 137.905 293.682 135 297 135C300.307 135 303 137.917 303 141.5Z" fill="#6B9BA5"/>
<path d="M1079 248.5C1079 252.095 1076.09 255 1072.5 255C1068.91 255 1066 252.095 1066 248.5C1066 244.905 1068.91 242 1072.5 242C1076.09 242 1079 244.917 1079 248.5Z" fill="#244579"/>
<path d="M344.5 257L369 231H320L344.5 257Z" fill="#244579"/>
<path d="M859 356.5L847 343V370L859 356.5Z" fill="#244579"/>
<path d="M346 309.5L334 296V323L346 309.5Z" fill="#FAAD14"/>
<path d="M878 356.5L866 343V370L878 356.5Z" fill="#244579"/>
<path d="M365 309.5L353 296V323L365 309.5Z" fill="#FAAD14"/>
<path d="M392 140.5L380 127V154L392 140.5Z" fill="#DA5077"/>
<path d="M411 140.5L399 127V154L411 140.5Z" fill="#DA5077"/>
<path d="M136 160V179L153 160H136Z" fill="#6B9BA5"/>
<path d="M122 146V165L140 146H122Z" fill="#6B9BA5"/>
<path d="M934.645 223.172C932.796 223.172 931.29 221.562 931.29 219.586C931.29 217.61 932.796 216 934.645 216C936.494 216 938 217.61 938 219.586C938 221.562 936.505 223.172 934.645 223.172ZM938 241.04C938 239.064 936.494 237.454 934.645 237.454C932.796 237.454 931.29 239.064 931.29 241.04C931.29 243.016 932.796 244.626 934.645 244.626C936.505 244.626 938 243.028 938 241.04ZM938 262.494C938 260.518 936.494 258.908 934.645 258.908C932.796 258.908 931.29 260.518 931.29 262.494C931.29 264.47 932.796 266.08 934.645 266.08C936.505 266.08 938 264.482 938 262.494ZM938 283.948C938 281.972 936.494 280.362 934.645 280.362C932.796 280.362 931.29 281.972 931.29 283.948C931.29 285.924 932.796 287.534 934.645 287.534C936.505 287.546 938 285.936 938 283.948ZM938 305.414C938 303.438 936.494 301.828 934.645 301.828C932.796 301.828 931.29 303.438 931.29 305.414C931.29 307.39 932.796 309 934.645 309C936.505 309 938 307.39 938 305.414ZM917.927 219.586C917.927 217.61 916.421 216 914.573 216C912.724 216 911.218 217.61 911.218 219.586C911.218 221.562 912.724 223.172 914.573 223.172C916.433 223.172 917.927 221.562 917.927 219.586ZM917.927 241.04C917.927 239.064 916.421 237.454 914.573 237.454C912.724 237.454 911.218 239.064 911.218 241.04C911.218 243.016 912.724 244.626 914.573 244.626C916.433 244.626 917.927 243.028 917.927 241.04ZM917.927 262.494C917.927 260.518 916.421 258.908 914.573 258.908C912.724 258.908 911.218 260.518 911.218 262.494C911.218 264.47 912.724 266.08 914.573 266.08C916.433 266.08 917.927 264.482 917.927 262.494ZM917.927 283.948C917.927 281.972 916.421 280.362 914.573 280.362C912.724 280.362 911.218 281.972 911.218 283.948C911.218 285.924 912.724 287.534 914.573 287.534C916.433 287.546 917.927 285.936 917.927 283.948ZM917.927 305.414C917.927 303.438 916.421 301.828 914.573 301.828C912.724 301.828 911.218 303.438 911.218 305.414C911.218 307.39 912.724 309 914.573 309C916.433 309 917.927 307.39 917.927 305.414ZM897.855 219.586C897.855 217.61 896.349 216 894.5 216C892.651 216 891.145 217.61 891.145 219.586C891.145 221.562 892.651 223.172 894.5 223.172C896.349 223.172 897.855 221.562 897.855 219.586ZM897.855 241.04C897.855 239.064 896.349 237.454 894.5 237.454C892.651 237.454 891.145 239.064 891.145 241.04C891.145 243.016 892.651 244.626 894.5 244.626C896.349 244.626 897.855 243.028 897.855 241.04ZM897.855 262.494C897.855 260.518 896.349 258.908 894.5 258.908C892.651 258.908 891.145 260.518 891.145 262.494C891.145 264.47 892.651 266.08 894.5 266.08C896.349 266.08 897.855 264.482 897.855 262.494ZM897.855 283.948C897.855 281.972 896.349 280.362 894.5 280.362C892.651 280.362 891.145 281.972 891.145 283.948C891.145 285.924 892.651 287.534 894.5 287.534C896.349 287.534 897.855 285.936 897.855 283.948ZM897.855 305.414C897.855 303.438 896.349 301.828 894.5 301.828C892.651 301.828 891.145 303.438 891.145 305.414C891.145 307.39 892.651 309 894.5 309C896.349 309 897.855 307.39 897.855 305.414ZM877.782 219.586C877.782 217.61 876.276 216 874.427 216C872.579 216 871.073 217.61 871.073 219.586C871.073 221.562 872.579 223.172 874.427 223.172C876.276 223.172 877.782 221.562 877.782 219.586ZM877.782 241.04C877.782 239.064 876.276 237.454 874.427 237.454C872.579 237.454 871.073 239.064 871.073 241.04C871.073 243.016 872.579 244.626 874.427 244.626C876.276 244.626 877.782 243.028 877.782 241.04ZM877.782 262.494C877.782 260.518 876.276 258.908 874.427 258.908C872.579 258.908 871.073 260.518 871.073 262.494C871.073 264.47 872.579 266.08 874.427 266.08C876.276 266.08 877.782 264.482 877.782 262.494ZM877.782 283.948C877.782 281.972 876.276 280.362 874.427 280.362C872.579 280.362 871.073 281.972 871.073 283.948C871.073 285.924 872.579 287.534 874.427 287.534C876.276 287.546 877.782 285.936 877.782 283.948ZM877.782 305.414C877.782 303.438 876.276 301.828 874.427 301.828C872.579 301.828 871.073 303.438 871.073 305.414C871.073 307.39 872.579 309 874.427 309C876.276 309 877.782 307.39 877.782 305.414ZM857.71 219.586C857.71 217.61 856.204 216 854.355 216C852.506 216 851 217.61 851 219.586C851 221.562 852.506 223.172 854.355 223.172C856.204 223.172 857.71 221.562 857.71 219.586ZM857.71 241.04C857.71 239.064 856.204 237.454 854.355 237.454C852.506 237.454 851 239.064 851 241.04C851 243.016 852.506 244.626 854.355 244.626C856.204 244.626 857.71 243.028 857.71 241.04ZM857.71 262.494C857.71 260.518 856.204 258.908 854.355 258.908C852.506 258.908 851 260.518 851 262.494C851 264.47 852.506 266.08 854.355 266.08C856.204 266.08 857.71 264.482 857.71 262.494ZM857.71 283.948C857.71 281.972 856.204 280.362 854.355 280.362C852.506 280.362 851 281.972 851 283.948C851 285.924 852.506 287.534 854.355 287.534C856.204 287.546 857.71 285.936 857.71 283.948ZM857.71 305.414C857.71 303.438 856.204 301.828 854.355 301.828C852.506 301.828 851 303.438 851 305.414C851 307.39 852.506 309 854.355 309C856.204 309 857.71 307.39 857.71 305.414Z" fill="#FFC263"/>
<path d="M690.646 135.172C688.797 135.172 687.291 133.562 687.291 131.586C687.291 129.61 688.797 128 690.646 128C692.494 128 694 129.61 694 131.586C694 133.574 692.494 135.172 690.646 135.172ZM694 153.04C694 151.064 692.494 149.454 690.646 149.454C688.797 149.454 687.291 151.064 687.291 153.04C687.291 155.016 688.797 156.626 690.646 156.626C692.494 156.626 694 155.028 694 153.04ZM694 174.494C694 172.518 692.494 170.908 690.646 170.908C688.797 170.908 687.291 172.518 687.291 174.494C687.291 176.47 688.797 178.08 690.646 178.08C692.494 178.092 694 176.482 694 174.494ZM694 195.96C694 193.984 692.494 192.374 690.646 192.374C688.797 192.374 687.291 193.984 687.291 195.96C687.291 197.936 688.797 199.546 690.646 199.546C692.494 199.546 694 197.936 694 195.96ZM694 217.414C694 215.438 692.494 213.828 690.646 213.828C688.797 213.828 687.291 215.438 687.291 217.414C687.291 219.39 688.797 221 690.646 221C692.494 221 694 219.39 694 217.414ZM673.93 131.586C673.93 129.61 672.424 128 670.576 128C668.727 128 667.221 129.61 667.221 131.586C667.221 133.562 668.727 135.172 670.576 135.172C672.424 135.172 673.93 133.574 673.93 131.586ZM673.93 153.04C673.93 151.064 672.424 149.454 670.576 149.454C668.727 149.454 667.221 151.064 667.221 153.04C667.221 155.016 668.727 156.626 670.576 156.626C672.424 156.626 673.93 155.028 673.93 153.04ZM673.93 174.494C673.93 172.518 672.424 170.908 670.576 170.908C668.727 170.908 667.221 172.518 667.221 174.494C667.221 176.47 668.727 178.08 670.576 178.08C672.424 178.092 673.93 176.482 673.93 174.494ZM673.93 195.96C673.93 193.984 672.424 192.374 670.576 192.374C668.727 192.374 667.221 193.984 667.221 195.96C667.221 197.936 668.727 199.546 670.576 199.546C672.424 199.546 673.93 197.936 673.93 195.96ZM673.93 217.414C673.93 215.438 672.424 213.828 670.576 213.828C668.727 213.828 667.221 215.438 667.221 217.414C667.221 219.39 668.727 221 670.576 221C672.424 221 673.93 219.39 673.93 217.414ZM653.849 131.586C653.849 129.61 652.343 128 650.494 128C648.646 128 647.14 129.61 647.14 131.586C647.14 133.562 648.646 135.172 650.494 135.172C652.354 135.172 653.849 133.574 653.849 131.586ZM653.849 153.04C653.849 151.064 652.343 149.454 650.494 149.454C648.646 149.454 647.14 151.064 647.14 153.04C647.14 155.016 648.646 156.626 650.494 156.626C652.354 156.626 653.849 155.028 653.849 153.04ZM653.849 174.494C653.849 172.518 652.343 170.908 650.494 170.908C648.646 170.908 647.14 172.518 647.14 174.494C647.14 176.47 648.646 178.08 650.494 178.08C652.354 178.092 653.849 176.482 653.849 174.494ZM653.849 195.96C653.849 193.984 652.343 192.374 650.494 192.374C648.646 192.374 647.14 193.984 647.14 195.96C647.14 197.936 648.646 199.546 650.494 199.546C652.354 199.546 653.849 197.936 653.849 195.96ZM653.849 217.414C653.849 215.438 652.343 213.828 650.494 213.828C648.646 213.828 647.14 215.438 647.14 217.414C647.14 219.39 648.646 221 650.494 221C652.354 221 653.849 219.39 653.849 217.414ZM633.779 131.586C633.779 129.61 632.273 128 630.424 128C628.576 128 627.07 129.61 627.07 131.586C627.07 133.562 628.576 135.172 630.424 135.172C632.284 135.172 633.779 133.574 633.779 131.586ZM633.779 153.04C633.779 151.064 632.273 149.454 630.424 149.454C628.576 149.454 627.07 151.064 627.07 153.04C627.07 155.016 628.576 156.626 630.424 156.626C632.284 156.626 633.779 155.028 633.779 153.04ZM633.779 174.494C633.779 172.518 632.273 170.908 630.424 170.908C628.576 170.908 627.07 172.518 627.07 174.494C627.07 176.47 628.576 178.08 630.424 178.08C632.284 178.092 633.779 176.482 633.779 174.494ZM633.779 195.96C633.779 193.984 632.273 192.374 630.424 192.374C628.576 192.374 627.07 193.984 627.07 195.96C627.07 197.936 628.576 199.546 630.424 199.546C632.284 199.546 633.779 197.936 633.779 195.96ZM633.779 217.414C633.779 215.438 632.273 213.828 630.424 213.828C628.576 213.828 627.07 215.438 627.07 217.414C627.07 219.39 628.576 221 630.424 221C632.284 221 633.779 219.39 633.779 217.414ZM613.709 131.586C613.709 129.61 612.203 128 610.354 128C608.506 128 607 129.61 607 131.586C607 133.562 608.506 135.172 610.354 135.172C612.203 135.172 613.709 133.574 613.709 131.586ZM613.709 153.04C613.709 151.064 612.203 149.454 610.354 149.454C608.506 149.454 607 151.064 607 153.04C607 155.016 608.506 156.626 610.354 156.626C612.203 156.626 613.709 155.028 613.709 153.04ZM613.709 174.494C613.709 172.518 612.203 170.908 610.354 170.908C608.506 170.908 607 172.518 607 174.494C607 176.47 608.506 178.08 610.354 178.08C612.203 178.08 613.709 176.482 613.709 174.494ZM613.709 195.96C613.709 193.984 612.203 192.374 610.354 192.374C608.506 192.374 607 193.984 607 195.96C607 197.936 608.506 199.546 610.354 199.546C612.203 199.546 613.709 197.936 613.709 195.96ZM613.709 217.414C613.709 215.438 612.203 213.828 610.354 213.828C608.506 213.828 607 215.438 607 217.414C607 219.39 608.506 221 610.354 221C612.203 221 613.709 219.39 613.709 217.414Z" fill="white"/>
<path d="M680.705 43.1306C680.627 42.866 680.348 42.7154 680.083 42.7944C680.081 42.795 680.079 42.7956 680.077 42.7962C679.339 40.5344 678.169 38.3308 676.602 36.2006C676.603 36.1997 676.604 36.1989 676.606 36.198C676.825 36.0306 676.868 35.7169 676.7 35.4973C674.702 32.8758 672.12 30.3762 669.027 28.0233C668.807 27.8561 668.494 27.8988 668.326 28.1185C668.326 28.1192 668.325 28.1198 668.325 28.1204C666.423 26.7015 664.328 25.3345 662.056 24.0257C662.056 24.0252 662.057 24.0247 662.057 24.0243C662.193 23.7841 662.109 23.4789 661.869 23.3427C658.945 21.6845 655.74 20.1224 652.283 18.6687C652.029 18.5616 651.736 18.6812 651.629 18.9357C651.628 18.9361 651.628 18.9364 651.628 18.9368C649.398 18.0112 647.065 17.1301 644.634 16.2968C644.635 16.2965 644.635 16.2962 644.635 16.2959C644.723 16.0343 644.583 15.7505 644.322 15.6619C641.079 14.564 637.67 13.5508 634.113 12.6301C633.846 12.561 633.573 12.7216 633.504 12.9889C633.504 12.9892 633.504 12.9894 633.504 12.9897C631.136 12.3848 628.704 11.8208 626.211 11.2999C626.211 11.2997 626.211 11.2994 626.211 11.2992C626.267 11.0287 626.093 10.7643 625.823 10.7086C622.436 10.0108 618.942 9.39231 615.353 8.85883C615.08 8.81823 614.825 9.00674 614.785 9.27989C614.785 9.28009 614.785 9.2803 614.785 9.2805C612.349 8.9247 609.871 8.60803 607.353 8.33227C607.353 8.33208 607.353 8.33188 607.353 8.33169C607.382 8.05712 607.184 7.81068 606.909 7.78126C603.448 7.41036 599.914 7.11653 596.319 6.90431C596.043 6.88804 595.806 7.09832 595.79 7.37398C595.79 7.37417 595.79 7.37435 595.79 7.37453C593.323 7.23433 590.827 7.13262 588.305 7.07087C588.305 7.0707 588.305 7.07052 588.305 7.07034C588.311 6.79427 588.092 6.56546 587.816 6.55929C586.056 6.51993 584.284 6.5 582.5 6.5C580.716 6.5 578.944 6.51993 577.184 6.55929C576.908 6.56546 576.689 6.79427 576.695 7.07034C576.695 7.07052 576.695 7.0707 576.695 7.07087C574.173 7.13262 571.677 7.23433 569.21 7.37453C569.21 7.37435 569.21 7.37417 569.21 7.37398C569.194 7.09832 568.957 6.88804 568.681 6.90431C565.086 7.11653 561.552 7.41037 558.091 7.78126C557.816 7.81068 557.618 8.05712 557.647 8.33169C557.647 8.33188 557.647 8.33208 557.647 8.33227C555.129 8.60803 552.651 8.9247 550.215 9.2805C550.215 9.2803 550.215 9.28009 550.215 9.27989C550.175 9.00675 549.92 8.81823 549.647 8.85883C546.058 9.39231 542.564 10.0108 539.177 10.7086C538.907 10.7643 538.733 11.0287 538.789 11.2992C538.789 11.2994 538.789 11.2997 538.789 11.2999C536.296 11.8208 533.864 12.3848 531.496 12.9897C531.496 12.9894 531.496 12.9892 531.496 12.9889C531.427 12.7216 531.154 12.561 530.887 12.6301C527.33 13.5508 523.921 14.564 520.678 15.6619C520.417 15.7505 520.277 16.0343 520.365 16.2959C520.365 16.2962 520.365 16.2965 520.366 16.2968C517.935 17.1301 515.602 18.0112 513.372 18.9368C513.372 18.9364 513.372 18.9361 513.371 18.9357C513.264 18.6812 512.971 18.5616 512.717 18.6687C509.26 20.1224 506.055 21.6845 503.131 23.3427C502.891 23.4789 502.807 23.7841 502.943 24.0243C502.943 24.0247 502.944 24.0252 502.944 24.0257C500.672 25.3345 498.577 26.7015 496.675 28.1204C496.675 28.1198 496.674 28.1192 496.674 28.1185C496.506 27.8988 496.193 27.8561 495.973 28.0233C492.88 30.3762 490.298 32.8758 488.3 35.4973C488.132 35.7169 488.175 36.0306 488.394 36.198C488.396 36.1989 488.397 36.1997 488.398 36.2006C486.831 38.3308 485.661 40.5345 484.923 42.7962C484.921 42.7956 484.919 42.795 484.917 42.7944C484.652 42.7154 484.373 42.866 484.295 43.1306C483.771 44.8871 483.5 46.6796 483.5 48.5C483.5 50.3204 483.771 52.1129 484.295 53.8694C484.373 54.134 484.652 54.2846 484.917 54.2056C484.919 54.205 484.921 54.2044 484.923 54.2038C485.661 56.4656 486.831 58.6692 488.398 60.7994C488.397 60.8003 488.396 60.8011 488.394 60.802C488.175 60.9694 488.132 61.2831 488.3 61.5027C490.298 64.1242 492.88 66.6238 495.973 68.9767C496.193 69.1439 496.506 69.1012 496.674 68.8815C496.674 68.8808 496.675 68.8802 496.675 68.8796C498.577 70.2985 500.672 71.6655 502.944 72.9743C502.944 72.9748 502.943 72.9753 502.943 72.9757C502.807 73.2159 502.891 73.5211 503.131 73.6573C506.055 75.3155 509.26 76.8776 512.717 78.3313C512.971 78.4384 513.264 78.3188 513.371 78.0643C513.372 78.0639 513.372 78.0636 513.372 78.0632C515.602 78.9888 517.935 79.8699 520.366 80.7032C520.365 80.7035 520.365 80.7038 520.365 80.7041C520.277 80.9657 520.417 81.2495 520.678 81.3381C523.921 82.436 527.33 83.4492 530.887 84.3699C531.154 84.439 531.427 84.2784 531.496 84.0111C531.496 84.0108 531.496 84.0106 531.496 84.0103C533.864 84.6152 536.296 85.1792 538.789 85.7001C538.789 85.7003 538.789 85.7006 538.789 85.7008C538.733 85.9713 538.907 86.2357 539.177 86.2914C542.564 86.9892 546.058 87.6077 549.647 88.1412C549.92 88.1818 550.175 87.9933 550.215 87.7201C550.215 87.7199 550.215 87.7197 550.215 87.7195C552.651 88.0753 555.129 88.392 557.647 88.6677C557.647 88.6679 557.647 88.6681 557.647 88.6683C557.618 88.9429 557.816 89.1893 558.091 89.2187C561.552 89.5896 565.086 89.8835 568.681 90.0957C568.957 90.112 569.194 89.9017 569.21 89.626C569.21 89.6258 569.21 89.6257 569.21 89.6255C571.677 89.7657 574.173 89.8674 576.695 89.9291C576.695 89.9293 576.695 89.9295 576.695 89.9297C576.689 90.2057 576.908 90.4345 577.184 90.4407C578.944 90.4801 580.716 90.5 582.5 90.5C584.284 90.5 586.056 90.4801 587.816 90.4407C588.092 90.4345 588.311 90.2057 588.305 89.9297C588.305 89.9295 588.305 89.9293 588.305 89.9291C590.827 89.8674 593.323 89.7657 595.79 89.6255C595.79 89.6256 595.79 89.6258 595.79 89.626C595.806 89.9017 596.043 90.112 596.319 90.0957C599.914 89.8835 603.448 89.5896 606.909 89.2187C607.184 89.1893 607.382 88.9429 607.353 88.6683C607.353 88.6681 607.353 88.6679 607.353 88.6677C609.871 88.392 612.349 88.0753 614.785 87.7195C614.785 87.7197 614.785 87.7199 614.785 87.7201C614.825 87.9933 615.08 88.1818 615.353 88.1412C618.942 87.6077 622.436 86.9892 625.823 86.2914C626.093 86.2357 626.267 85.9713 626.211 85.7008C626.211 85.7006 626.211 85.7003 626.211 85.7001C628.704 85.1792 631.136 84.6152 633.504 84.0103C633.504 84.0106 633.504 84.0108 633.504 84.0111C633.573 84.2784 633.846 84.439 634.113 84.3699C637.67 83.4492 641.079 82.436 644.322 81.3381C644.583 81.2495 644.723 80.9657 644.635 80.7041C644.635 80.7038 644.635 80.7035 644.634 80.7032C647.065 79.8699 649.398 78.9888 651.628 78.0632C651.628 78.0636 651.628 78.0639 651.629 78.0643C651.736 78.3188 652.029 78.4384 652.283 78.3313C655.74 76.8776 658.945 75.3156 661.869 73.6573C662.109 73.5211 662.193 73.2159 662.057 72.9757C662.057 72.9753 662.056 72.9748 662.056 72.9743C664.328 71.6655 666.423 70.2985 668.325 68.8796C668.325 68.8802 668.326 68.8808 668.326 68.8815C668.494 69.1012 668.807 69.1439 669.027 68.9767C672.12 66.6238 674.702 64.1242 676.7 61.5027C676.868 61.2831 676.825 60.9694 676.606 60.802C676.604 60.8011 676.603 60.8003 676.602 60.7994C678.169 58.6692 679.339 56.4655 680.077 54.2038C680.079 54.2044 680.081 54.205 680.083 54.2056C680.348 54.2846 680.627 54.134 680.705 53.8694C681.229 52.1129 681.5 50.3204 681.5 48.5C681.5 46.6796 681.229 44.8871 680.705 43.1306Z" stroke="white" stroke-linecap="round" stroke-dasharray="10 8"/>
</g>
<defs>
<clipPath id="clip0">
<rect width="1200" height="491" fill="white"/>
</clipPath>
</defs>
</svg>
