<svg width="15" height="15" viewBox="0 0 15 15" fill="none" xmlns="http://www.w3.org/2000/svg">
<path d="M7.50051 0.3H7.50056C9.40996 0.3 11.2412 1.05856 12.5913 2.40882C13.9415 3.75908 14.7 5.59043 14.7 7.5C14.7 9.40957 13.9415 11.2409 12.5913 12.5912C11.2412 13.9414 9.40996 14.7 7.50056 14.7H0.751124C0.751103 14.7 0.751081 14.7 0.75106 14.7C0.66211 14.7 0.575164 14.6736 0.501208 14.6241C0.427233 14.5747 0.369574 14.5044 0.335524 14.4222C0.301474 14.34 0.292562 14.2495 0.309917 14.1622C0.327272 14.0749 0.370113 13.9948 0.433022 13.9318L1.90583 12.4597L2.09782 12.2678L1.92599 12.0576C1.06336 11.0025 0.517872 9.72429 0.352932 8.37144C0.187991 7.01859 0.410376 5.6467 0.994235 4.41525C1.57809 3.1838 2.49944 2.14337 3.65119 1.41489C4.80293 0.686406 6.13776 0.299798 7.50051 0.3ZM9.53031 7.90181L9.80748 7.78701L9.53031 7.90181C9.60977 8.09367 9.74434 8.25766 9.91701 8.37304C10.0897 8.48842 10.2927 8.55 10.5003 8.55C10.7788 8.55 11.0459 8.43937 11.2428 8.24245C11.4397 8.04554 11.5503 7.77847 11.5503 7.5C11.5503 7.29234 11.4887 7.08933 11.3733 6.91666C11.258 6.74399 11.094 6.6094 10.9021 6.52993C10.7103 6.45045 10.4992 6.42966 10.2955 6.47018C10.0918 6.51069 9.90474 6.6107 9.7579 6.75755C9.61107 6.90439 9.51108 7.09148 9.47056 7.29516C9.43005 7.49884 9.45084 7.70995 9.53031 7.90181ZM3.91745 8.37304C4.09012 8.48842 4.29312 8.55 4.50078 8.55C4.77925 8.55 5.04631 8.43937 5.24321 8.24245C5.44011 8.04554 5.55073 7.77847 5.55073 7.5C5.55073 7.29233 5.48915 7.08933 5.37378 6.91666C5.25842 6.74399 5.09444 6.6094 4.90258 6.52993C4.71073 6.45045 4.49962 6.42966 4.29594 6.47018C4.09227 6.51069 3.90519 6.6107 3.75835 6.75755C3.61152 6.90439 3.51152 7.09148 3.47101 7.29516C3.4305 7.49883 3.45129 7.70995 3.53076 7.90181C3.61022 8.09367 3.74479 8.25766 3.91745 8.37304ZM6.91723 8.37304C7.08989 8.48842 7.29289 8.55 7.50056 8.55C7.77903 8.55 8.04609 8.43937 8.24299 8.24245C8.43989 8.04554 8.5505 7.77847 8.5505 7.5C8.5505 7.29234 8.48893 7.08933 8.37356 6.91666C8.25819 6.74399 8.09422 6.6094 7.90236 6.52993C7.71051 6.45045 7.49939 6.42966 7.29572 6.47018C7.09205 6.51069 6.90496 6.6107 6.75813 6.75755C6.61129 6.90439 6.5113 7.09148 6.47079 7.29516C6.43028 7.49883 6.45107 7.70995 6.53053 7.90181C6.61 8.09367 6.74457 8.25766 6.91723 8.37304Z" stroke="#8B8B8B" stroke-width="0.6"/>
</svg>
