<svg width="16" height="15" viewBox="0 0 16 15" fill="none" xmlns="http://www.w3.org/2000/svg">
<path d="M7.73836 2.79317L7.99922 3.25243L8.26008 2.79317C8.95669 1.56673 10.174 0.8 11.5447 0.8C13.6878 0.8 15.4992 2.77771 15.4992 5.26667C15.4992 6.3778 15.0436 7.51191 14.3295 8.60289C13.6168 9.69174 12.6611 10.7155 11.6965 11.5997C10.7331 12.4828 9.76835 13.2199 9.04381 13.7365C8.68181 13.9945 8.38044 14.1971 8.17004 14.3349C8.10402 14.3781 8.04697 14.415 7.99984 14.4451C7.95263 14.4147 7.89544 14.3775 7.82923 14.3338C7.61879 14.195 7.31736 13.991 6.95531 13.7314C6.23068 13.2116 5.2658 12.4708 4.30224 11.5851C3.3375 10.6983 2.38167 9.67315 1.66885 8.58594C0.954516 7.49641 0.499219 6.36741 0.499219 5.26667C0.499219 2.77771 2.3106 0.8 4.45376 0.8C5.82446 0.8 7.04175 1.56673 7.73836 2.79317Z" stroke="#8B8B8B" stroke-width="0.6"/>
</svg>
