<svg width="249" height="157" viewBox="0 0 249 157" fill="none" xmlns="http://www.w3.org/2000/svg">
<g filter="url(#filter0_d)">
<path fill-rule="evenodd" clip-rule="evenodd" d="M113.465 128.617H135.657V111.18H113.465V128.617Z" fill="#597EF7"/>
<path fill-rule="evenodd" clip-rule="evenodd" d="M149.104 134.586H100.756C98.7863 134.586 97.1895 132.99 97.1895 131.02C97.1895 129.05 98.7863 127.453 100.756 127.453H149.104C151.074 127.453 152.67 129.05 152.67 131.02C152.67 132.99 151.074 134.586 149.104 134.586Z" fill="#597EF7"/>
<path fill-rule="evenodd" clip-rule="evenodd" d="M199.123 112.311H48.9373C45.2504 112.311 42.2617 109.323 42.2617 105.636V14.1014C42.2617 10.4145 45.2504 7.42578 48.9373 7.42578H199.123C202.81 7.42578 205.798 10.4145 205.798 14.1014V105.636C205.798 109.323 202.81 112.311 199.123 112.311Z" fill="#253368"/>
<g filter="url(#filter1_d)">
<path fill-rule="evenodd" clip-rule="evenodd" d="M193.819 131.458H192.989C191.849 131.458 190.915 130.527 190.915 129.389V112.833C190.915 111.695 191.849 110.764 192.989 110.764H193.819C194.96 110.764 195.893 111.695 195.893 112.833V129.389C195.893 130.527 194.96 131.458 193.819 131.458Z" fill="#253368"/>
<path fill-rule="evenodd" clip-rule="evenodd" d="M218.469 132.075C218.469 133.447 217.355 134.559 215.98 134.559H171.18C169.805 134.559 168.69 133.447 168.69 132.075C168.69 130.704 169.805 129.592 171.18 129.592H215.98C217.355 129.592 218.469 130.704 218.469 132.075Z" fill="#253368"/>
<path fill-rule="evenodd" clip-rule="evenodd" d="M186.327 136.271C185.643 136.271 185.083 135.712 185.083 135.029V129.122C185.083 128.439 185.643 127.881 186.327 127.881H200.482C201.166 127.881 201.727 128.439 201.727 129.122V135.029C201.727 135.712 201.166 136.271 200.482 136.271H186.327Z" fill="#ADC6FF"/>
<path d="M187.149 129.105V135.049" stroke="#597EF7" stroke-width="6" stroke-linecap="round" stroke-linejoin="round"/>
<path d="M199.452 129.105V135.049" stroke="#597EF7" stroke-width="6" stroke-linecap="round" stroke-linejoin="round"/>
<path fill-rule="evenodd" clip-rule="evenodd" d="M170.243 120.348H216.915V65.9531H170.243V120.348Z" fill="#253368"/>
<path fill-rule="evenodd" clip-rule="evenodd" d="M170.034 120.818C168.866 120.818 167.91 119.865 167.91 118.7V106.173C167.91 105.008 168.866 104.055 170.034 104.055H217.126C218.294 104.055 219.25 105.008 219.25 106.173V118.7C219.25 119.865 218.294 120.818 217.126 120.818H170.034Z" fill="#ADC6FF"/>
<path fill-rule="evenodd" clip-rule="evenodd" d="M170.034 81.6822C168.866 81.6822 167.91 80.7286 167.91 79.5629V67.0372C167.91 65.872 168.866 64.918 170.034 64.918H217.126C218.294 64.918 219.25 65.872 219.25 67.0372V79.5629C219.25 80.7286 218.294 81.6822 217.126 81.6822H170.034Z" fill="#ADC6FF"/>
<path fill-rule="evenodd" clip-rule="evenodd" d="M173.861 74.8894C172.982 74.8894 172.269 74.1775 172.269 73.3C172.269 72.4223 172.982 71.7109 173.861 71.7109C174.741 71.7109 175.454 72.4223 175.454 73.3C175.454 74.1775 174.741 74.8894 173.861 74.8894Z" fill="white"/>
<path fill-rule="evenodd" clip-rule="evenodd" d="M177.177 73.3C177.177 72.4223 177.89 71.7109 178.77 71.7109C179.649 71.7109 180.363 72.4223 180.363 73.3C180.363 74.1775 179.649 74.8894 178.77 74.8894C177.89 74.8894 177.177 74.1775 177.177 73.3Z" fill="white"/>
<path fill-rule="evenodd" clip-rule="evenodd" d="M183.68 74.8894C182.8 74.8894 182.087 74.1775 182.087 73.3C182.087 72.4223 182.8 71.7109 183.68 71.7109C184.559 71.7109 185.273 72.4223 185.273 73.3C185.273 74.1775 184.559 74.8894 183.68 74.8894Z" fill="white"/>
<path fill-rule="evenodd" clip-rule="evenodd" d="M200.586 74.8894C200.343 74.8894 200.146 74.6932 200.146 74.4511V72.1493C200.146 71.9071 200.343 71.7109 200.586 71.7109H215.636C215.879 71.7109 216.075 71.9071 216.075 72.1493V74.4511C216.075 74.6932 215.879 74.8894 215.636 74.8894H200.586Z" fill="#597EF7"/>
<path fill-rule="evenodd" clip-rule="evenodd" d="M170.034 101.249C168.866 101.249 167.91 100.295 167.91 99.1293V86.6036C167.91 85.4384 168.866 84.4844 170.034 84.4844H217.126C218.294 84.4844 219.25 85.4384 219.25 86.6036V99.1293C219.25 100.295 218.294 101.249 217.126 101.249H170.034Z" fill="#ADC6FF"/>
<path fill-rule="evenodd" clip-rule="evenodd" d="M173.861 95.0241C172.982 95.0241 172.269 94.3127 172.269 93.4347C172.269 92.5571 172.982 91.8457 173.861 91.8457C174.741 91.8457 175.454 92.5571 175.454 93.4347C175.454 94.3127 174.741 95.0241 173.861 95.0241Z" fill="white"/>
<path fill-rule="evenodd" clip-rule="evenodd" d="M178.77 95.0241C177.89 95.0241 177.177 94.3127 177.177 93.4347C177.177 92.5571 177.89 91.8457 178.77 91.8457C179.649 91.8457 180.363 92.5571 180.363 93.4347C180.363 94.3127 179.649 95.0241 178.77 95.0241Z" fill="white"/>
<path fill-rule="evenodd" clip-rule="evenodd" d="M183.68 95.0241C182.8 95.0241 182.087 94.3127 182.087 93.4347C182.087 92.5571 182.8 91.8457 183.68 91.8457C184.559 91.8457 185.273 92.5571 185.273 93.4347C185.273 94.3127 184.559 95.0241 183.68 95.0241Z" fill="white"/>
<path fill-rule="evenodd" clip-rule="evenodd" d="M215.544 95.0241H200.677C200.384 95.0241 200.146 94.7872 200.146 94.4943V92.375C200.146 92.0827 200.384 91.8457 200.677 91.8457H215.544C215.838 91.8457 216.075 92.0827 216.075 92.375V94.4943C216.075 94.7872 215.838 95.0241 215.544 95.0241Z" fill="#4AFF46"/>
<path fill-rule="evenodd" clip-rule="evenodd" d="M172.269 112.552C172.269 111.674 172.982 110.963 173.861 110.963C174.741 110.963 175.454 111.674 175.454 112.552C175.454 113.429 174.741 114.141 173.861 114.141C172.982 114.141 172.269 113.429 172.269 112.552Z" fill="white"/>
<path fill-rule="evenodd" clip-rule="evenodd" d="M178.77 114.141C177.89 114.141 177.177 113.429 177.177 112.552C177.177 111.674 177.89 110.963 178.77 110.963C179.649 110.963 180.363 111.674 180.363 112.552C180.363 113.429 179.649 114.141 178.77 114.141Z" fill="white"/>
<path fill-rule="evenodd" clip-rule="evenodd" d="M183.68 114.141C182.8 114.141 182.087 113.429 182.087 112.552C182.087 111.674 182.8 110.963 183.68 110.963C184.559 110.963 185.273 111.674 185.273 112.552C185.273 113.429 184.559 114.141 183.68 114.141Z" fill="white"/>
<path fill-rule="evenodd" clip-rule="evenodd" d="M215.544 114.141H200.677C200.384 114.141 200.146 113.904 200.146 113.612V111.492C200.146 111.2 200.384 110.963 200.677 110.963H215.544C215.838 110.963 216.075 111.2 216.075 111.492V113.612C216.075 113.904 215.838 114.141 215.544 114.141Z" fill="#597EF7"/>
</g>
<path d="M71.2762 28.1602C72.4406 27.4385 73.7876 27.0861 75.3171 27.1032C75.6543 27.107 75.9552 27.1284 76.2197 27.1675C76.4843 27.2066 76.7185 27.2634 76.9225 27.3379L76.9044 27.3377C77.5403 27.5616 77.8569 27.794 77.8542 28.0349C77.8502 28.3962 77.4084 28.59 76.5288 28.6163C76.0588 28.6352 75.5648 28.6538 75.0466 28.6721C74.5407 28.6785 74.0399 28.7572 73.5444 28.9082C73.0853 29.0356 72.5338 29.3426 71.89 29.8293L71.8902 29.8112C71.7933 29.8583 71.7026 29.8874 71.6182 29.8985C71.5338 29.9096 71.4494 29.9147 71.3651 29.9138C70.7629 29.9071 70.4645 29.6628 70.4699 29.1811C70.4736 28.8439 70.7424 28.5036 71.2762 28.1602ZM86.1043 35.119C87.0622 34.5516 87.4595 35.1101 87.2962 36.7946C86.9507 38.6095 87.3914 39.5901 88.6184 39.7362L88.5997 41.4163C87.6964 41.4062 87.0238 41.2301 86.582 40.8879C86.1401 40.5457 85.868 40.1031 85.7657 39.5599C85.6635 39.0047 85.6329 38.5105 85.6738 38.0773C85.727 37.6322 85.6381 37.4988 85.4073 37.6769C85.1766 37.8429 84.6542 38.2406 83.8402 38.8699C83.0263 39.4872 82.0617 40.1148 80.9464 40.7528C79.8313 41.3787 78.2779 41.8854 76.2861 42.2727C74.3063 42.6722 72.3117 42.7704 70.3025 42.5673C68.2932 42.3642 66.793 41.8837 65.8017 41.1259C64.8224 40.3682 64.1939 39.4819 63.9162 38.467C63.6384 37.4521 63.6736 36.4588 64.0217 35.487C64.3818 34.5154 64.8959 33.7803 65.564 33.2819C66.5835 32.5826 66.9131 32.7308 66.5527 33.7266C65.6865 34.7166 65.3724 35.8755 65.6106 37.2031C65.8609 38.5188 66.802 39.4507 68.434 39.9989C70.0662 40.5351 72.1967 40.6672 74.8255 40.3954C77.4664 40.1238 79.7815 39.3667 81.7707 38.1241C83.76 36.8816 85.2045 35.8799 86.1043 35.119ZM87.328 46.8947C88.335 46.2434 89.4889 45.9251 90.7896 45.9396C91.0907 45.9429 91.3555 45.9579 91.584 45.9846C91.8125 46.0232 92.0106 46.0797 92.1784 46.1538C92.7183 46.3405 92.987 46.5483 92.9845 46.7771C92.981 47.0902 92.5929 47.3268 91.8202 47.4868C91.4227 47.4944 91.001 47.5017 90.5553 47.5088C90.1094 47.5279 89.6749 47.6014 89.2519 47.7292C88.8532 47.8452 88.3804 48.1169 87.8336 48.5444C87.7489 48.5796 87.6583 48.6027 87.5618 48.6137C87.4533 48.6245 87.3689 48.6296 87.3087 48.6289C86.8525 48.4913 86.6268 48.2118 86.6315 47.7903C86.6348 47.4892 86.867 47.1906 87.328 46.8947ZM92.6825 34.9756C93.2309 35.4876 93.3663 36.3022 93.0889 37.4193C92.3012 40.0002 90.7688 41.3201 88.4917 41.379L88.5096 39.7712C90.3751 39.9004 91.2977 38.7242 91.2772 36.2427C91.2538 35.0982 91.7222 34.6758 92.6825 34.9756ZM100.216 39.9379C99.7585 39.8726 99.4522 39.8029 99.2964 39.7289C99.1406 39.6549 98.9974 39.5389 98.8667 39.3808C98.7361 39.2107 98.6538 39.0231 98.62 38.818C98.5863 38.6008 98.577 38.3538 98.5921 38.0769C98.6073 37.8 98.6925 37.1807 98.8477 36.2188C99.003 35.2569 99.1198 34.5054 99.1981 33.9642C99.2765 33.4111 99.3483 32.912 99.4135 32.467C99.4908 32.0222 99.583 31.3126 99.6902 30.3382C99.6727 29.7478 99.477 29.4746 99.1031 29.5186C98.7413 29.5627 98.4616 29.8005 98.2641 30.2319C97.7965 31.118 97.536 31.7896 97.4828 32.2468C97.4296 32.6918 97.3633 33.2391 97.2838 33.8887C97.2043 34.5382 97.113 35.1575 97.0101 35.7466C96.9192 36.3358 96.8344 36.919 96.7557 37.4963C96.6892 38.0617 96.6596 38.5492 96.6671 38.9588C96.6747 39.3564 96.737 39.7124 96.854 40.0269C96.9829 40.3415 97.1547 40.6024 97.3692 40.8095C97.5838 41.0046 97.865 41.1764 98.2126 41.3248C98.5604 41.4612 99.222 41.5348 100.198 41.5457L100.216 39.9379ZM113.059 40.1534C112.662 40.0888 112.392 39.9954 112.249 39.8734C112.106 39.7393 112.092 39.3958 112.206 38.8431C112.333 38.2784 112.393 37.7972 112.385 37.3996C112.378 37.0021 112.308 36.7243 112.178 36.5662C112.059 36.3963 111.904 36.2861 111.712 36.2358C111.532 36.1856 111.357 36.2017 111.187 36.2842C111.03 36.3667 110.89 36.4796 110.768 36.6228C110.646 36.7659 110.516 37.0355 110.379 37.4315C110.243 37.8154 110.069 38.229 109.86 38.6723C109.65 39.1157 109.448 39.3844 109.254 39.4786C109.073 39.573 108.892 39.5408 108.713 39.3822C108.547 39.2238 108.508 38.8801 108.598 38.3511C108.689 37.8101 108.717 37.443 108.683 37.2499C108.661 37.057 108.591 36.8815 108.472 36.7236C108.365 36.5659 108.228 36.474 108.06 36.448C107.903 36.4101 107.71 36.4562 107.48 36.5861C107.262 36.7041 107.066 36.9488 106.894 37.3203C106.721 37.6918 106.536 38.0932 106.338 38.5246C106.141 38.9561 105.957 39.2371 105.787 39.3677C105.617 39.4983 105.442 39.5084 105.262 39.398C105.095 39.2756 105.063 38.8838 105.167 38.2225C105.271 37.5491 105.288 37.1277 105.217 36.9583C105.147 36.7769 105.058 36.6434 104.951 36.5579C104.855 36.4725 104.724 36.4108 104.555 36.3728C104.399 36.3349 104.23 36.3752 104.048 36.4936C103.866 36.612 103.726 36.7249 103.629 36.8322C103.543 36.9397 103.376 37.3232 103.128 37.9829C102.892 38.6307 102.513 39.1264 101.991 39.4699C101.47 39.8013 100.848 39.957 100.125 39.9369L100.107 41.5266C101.059 41.5613 101.794 41.4912 102.314 41.3164C102.834 41.1294 103.21 40.8867 103.442 40.5882C103.687 40.2898 103.873 40.2979 104.002 40.6125C104.131 40.9271 104.321 41.1641 104.572 41.3235C104.836 41.483 105.118 41.5644 105.419 41.5678C105.72 41.5591 106.016 41.454 106.308 41.2525C106.599 41.051 106.813 40.7763 106.949 40.4286C107.098 40.0689 107.207 39.9978 107.277 40.2154C107.347 40.433 107.471 40.6632 107.649 40.9061C107.839 41.1491 108.047 41.3321 108.275 41.4551C108.502 41.5661 108.743 41.6169 108.996 41.6077C109.249 41.5985 109.491 41.5229 109.721 41.3809C109.951 41.2389 110.141 41.0182 110.288 40.7187C110.449 40.4074 110.559 40.2099 110.62 40.1262C110.694 40.0427 110.741 40.0613 110.764 40.182C110.799 40.3029 110.887 40.5086 111.028 40.7993C111.182 41.078 111.414 41.2974 111.726 41.4575C112.049 41.6056 112.488 41.6828 113.042 41.689L113.059 40.1534ZM117.143 35.2485C117.691 35.7605 117.827 36.575 117.549 37.6921C116.762 40.273 115.229 41.5929 112.952 41.6518L112.97 40.044C114.836 40.1732 115.758 38.9971 115.738 36.5156C115.714 35.3711 116.183 34.9487 117.143 35.2485ZM115.734 46.543C115.675 46.434 115.67 46.3135 115.72 46.1815C115.782 46.0497 115.837 45.9239 115.887 45.804C115.948 45.6963 115.992 45.5823 116.017 45.4621C116.055 45.3542 116.056 45.2397 116.021 45.1189C115.986 44.9981 115.927 44.895 115.844 44.8098C115.772 44.7367 115.659 44.6572 115.503 44.5711C115.359 44.4972 115.191 44.4592 114.999 44.4571C114.818 44.4551 114.643 44.4832 114.474 44.5415C114.304 44.5999 114.159 44.6886 114.037 44.8077C113.927 44.9269 113.823 45.0763 113.725 45.2559C113.627 45.4355 113.564 45.6155 113.538 45.7958C113.524 45.9884 113.522 46.163 113.532 46.3197C113.555 46.4766 113.619 46.6399 113.726 46.8097C113.832 46.9916 113.951 47.1254 114.083 47.2112C114.214 47.309 114.388 47.4013 114.603 47.488C114.831 47.5749 115.06 47.6256 115.288 47.6402C115.517 47.6668 115.674 47.6505 115.759 47.5912C115.856 47.5321 115.929 47.4486 115.978 47.3407C116.04 47.233 116.059 47.1308 116.036 47.0342C116.025 46.9498 115.989 46.8771 115.93 46.8162C115.87 46.7553 115.805 46.6643 115.734 46.543ZM125.187 39.7828C125.471 39.1356 125.603 38.589 125.584 38.1431C125.577 37.6974 125.528 37.2451 125.437 36.7864C125.346 36.3277 125.102 35.9877 124.707 35.7665C124.312 35.5453 123.928 35.4446 123.554 35.4645C123.181 35.4845 122.897 35.5837 122.702 35.7622C122.507 35.9407 122.287 36.2333 122.042 36.6401C121.808 37.0471 121.555 37.5983 121.283 38.2939C121.01 38.9774 121.527 39.5734 122.834 40.0818C122.253 41.4966 121.616 42.3989 120.925 42.7887C120.246 43.1907 119.221 43.8598 117.849 44.796C116.537 45.8293 116.658 46.3185 118.212 46.2635C120.475 45.3372 121.966 44.5107 122.685 43.784C123.415 43.0694 123.941 42.3827 124.262 41.7238C124.594 41.065 124.902 40.418 125.187 39.7828ZM140.233 28.8211C141.397 28.0993 142.744 27.747 144.273 27.764C144.611 27.7678 144.912 27.7892 145.176 27.8283C145.441 27.8674 145.675 27.9242 145.879 27.9987L145.861 27.9985C146.497 28.2224 146.813 28.4548 146.811 28.6957C146.807 29.057 146.365 29.2508 145.485 29.2771C145.015 29.296 144.521 29.3146 144.003 29.3329C143.497 29.3393 142.996 29.418 142.501 29.5691C142.042 29.6964 141.49 30.0035 140.846 30.4901L140.847 30.4721C140.75 30.5192 140.659 30.5483 140.575 30.5594C140.49 30.5705 140.406 30.5755 140.321 30.5746C139.719 30.5679 139.421 30.3237 139.426 29.8419C139.43 29.5047 139.699 29.1644 140.233 28.8211ZM154.463 35.8816C155.421 35.3141 155.7 35.7207 155.299 37.1015C154.508 37.8153 153.961 38.273 153.658 38.4743C153.354 38.6757 152.82 39.0371 152.055 39.5586C151.303 40.0681 150.339 40.6476 149.163 41.2969C147.988 41.9343 146.446 42.4832 144.538 42.9437C142.63 43.4042 140.671 43.5329 138.662 43.3298C136.652 43.1267 135.152 42.6463 134.161 41.8884C133.181 41.1307 132.553 40.2444 132.275 39.2295C131.997 38.2147 132.033 37.2213 132.381 36.2496C132.741 35.2779 133.255 34.5429 133.923 34.0445C134.943 33.3452 135.272 33.4934 134.912 34.4891C134.046 35.4792 133.731 36.638 133.97 37.9656C134.22 39.2813 135.161 40.2133 136.793 40.7615C138.425 41.2976 140.556 41.4298 143.185 41.158C145.825 40.8863 148.195 40.0696 150.294 38.7078C152.174 37.5845 153.564 36.6424 154.463 35.8816ZM161.24 40.6186C160.783 40.5533 160.477 40.4836 160.321 40.4096C160.165 40.3356 160.022 40.2196 159.891 40.0616C159.761 39.8915 159.678 39.7038 159.645 39.4987C159.611 39.2815 159.602 39.0345 159.617 38.7576C159.632 38.4808 159.717 37.8614 159.872 36.8995C160.028 35.9377 160.144 35.1861 160.223 34.645C160.301 34.0918 160.373 33.5927 160.438 33.1478C160.515 32.703 160.608 31.9934 160.715 31.0189C160.697 30.4285 160.502 30.1553 160.128 30.1993C159.766 30.2435 159.486 30.4812 159.289 30.9127C158.821 31.7988 158.561 32.4704 158.507 32.9275C158.454 33.3726 158.388 33.9199 158.308 34.5694C158.229 35.219 158.138 35.8383 158.035 36.4273C157.944 37.0165 157.859 37.5998 157.78 38.177C157.714 38.7424 157.684 39.2299 157.692 39.6395C157.699 40.0371 157.762 40.3931 157.878 40.7076C158.007 41.0222 158.179 41.2831 158.394 41.4902C158.608 41.6854 158.889 41.8571 159.237 42.0055C159.585 42.1419 160.247 42.2156 161.222 42.2264L161.24 40.6186ZM161.15 40.5815C161.487 40.5732 161.807 40.5226 162.109 40.4296C162.412 40.3366 162.836 40.0703 163.383 39.6307C162.533 39.1756 162.081 38.6586 162.027 38.0799C161.986 37.4892 162.039 36.996 162.188 36.6001C162.349 36.2045 162.643 35.7922 163.069 35.3633C163.508 34.9346 164.016 34.7535 164.593 34.8202C165.183 34.875 165.638 35.0788 165.959 35.4317C166.281 35.7725 166.497 36.3832 166.607 37.2637C166.586 38.0585 166.421 38.8155 166.112 39.5347C165.803 40.254 165.097 40.8905 163.995 41.4443C162.893 41.9981 161.944 42.2586 161.15 42.2256L161.15 40.5815ZM173.657 36.9449C173.618 37.1854 173.584 37.5885 173.553 38.1543C173.523 38.72 173.643 39.2634 173.915 39.7844C174.198 40.2934 174.827 40.6256 175.801 40.7811L175.783 42.4069C174.349 42.3909 173.389 42.0731 172.902 41.4534C172.416 40.8216 172.235 40.2715 172.361 39.8032C171.868 40.8094 171.219 41.7477 170.414 42.6181C169.693 43.5616 168.91 44.1189 168.065 44.2902C166.399 44.645 166.024 44.2433 166.94 43.0852C168.203 42.1718 169.092 41.3205 169.606 40.5313C170.133 39.7422 170.809 38.5151 171.635 36.8501L171.782 36.6349C172.149 36.0729 172.532 35.8242 172.928 35.8888C173.325 35.9535 173.568 36.3055 173.657 36.9449ZM180.695 23.1656C180.684 23.033 180.679 22.9125 180.681 22.8041C180.694 22.6838 180.725 22.5697 180.775 22.4619C180.836 22.3421 180.88 22.2282 180.905 22.12C180.943 22 180.944 21.8796 180.909 21.7587C180.874 21.6379 180.815 21.5409 180.732 21.4677C180.66 21.3826 180.547 21.303 180.391 21.229C180.248 21.1431 180.079 21.099 179.887 21.0969C179.706 21.0949 179.531 21.123 179.362 21.1814C179.192 21.2397 179.041 21.3284 178.907 21.4473C178.785 21.5664 178.681 21.7158 178.595 21.8955C178.509 22.0752 178.446 22.2552 178.408 22.4355C178.382 22.6158 178.38 22.7905 178.402 22.9594C178.437 23.1163 178.507 23.2857 178.614 23.4676C178.72 23.6374 178.839 23.7712 178.97 23.8691C179.102 23.9548 179.276 24.0411 179.492 24.1278C179.719 24.2147 179.93 24.2532 180.123 24.2433C180.328 24.2215 180.473 24.1809 180.558 24.1216C180.655 24.0625 180.728 23.979 180.777 23.8712C180.839 23.7634 180.876 23.6856 180.888 23.6375C180.901 23.5774 180.877 23.5169 180.818 23.4561C180.758 23.3952 180.717 23.2983 180.695 23.1656ZM184.934 31.8492C186.042 31.8495 186.644 32.4283 186.739 33.5857C186.847 34.7432 186.182 36.0427 184.745 37.4841L183.175 38.8759L182.116 39.912C183.321 40.9613 182.649 41.2911 180.099 40.9013C178.79 41.6455 177.846 42.0927 177.266 42.2428C176.686 42.3809 176.15 42.4231 175.656 42.3694L175.674 40.7616L176.253 40.7138C177.412 40.4859 178.061 40.0775 178.2 39.4889L177.152 37.8692C176.916 37.4209 176.824 37.0645 176.875 36.8001C176.895 36.0415 178.222 34.8337 180.854 33.1768C182.6 32.1724 183.96 31.7299 184.934 31.8492ZM179.095 36.9875C179.086 37.7824 179.417 38.3221 180.089 38.6066L180.414 38.6102C181.513 38.3454 182.879 37.3368 184.513 35.5845C184.879 35.1308 184.976 34.5899 184.802 33.9616L184.624 33.7428L184.426 33.7045C183.364 33.8251 182.154 34.3175 180.796 35.1816C179.666 35.9881 179.1 36.59 179.095 36.9875Z" fill="white"/>
<g filter="url(#filter2_d)">
<path fill-rule="evenodd" clip-rule="evenodd" d="M53.6408 93.4984C53.6408 86.9539 58.9463 81.6484 65.4908 81.6484C72.0353 81.6484 77.3408 86.9539 77.3408 93.4984V99.4363H83.2658V93.5021C83.2658 83.6903 75.3118 75.7363 65.5001 75.7363H65.5C55.6883 75.7363 47.7344 83.6903 47.7344 93.5021V99.4363H53.6408V93.4984Z" fill="#E9E9E9"/>
<path fill-rule="evenodd" clip-rule="evenodd" d="M91.0516 135.342H39.9484C38.7263 135.342 37.7266 134.342 37.7266 133.12V100.532C37.7266 99.3104 38.7263 98.3105 39.9484 98.3105H91.0516C92.2735 98.3105 93.2734 99.3104 93.2734 100.532V133.12C93.2734 134.342 92.2735 135.342 91.0516 135.342Z" fill="#597EF7"/>
<path fill-rule="evenodd" clip-rule="evenodd" d="M81.8944 129.787H49.1056C47.9341 129.787 46.9844 128.837 46.9844 127.666V105.987C46.9844 104.815 47.9341 103.865 49.1056 103.865H81.8944C83.0659 103.865 84.0156 104.815 84.0156 105.987V127.666C84.0156 128.837 83.0659 129.787 81.8944 129.787Z" fill="#E4EBF7"/>
<path fill-rule="evenodd" clip-rule="evenodd" d="M62.6279 119.698C62.6279 118.112 63.9139 116.826 65.5002 116.826C67.0865 116.826 68.3725 118.112 68.3725 119.698C68.3725 121.285 67.0865 122.571 65.5002 122.571C63.9139 122.571 62.6279 121.285 62.6279 119.698Z" fill="#253368"/>
<path fill-rule="evenodd" clip-rule="evenodd" d="M65.4997 111.082C66.2928 111.082 66.9358 111.725 66.9358 112.518V119.63H64.0635V112.518C64.0635 111.725 64.7065 111.082 65.4997 111.082Z" fill="#253368"/>
</g>
<path fill-rule="evenodd" clip-rule="evenodd" d="M127.463 61.7734L117.455 93.2121H123.506L133.513 61.7734H127.463Z" fill="#597EF7"/>
<path fill-rule="evenodd" clip-rule="evenodd" d="M113.192 65.3477H106.769H102.72C102.404 65.3477 102.148 65.6037 102.148 65.9195V69.9685V85.0169V89.0659C102.148 89.3818 102.404 89.6377 102.72 89.6377H106.769H113.192C113.508 89.6377 113.764 89.3818 113.764 89.0659V85.5888C113.764 85.2729 113.508 85.0169 113.192 85.0169H106.769V69.9685H113.192C113.508 69.9685 113.764 69.7125 113.764 69.3966V65.9195C113.764 65.6037 113.508 65.3477 113.192 65.3477Z" fill="#CCD7EE"/>
<path fill-rule="evenodd" clip-rule="evenodd" d="M148.248 65.3477H144.199H137.776C137.46 65.3477 137.204 65.6037 137.204 65.9195V69.3966C137.204 69.7125 137.46 69.9685 137.776 69.9685H144.199V85.0169H137.776C137.46 85.0169 137.204 85.2729 137.204 85.5888V89.0659C137.204 89.3818 137.46 89.6377 137.776 89.6377H144.199H148.248C148.564 89.6377 148.82 89.3818 148.82 89.0659V85.5888V69.3966V65.9195C148.82 65.6037 148.564 65.3477 148.248 65.3477Z" fill="#CCD7EE"/>
</g>
<defs>
<filter id="filter0_d" x="-5" y="-2" width="259" height="167" filterUnits="userSpaceOnUse" color-interpolation-filters="sRGB">
<feFlood flood-opacity="0" result="BackgroundImageFix"/>
<feColorMatrix in="SourceAlpha" type="matrix" values="0 0 0 0 0 0 0 0 0 0 0 0 0 0 0 0 0 0 127 0"/>
<feOffset dy="3"/>
<feGaussianBlur stdDeviation="2.5"/>
<feColorMatrix type="matrix" values="0 0 0 0 0 0 0 0 0 0 0 0 0 0 0 0 0 0 0.1 0"/>
<feBlend mode="normal" in2="BackgroundImageFix" result="effect1_dropShadow"/>
<feBlend mode="normal" in="SourceGraphic" in2="effect1_dropShadow" result="shape"/>
</filter>
<filter id="filter1_d" x="148" y="58" width="91.2113" height="91.2113" filterUnits="userSpaceOnUse" color-interpolation-filters="sRGB">
<feFlood flood-opacity="0" result="BackgroundImageFix"/>
<feColorMatrix in="SourceAlpha" type="matrix" values="0 0 0 0 0 0 0 0 0 0 0 0 0 0 0 0 0 0 127 0"/>
<feOffset dy="3"/>
<feGaussianBlur stdDeviation="2.5"/>
<feColorMatrix type="matrix" values="0 0 0 0 0 0 0 0 0 0 0 0 0 0 0 0 0 0 0.1 0"/>
<feBlend mode="normal" in2="BackgroundImageFix" result="effect1_dropShadow"/>
<feBlend mode="normal" in="SourceGraphic" in2="effect1_dropShadow" result="shape"/>
</filter>
<filter id="filter2_d" x="21" y="64" width="89" height="89" filterUnits="userSpaceOnUse" color-interpolation-filters="sRGB">
<feFlood flood-opacity="0" result="BackgroundImageFix"/>
<feColorMatrix in="SourceAlpha" type="matrix" values="0 0 0 0 0 0 0 0 0 0 0 0 0 0 0 0 0 0 127 0"/>
<feOffset dy="3"/>
<feGaussianBlur stdDeviation="2.5"/>
<feColorMatrix type="matrix" values="0 0 0 0 0 0 0 0 0 0 0 0 0 0 0 0 0 0 0.1 0"/>
<feBlend mode="normal" in2="BackgroundImageFix" result="effect1_dropShadow"/>
<feBlend mode="normal" in="SourceGraphic" in2="effect1_dropShadow" result="shape"/>
</filter>
</defs>
</svg>
