<svg width="570" height="186" viewBox="0 0 570 186" fill="none" xmlns="http://www.w3.org/2000/svg">
<path d="M190.482 39.9814C189.229 37.9958 188.155 36.0345 187.26 34.0977C186.381 32.1771 185.868 30.2484 185.722 28.3115C185.494 27.0583 185.404 25.8213 185.453 24.6006C185.502 23.3799 185.73 21.9639 186.137 20.3525C186.544 18.7412 187.276 16.902 188.334 14.835C189.392 12.7679 190.816 10.8066 192.606 8.95117C192.818 8.69076 193.046 8.47917 193.29 8.31641C193.534 8.15365 193.754 8.04785 193.949 7.99902C194.307 7.93392 194.584 7.96647 194.779 8.09668C194.991 8.22689 195.121 8.44661 195.17 8.75586C195.333 9.3418 195.235 9.87077 194.877 10.3428C194.454 10.8311 193.99 11.417 193.485 12.1006C192.981 12.7842 192.427 13.5736 191.825 14.4688C191.142 15.722 190.425 17.2845 189.677 19.1562C188.944 21.0117 188.529 22.7533 188.432 24.3809C188.35 25.9922 188.358 27.3512 188.456 28.458C188.57 29.5648 188.814 30.6146 189.188 31.6074C189.563 32.584 189.986 33.5361 190.458 34.4639C190.8 35.2126 191.166 35.9124 191.557 36.5635C191.947 37.2308 192.362 37.89 192.802 38.541C193.453 39.5501 193.803 40.1279 193.852 40.2744C193.917 40.4209 193.982 40.5511 194.047 40.665C194.128 40.7952 194.177 40.9173 194.193 41.0312C194.275 41.3079 194.299 41.5765 194.267 41.8369C194.234 42.2601 194.031 42.5124 193.656 42.5938H193.681C192.785 42.7891 191.719 41.9183 190.482 39.9814ZM202.86 22.4766C203.414 22.1022 204.065 21.9964 204.813 22.1592C205.578 22.3219 206.018 23.0218 206.132 24.2588C205.969 25.5609 205.253 26.2607 203.983 26.3584C202.73 26.4561 202.063 25.8213 201.981 24.4541C202.014 23.4938 202.307 22.8346 202.86 22.4766ZM205.692 32.5107C205.481 33.1292 205.017 33.6012 204.301 33.9268C203.601 34.2523 202.836 33.943 202.006 32.999C201.355 31.8597 201.501 30.875 202.445 30.0449C203.406 29.2148 204.317 29.3206 205.18 30.3623C205.749 31.1598 205.92 31.876 205.692 32.5107ZM227.836 26.6758C227.787 27.0013 227.746 27.5465 227.714 28.3115C227.681 29.0765 227.852 29.8089 228.227 30.5088C228.617 31.1924 229.472 31.6318 230.79 31.8271V34.0244C228.853 34.0244 227.551 33.6094 226.884 32.7793C226.216 31.9329 225.964 31.1924 226.127 30.5576C225.476 31.9248 224.613 33.2025 223.539 34.3906C222.579 35.6764 221.529 36.4414 220.39 36.6855C218.144 37.1901 217.631 36.653 218.852 35.0742C220.544 33.821 221.732 32.6572 222.416 31.583C223.116 30.5088 224.011 28.8405 225.102 26.5781L225.297 26.2852C225.785 25.5202 226.298 25.1784 226.835 25.2598C227.372 25.3411 227.706 25.8132 227.836 26.6758ZM229.105 41.4219C230.456 40.5267 232.011 40.0791 233.769 40.0791C234.175 40.0791 234.534 40.0954 234.843 40.1279C235.152 40.1768 235.421 40.25 235.648 40.3477C236.381 40.5918 236.747 40.8685 236.747 41.1777C236.747 41.6009 236.226 41.9264 235.185 42.1543C234.647 42.1706 234.078 42.1868 233.476 42.2031C232.873 42.2357 232.287 42.3415 231.718 42.5205C231.181 42.6833 230.546 43.0576 229.813 43.6436C229.7 43.6924 229.577 43.7249 229.447 43.7412C229.301 43.7575 229.187 43.7656 229.105 43.7656C228.487 43.5866 228.178 43.2122 228.178 42.6426C228.178 42.2357 228.487 41.8288 229.105 41.4219ZM236.161 25.2354C236.91 25.9189 237.105 27.0176 236.747 28.5312C235.722 32.0306 233.671 33.8372 230.595 33.9512V31.7783C233.118 31.9248 234.346 30.3216 234.281 26.9688C234.232 25.4225 234.859 24.8447 236.161 25.2354ZM248.197 26.6758C248.148 27.0013 248.108 27.5465 248.075 28.3115C248.043 29.0765 248.214 29.8089 248.588 30.5088C248.979 31.1924 249.833 31.6318 251.151 31.8271V34.0244C249.215 34.0244 247.912 33.6094 247.245 32.7793C246.578 31.9329 246.326 31.1924 246.488 30.5576C245.837 31.9248 244.975 33.2025 243.9 34.3906C242.94 35.6764 241.89 36.4414 240.751 36.6855C238.505 37.1901 237.992 36.653 239.213 35.0742C240.906 33.821 242.094 32.6572 242.777 31.583C243.477 30.5088 244.372 28.8405 245.463 26.5781L245.658 26.2852C246.146 25.5202 246.659 25.1784 247.196 25.2598C247.733 25.3411 248.067 25.8132 248.197 26.6758ZM250.98 31.7783C251.436 31.762 251.868 31.6888 252.274 31.5586C252.681 31.4284 253.251 31.0622 253.983 30.46C252.828 29.8577 252.209 29.166 252.128 28.3848C252.063 27.5872 252.128 26.9199 252.323 26.3828C252.535 25.8457 252.925 25.2842 253.495 24.6982C254.081 24.1123 254.765 23.86 255.546 23.9414C256.343 24.0065 256.962 24.2751 257.401 24.7471C257.841 25.2028 258.142 26.0247 258.305 27.2129C258.288 28.2871 258.077 29.3125 257.67 30.2891C257.263 31.2656 256.319 32.1364 254.838 32.9014C253.357 33.6663 252.079 34.0326 251.005 34L250.98 31.7783ZM265.946 15.6162H266.239C267.411 15.7627 267.997 16.4219 267.997 17.5938V18.3506C267.883 23.7054 267.387 27.3675 266.508 29.3369C265.629 31.29 264.547 32.6735 263.261 33.4873L262.309 33.8291L261.82 33.5605L261.771 33.4141V33.1455C262.797 31.6318 263.521 30.11 263.944 28.5801C264.465 27.0827 264.848 25.1051 265.092 22.6475C265.222 21.4105 265.377 19.1644 265.556 15.9092L265.946 15.6162ZM259.916 12.833C260.128 10.7334 260.591 9.11393 261.308 7.97461C262.024 6.81901 262.618 6.01335 263.09 5.55762C263.985 4.72754 265.45 4.21484 267.484 4.01953C267.761 4.00326 268.103 4.00326 268.51 4.01953C268.933 4.01953 269.421 4.04395 269.975 4.09277C270.463 4.12533 270.967 4.1416 271.488 4.1416C272.009 4.12533 272.538 4.0765 273.075 3.99512C274.166 3.83236 275.183 3.36035 276.127 2.5791C276.387 2.40007 276.632 2.19661 276.859 1.96875C277.087 1.72461 277.315 1.47233 277.543 1.21191C277.803 0.918945 278.145 0.748047 278.568 0.699219C279.285 0.617839 279.675 0.845703 279.74 1.38281C279.757 1.54557 279.732 1.73275 279.667 1.94434C279.618 2.13965 279.521 2.36751 279.374 2.62793C278.804 3.50684 278.023 4.2474 277.03 4.84961C276.037 5.45182 274.833 5.9401 273.417 6.31445C273.287 6.34701 273.165 6.37142 273.051 6.3877C272.937 6.40397 272.815 6.42025 272.685 6.43652C272.424 6.4528 272.115 6.46094 271.757 6.46094C271.399 6.46094 270.976 6.4528 270.487 6.43652C269.869 6.37142 269.307 6.33073 268.803 6.31445C268.314 6.29818 267.883 6.29004 267.509 6.29004L266.996 6.36328C266.475 6.41211 265.979 6.55859 265.507 6.80273C265.035 7.04688 264.604 7.36426 264.213 7.75488C263.887 8.06413 263.635 8.44661 263.456 8.90234C263.277 9.35807 263.041 9.87891 262.748 10.4648C262.602 11.0996 262.455 11.6937 262.309 12.2471C262.162 12.7842 262.032 13.3376 261.918 13.9072C261.69 14.3304 261.291 14.5745 260.722 14.6396C260.282 14.7048 260.038 14.4688 259.989 13.9316C259.94 13.6061 259.916 13.2399 259.916 12.833ZM297.318 10.7334C296.505 11.5309 296.106 11.2786 296.122 9.97656C296.122 9.7487 296.179 9.44759 296.293 9.07324C296.407 8.68262 296.578 8.32454 296.806 7.99902C297.034 7.65723 297.245 7.38867 297.44 7.19336C297.636 6.98177 297.912 6.78646 298.271 6.60742C298.645 6.41211 299.141 6.29818 299.76 6.26562C300.395 6.2168 300.94 6.31445 301.396 6.55859C301.851 6.80273 302.242 7.16081 302.567 7.63281C302.909 8.08854 303.088 8.64193 303.104 9.29297C303.137 9.94401 303.048 10.5869 302.836 11.2217C302.624 11.8402 302.315 12.4342 301.908 13.0039C301.518 13.5573 300.972 14.127 300.272 14.7129C299.573 15.2988 299.035 15.6325 298.661 15.7139C297.147 15.8604 296.92 15.3965 297.978 14.3223C298.466 13.8991 298.865 13.5166 299.174 13.1748C299.483 12.833 299.752 12.5156 299.979 12.2227C300.224 11.9134 300.435 11.6042 300.614 11.2949C300.81 10.9694 300.956 10.6032 301.054 10.1963C301.151 9.78939 301.094 9.44759 300.883 9.1709C300.688 8.89421 300.443 8.69889 300.15 8.58496C299.857 8.47103 299.491 8.4873 299.052 8.63379C298.612 8.78027 298.262 9.04069 298.002 9.41504C297.758 9.78939 297.53 10.2288 297.318 10.7334ZM306.693 19.9619L307.255 20.1084L307.377 20.6699C307.377 22.8997 306.376 24.8203 304.374 26.4316C302.372 28.0267 299.833 28.8649 296.757 28.9463L295.072 28.7998C293.868 28.7347 292.94 29.3939 292.289 30.7773C290.434 35.0905 288.48 38.4678 286.43 40.9092C284.395 43.3506 282.41 45.1898 280.473 46.4268C278.536 47.6637 276.851 48.5833 275.419 49.1855C273.97 49.804 272.025 50.2354 269.584 50.4795C267.126 50.7236 265.238 50.6423 263.92 50.2354C262.602 49.8285 261.942 49.3809 261.942 48.8926V48.502C261.942 48.2904 262.74 48.2008 264.335 48.2334C271.252 47.6149 276.713 45.6455 280.717 42.3252C284.737 39.0212 287.724 34.9928 289.677 30.2402C290.881 27.2943 292.501 25.8945 294.535 26.041H296.488C299.516 26.041 302.665 24.1611 305.937 20.4014L306.254 20.0596L306.693 19.9619ZM315.971 31.8271C315.548 31.8597 315.189 31.8678 314.896 31.8516C315.141 30.7936 315.198 29.9229 315.067 29.2393C314.937 28.5557 314.604 28.0674 314.066 27.7744C313.529 27.4814 313.008 27.3512 312.504 27.3838C311.999 27.4163 311.617 27.5547 311.356 27.7988C311.096 28.043 310.803 28.4417 310.478 28.9951C310.168 29.5485 309.835 30.2972 309.477 31.2412C309.118 32.1689 309.826 32.9665 311.601 33.6338C310.836 35.5544 309.989 36.7832 309.062 37.3203C308.15 37.8737 306.938 38.6468 305.424 39.6396C303.666 41.0557 303.837 41.7148 305.937 41.6172C308.655 40.6243 310.494 39.6315 311.454 38.6387C312.431 37.6621 313.082 36.7344 313.407 35.8555C313.749 34.9766 314.066 34.3581 314.359 34H315.971V31.8271ZM322.489 7.9502C322.473 7.77116 322.465 7.6084 322.465 7.46191C322.481 7.29915 322.522 7.14453 322.587 6.99805C322.668 6.83529 322.725 6.68066 322.758 6.53418C322.807 6.37142 322.807 6.20866 322.758 6.0459C322.709 5.88314 322.628 5.75293 322.514 5.65527C322.416 5.54134 322.261 5.43555 322.05 5.33789C321.854 5.22396 321.627 5.16699 321.366 5.16699C321.122 5.16699 320.886 5.20768 320.658 5.28906C320.43 5.37044 320.227 5.49251 320.048 5.65527C319.885 5.81803 319.747 6.02148 319.633 6.26562C319.519 6.50977 319.438 6.75391 319.389 6.99805C319.356 7.24219 319.356 7.47819 319.389 7.70605C319.438 7.91764 319.535 8.14551 319.682 8.38965C319.828 8.61751 319.991 8.79655 320.17 8.92676C320.349 9.04069 320.585 9.15462 320.878 9.26855C321.187 9.38249 321.472 9.43132 321.732 9.41504C322.009 9.38249 322.204 9.32552 322.318 9.24414C322.449 9.16276 322.546 9.04883 322.611 8.90234C322.693 8.75586 322.742 8.65007 322.758 8.58496C322.774 8.50358 322.742 8.4222 322.66 8.34082C322.579 8.25944 322.522 8.12923 322.489 7.9502ZM328.349 19.6201C329.846 19.6038 330.668 20.377 330.814 21.9395C330.977 23.502 330.098 25.2679 328.178 27.2373L326.078 29.1416L324.662 30.5576C326.306 31.9574 325.403 32.4131 321.952 31.9248C320.194 32.9502 318.925 33.5687 318.144 33.7803C317.362 33.9756 316.638 34.0407 315.971 33.9756V31.8027L316.752 31.7295C318.314 31.404 319.185 30.8424 319.364 30.0449L317.924 27.8721C317.598 27.2699 317.468 26.7897 317.533 26.4316C317.549 25.4062 319.324 23.7542 322.855 21.4756C325.199 20.0921 327.03 19.4736 328.349 19.6201ZM320.536 26.6514C320.536 27.7256 320.992 28.4499 321.903 28.8242H322.343C323.824 28.4499 325.655 27.0664 327.836 24.6738C328.324 24.0553 328.446 23.3229 328.202 22.4766L327.958 22.1836L327.689 22.1348C326.257 22.3138 324.63 22.9974 322.807 24.1855C321.293 25.2923 320.536 26.1143 320.536 26.6514ZM340.336 55.6797C339.994 56.7702 339.652 57.3154 339.311 57.3154C339.018 57.3154 338.806 57.0469 338.676 56.5098C338.285 55.5332 338.09 53.0267 338.09 48.9902C338.09 48.4694 338.09 47.9323 338.09 47.3789C338.106 46.8418 338.122 46.2721 338.139 45.6699C338.204 42.6589 338.383 40.0628 338.676 37.8818C338.969 35.7171 339.416 33.9512 340.019 32.584C341.174 29.9961 342.956 28.0674 345.365 26.7979C346.944 25.7399 347.774 25.0075 347.855 24.6006C347.888 23.2497 348.083 22.3382 348.441 21.8662C348.816 21.3942 349.337 21.0524 350.004 20.8408C350.834 20.613 351.558 20.6536 352.177 20.9629C352.812 21.2559 353.243 21.7441 353.471 22.4277C353.699 23.0951 353.812 23.7705 353.812 24.4541C353.65 26.2445 353.007 27.1966 351.884 27.3105C350.891 27.7174 349.833 28.1243 348.71 28.5312C347.587 28.9382 346.627 29.402 345.829 29.9229C345.032 30.4437 344.372 31.0622 343.852 31.7783C343.347 32.4945 342.899 33.2188 342.509 33.9512C342.134 34.6836 341.801 35.5544 341.508 36.5635C341.02 38.1911 340.686 40.6162 340.507 43.8389C340.328 47.0615 340.295 49.389 340.409 50.8213C340.523 52.2699 340.499 53.8812 340.336 55.6553V55.6797ZM366.801 18.1309C366.247 16.3893 365.556 15.8766 364.726 16.5928C363.896 17.2926 363.635 18.5785 363.944 20.4502C363.896 22.7451 363.725 24.5192 363.432 25.7725C363.139 27.0257 362.74 28.0592 362.235 28.873C361.731 29.6706 361.072 30.2484 360.258 30.6064C359.444 30.9645 358.655 31.1842 357.89 31.2656C357.141 31.3307 356.376 31.4854 355.595 31.7295C354.634 32.0876 354.089 32.5514 353.959 33.1211C353.845 33.6745 354.521 33.9512 355.985 33.9512C357.385 33.9674 358.671 33.7965 359.843 33.4385C361.031 33.0641 361.885 32.7061 362.406 32.3643C362.943 32.0062 363.407 31.6562 363.798 31.3145C364.302 32.1934 364.929 32.8607 365.678 33.3164C366.426 33.7559 367.444 33.9837 368.729 34V31.8271C367.981 31.7295 367.265 31.4202 366.581 30.8994C365.914 30.3786 365.548 29.8333 365.482 29.2637C365.434 28.9544 365.482 28.3685 365.629 27.5059C365.775 26.627 366.003 25.4876 366.312 24.0879C366.638 22.6882 366.801 20.7025 366.801 18.1309ZM359.428 18.9609C359.525 18.3424 359.517 17.7158 359.403 17.0811C359.306 16.4463 358.882 16.43 358.134 17.0322C357.401 17.6182 356.954 18.6191 356.791 20.0352C356.71 21.5163 356.677 22.8672 356.693 24.0879C356.726 25.3086 356.441 26.9199 355.839 28.9219C355.774 29.8171 355.912 30.3542 356.254 30.5332C356.612 30.696 356.994 30.4762 357.401 29.874C357.711 29.3857 357.971 28.9137 358.183 28.458C358.41 28.0023 358.606 27.4408 358.769 26.7734C358.948 26.0898 359.078 24.7715 359.159 22.8184C359.241 20.8652 359.33 19.5794 359.428 18.9609ZM384.11 23.0137C384.599 23.8438 384.493 25.04 383.793 26.6025C383.158 27.6279 382.475 28.5312 381.742 29.3125C381.026 30.0775 380.123 30.8018 379.032 31.4854C377.942 32.1689 376.632 32.7712 375.102 33.292C373.572 33.7965 371.407 34.0326 368.607 34V31.7783C370.219 31.8597 371.944 31.6074 373.783 31.0215C375.622 30.4193 377.291 29.5241 378.788 28.3359C380.285 27.1315 381.498 25.5934 382.426 23.7217C383.077 22.4033 383.638 22.1673 384.11 23.0137ZM0.199219 93.582C0.492188 92.2474 1.21647 91.5801 2.37207 91.5801C2.66504 91.5801 2.97428 91.6777 3.2998 91.873C3.67415 92.1172 3.86133 92.6543 3.86133 93.4844C3.86133 94.0378 3.77995 94.5179 3.61719 94.9248C3.45443 95.3317 3.2347 95.6572 2.95801 95.9014C2.56738 96.2106 2.14421 96.3652 1.68848 96.3652C0.630534 96.3652 0.101562 95.7142 0.101562 94.4121C0.101562 94.1354 0.134115 93.8587 0.199219 93.582ZM26.7129 79.3486C28.2754 78.3558 30.0902 77.8594 32.1572 77.8594C32.613 77.8594 33.0199 77.8838 33.3779 77.9326C33.736 77.9814 34.0534 78.0547 34.3301 78.1523H34.3057C35.1683 78.4453 35.5996 78.7546 35.5996 79.0801C35.5996 79.5684 35.0055 79.8369 33.8174 79.8857C33.1826 79.9183 32.5153 79.9508 31.8154 79.9834C31.1318 79.9997 30.4564 80.1136 29.7891 80.3252C29.1706 80.5042 28.43 80.9274 27.5674 81.5947V81.5703C27.4372 81.6354 27.3151 81.6761 27.2012 81.6924C27.0872 81.7087 26.9733 81.7168 26.8594 81.7168C26.0456 81.7168 25.6387 81.3913 25.6387 80.7402C25.6387 80.2845 25.9967 79.8206 26.7129 79.3486ZM46.8545 88.5283C48.1403 87.7471 48.6855 88.4958 48.4902 90.7744C48.0508 93.2321 48.6611 94.5505 50.3213 94.7295V97C49.1006 97 48.1891 96.7721 47.5869 96.3164C46.9847 95.8607 46.6104 95.2666 46.4639 94.5342C46.3174 93.7855 46.2686 93.1182 46.3174 92.5322C46.3825 91.93 46.2604 91.751 45.9512 91.9951C45.6419 92.223 44.9421 92.7682 43.8516 93.6309C42.7611 94.4772 41.4671 95.3398 39.9697 96.2188C38.4723 97.0814 36.3809 97.7894 33.6953 98.3428C31.026 98.9124 28.3324 99.0752 25.6143 98.8311C22.8962 98.5869 20.8617 97.9603 19.5107 96.9512C18.1761 95.9421 17.3135 94.7539 16.9229 93.3867C16.5322 92.0195 16.5648 90.6768 17.0205 89.3584C17.4925 88.04 18.1761 87.0391 19.0713 86.3555C20.4385 85.3952 20.8861 85.5905 20.4141 86.9414C19.2585 88.2923 18.8516 89.863 19.1934 91.6533C19.5514 93.4274 20.8372 94.6725 23.0508 95.3887C25.2643 96.0885 28.1452 96.235 31.6934 95.8281C35.2578 95.4212 38.3747 94.3633 41.0439 92.6543C43.7132 90.9453 45.6501 89.57 46.8545 88.5283ZM67.6797 94.9248C67.1426 94.8434 66.7764 94.7214 66.5811 94.5586C66.3857 94.3796 66.3613 93.9157 66.5078 93.167C66.6706 92.402 66.7438 91.751 66.7275 91.2139C66.7113 90.6768 66.6136 90.3024 66.4346 90.0908C66.2718 89.863 66.0602 89.7165 65.7998 89.6514C65.5557 89.5863 65.3197 89.6107 65.0918 89.7246C64.8802 89.8385 64.693 89.9932 64.5303 90.1885C64.3675 90.3838 64.1966 90.75 64.0176 91.2871C63.8385 91.8079 63.6107 92.3695 63.334 92.9717C63.0573 93.5739 62.7887 93.9401 62.5283 94.0703C62.2842 94.2005 62.04 94.1598 61.7959 93.9482C61.568 93.7367 61.5111 93.2728 61.625 92.5566C61.7389 91.8242 61.7715 91.3278 61.7227 91.0674C61.6901 90.807 61.5924 90.571 61.4297 90.3594C61.2832 90.1478 61.096 90.0257 60.8682 89.9932C60.6566 89.9443 60.3962 90.0094 60.0869 90.1885C59.7939 90.3512 59.5335 90.6849 59.3057 91.1895C59.0778 91.694 58.8337 92.2393 58.5732 92.8252C58.3128 93.4111 58.0687 93.7936 57.8408 93.9727C57.613 94.1517 57.377 94.168 57.1328 94.0215C56.9049 93.8587 56.8561 93.3298 56.9863 92.4346C57.1165 91.5231 57.1328 90.9535 57.0352 90.7256C56.9375 90.4814 56.8154 90.3024 56.6689 90.1885C56.5387 90.0745 56.3597 89.9932 56.1318 89.9443C55.9202 89.8955 55.6924 89.9525 55.4482 90.1152C55.2041 90.278 55.0169 90.4326 54.8867 90.5791C54.7728 90.7256 54.5531 91.2464 54.2275 92.1416C53.9183 93.0205 53.4137 93.696 52.7139 94.168C52.014 94.6237 51.1758 94.8434 50.1992 94.8271V96.9756C51.485 97.0081 52.4779 96.9023 53.1777 96.6582C53.8776 96.3978 54.3822 96.0641 54.6914 95.6572C55.0169 95.2503 55.2692 95.2585 55.4482 95.6816C55.6273 96.1048 55.8877 96.4222 56.2295 96.6338C56.5876 96.8454 56.9701 96.9512 57.377 96.9512C57.7839 96.9349 58.1826 96.7884 58.5732 96.5117C58.9639 96.235 59.2487 95.8607 59.4277 95.3887C59.623 94.9004 59.7695 94.8027 59.8672 95.0957C59.9648 95.3887 60.1357 95.6979 60.3799 96.0234C60.6403 96.349 60.9251 96.5931 61.2344 96.7559C61.5436 96.9023 61.8691 96.9674 62.2109 96.9512C62.5527 96.9349 62.8783 96.8291 63.1875 96.6338C63.4967 96.4385 63.749 96.1374 63.9443 95.7305C64.1559 95.3073 64.3024 95.0387 64.3838 94.9248C64.4814 94.8109 64.5465 94.8353 64.5791 94.998C64.6279 95.1608 64.75 95.4375 64.9453 95.8281C65.1569 96.2025 65.4743 96.4954 65.8975 96.707C66.3369 96.9023 66.931 97 67.6797 97V94.9248ZM76.2246 97V94.7295C75.8665 94.762 75.4596 94.6725 75.0039 94.4609C74.5482 94.2493 74.2389 94.0215 74.0762 93.7773C73.9297 93.5332 73.7995 93.224 73.6855 92.8496C73.5716 92.459 73.5065 92.0195 73.4902 91.5312C73.4902 91.043 73.4007 90.6279 73.2217 90.2861C73.0589 89.9281 72.766 89.7734 72.3428 89.8223C71.9359 89.8548 71.6266 90.0257 71.415 90.335C71.2197 90.6442 71.0488 91.043 70.9023 91.5312C70.7559 92.0195 70.6012 92.4834 70.4385 92.9229C70.2757 93.3623 69.9095 93.7936 69.3398 94.2168C68.7865 94.6237 68.1517 94.8027 67.4355 94.7539V97C68.6237 96.8698 69.4212 96.707 69.8281 96.5117C70.2513 96.3164 70.6419 96.0723 71 95.7793C71.3581 95.4701 71.6266 95.1364 71.8057 94.7783C71.9847 94.404 72.1475 94.4772 72.2939 94.998C72.4567 95.5026 72.8229 95.9421 73.3926 96.3164C73.9622 96.6908 74.9062 96.9186 76.2246 97ZM65.1895 102.518C66.5241 101.655 68.054 101.224 69.7793 101.224C70.1699 101.224 70.5199 101.24 70.8291 101.272C71.1383 101.321 71.3988 101.386 71.6104 101.468C72.3428 101.712 72.709 101.98 72.709 102.273C72.709 102.697 72.2126 103.006 71.2197 103.201C70.6826 103.217 70.1211 103.234 69.5352 103.25C68.9492 103.283 68.3796 103.388 67.8262 103.567C67.2891 103.714 66.6624 104.072 65.9463 104.642C65.8324 104.69 65.7266 104.723 65.6289 104.739C65.5312 104.756 65.4417 104.764 65.3604 104.764C64.6442 104.617 64.2861 104.267 64.2861 103.714C64.2861 103.307 64.5872 102.908 65.1895 102.518ZM80.6924 78.0303C80.6761 77.8512 80.668 77.6885 80.668 77.542C80.6842 77.3792 80.7249 77.2246 80.79 77.0781C80.8714 76.9154 80.9284 76.7607 80.9609 76.6143C81.0098 76.4515 81.0098 76.2887 80.9609 76.126C80.9121 75.9632 80.8307 75.833 80.7168 75.7354C80.6191 75.6214 80.4645 75.5156 80.2529 75.418C80.0576 75.304 79.8298 75.2471 79.5693 75.2471C79.3252 75.2471 79.0892 75.2878 78.8613 75.3691C78.6335 75.4505 78.43 75.5726 78.251 75.7354C78.0882 75.8981 77.9499 76.1016 77.8359 76.3457C77.722 76.5898 77.6406 76.834 77.5918 77.0781C77.5592 77.3223 77.5592 77.5583 77.5918 77.7861C77.6406 77.9977 77.7383 78.2256 77.8848 78.4697C78.0312 78.6976 78.194 78.8766 78.373 79.0068C78.5521 79.1208 78.7881 79.2347 79.0811 79.3486C79.3903 79.4626 79.6751 79.5114 79.9355 79.4951C80.2122 79.4626 80.4076 79.4056 80.5215 79.3242C80.6517 79.2428 80.7493 79.1289 80.8145 78.9824C80.8958 78.8359 80.9447 78.7301 80.9609 78.665C80.9772 78.5837 80.9447 78.5023 80.8633 78.4209C80.7819 78.3395 80.7249 78.2093 80.6924 78.0303ZM81.6689 88.2354C82.4176 88.9189 82.613 90.0176 82.2549 91.5312C81.2295 95.0306 79.1787 96.8372 76.1025 96.9512V94.7783C78.6253 94.9248 79.8542 93.3216 79.7891 89.9688C79.7402 88.4225 80.3669 87.8447 81.6689 88.2354ZM118.241 75.0518L118.461 75.0762C119.193 75.1576 119.617 75.7435 119.73 76.834L119.584 78.1523L118.412 87.8936C117.973 93.9157 116.996 98.0498 115.482 100.296C114.376 102.575 112.927 104.552 111.137 106.229C109.346 107.921 107.328 109.264 105.082 110.257C102.852 111.25 100.614 111.583 98.3682 111.258C96.1383 110.932 94.3398 110.07 92.9727 108.67C91.6217 107.286 90.8812 105.675 90.751 103.836C90.5068 100.841 91.4102 98.0905 93.4609 95.584C95.5117 93.0775 98.5879 90.9941 102.689 89.334C103.178 89.1224 103.511 89.1875 103.69 89.5293C103.886 89.8548 103.861 90.1885 103.617 90.5303C99.7923 92.8089 97.123 94.8027 95.6094 96.5117C94.0957 98.2207 93.2982 100.28 93.2168 102.688C93.1354 105.097 94.584 106.798 97.5625 107.791C101.566 108.702 105.098 107.938 108.158 105.496C111.218 103.071 113.391 100.044 114.677 96.4141L114.726 96.0967L115.678 90.9941L116.239 84.3535C116.662 80.4798 116.825 77.7699 116.728 76.2236C116.793 75.6214 117.297 75.2308 118.241 75.0518ZM127.665 94.8271C127.047 94.7458 126.632 94.6562 126.42 94.5586C126.208 94.4609 126.013 94.3063 125.834 94.0947C125.655 93.8669 125.541 93.6146 125.492 93.3379C125.443 93.0449 125.427 92.7113 125.443 92.3369C125.46 91.9626 125.565 91.1243 125.761 89.8223C125.956 88.5202 126.103 87.5029 126.2 86.7705C126.298 86.0218 126.387 85.3464 126.469 84.7441C126.566 84.1419 126.68 83.1816 126.811 81.8633C126.778 81.0658 126.509 80.6995 126.005 80.7646C125.517 80.8298 125.142 81.1553 124.882 81.7412C124.263 82.9456 123.922 83.8571 123.856 84.4756C123.791 85.0778 123.71 85.8184 123.612 86.6973C123.515 87.5762 123.401 88.4144 123.271 89.2119C123.157 90.0094 123.051 90.7988 122.953 91.5801C122.872 92.3451 122.839 93.0042 122.855 93.5576C122.872 94.0947 122.961 94.5749 123.124 94.998C123.303 95.4212 123.539 95.7712 123.832 96.0479C124.125 96.3083 124.507 96.5361 124.979 96.7314C125.451 96.9105 126.347 97 127.665 97V94.8271ZM139.359 94.876C138.741 94.8271 138.318 94.8027 138.09 94.8027C137.862 94.7865 137.561 94.7295 137.187 94.6318C136.828 94.5342 136.519 94.3877 136.259 94.1924C135.998 93.9808 135.958 93.7611 136.137 93.5332C136.316 93.3053 136.487 93.0693 136.649 92.8252C136.812 92.5648 136.967 92.2962 137.113 92.0195C137.276 91.7266 137.366 91.4499 137.382 91.1895C137.398 90.9128 137.325 90.6605 137.162 90.4326C136.999 90.1885 136.739 89.9362 136.381 89.6758C136.039 89.3991 135.567 89.1794 134.965 89.0166C134.363 88.8538 133.752 88.7969 133.134 88.8457C132.532 88.8783 131.962 88.984 131.425 89.1631C130.904 89.3258 130.424 89.5944 129.984 89.9688C129.561 90.3431 129.244 90.7256 129.032 91.1162C128.821 91.4906 128.707 91.8486 128.69 92.1904C128.674 92.516 128.739 92.7926 128.886 93.0205C129.049 93.2321 129.309 93.403 129.667 93.5332C130.025 93.6634 130.277 93.8099 130.424 93.9727C130.587 94.1354 130.603 94.2982 130.473 94.4609C130.342 94.6074 129.984 94.7132 129.398 94.7783C128.829 94.8434 128.21 94.8678 127.543 94.8516V97C128.78 96.9512 129.618 96.8861 130.058 96.8047C130.513 96.7233 130.928 96.6094 131.303 96.4629C131.693 96.3164 132.027 96.1618 132.304 95.999C132.58 95.82 132.792 95.6491 132.938 95.4863C133.101 95.3073 133.231 95.1852 133.329 95.1201C133.443 95.055 133.581 95.1038 133.744 95.2666C133.923 95.4131 134.11 95.5514 134.306 95.6816C134.517 95.8118 134.81 95.9665 135.185 96.1455C135.575 96.3245 135.917 96.4629 136.21 96.5605C136.519 96.6582 136.877 96.7477 137.284 96.8291C137.691 96.8942 138.383 96.943 139.359 96.9756V94.876ZM144.608 75.9307C144.592 75.7516 144.584 75.5889 144.584 75.4424C144.6 75.2796 144.641 75.125 144.706 74.9785C144.787 74.8158 144.844 74.6611 144.877 74.5146C144.926 74.3519 144.926 74.1891 144.877 74.0264C144.828 73.8636 144.747 73.7334 144.633 73.6357C144.535 73.5218 144.381 73.416 144.169 73.3184C143.974 73.2044 143.746 73.1475 143.485 73.1475C143.241 73.1475 143.005 73.1882 142.777 73.2695C142.549 73.3509 142.346 73.473 142.167 73.6357C142.004 73.7985 141.866 74.002 141.752 74.2461C141.638 74.4902 141.557 74.7344 141.508 74.9785C141.475 75.2227 141.475 75.4587 141.508 75.6865C141.557 75.8981 141.654 76.126 141.801 76.3701C141.947 76.598 142.11 76.777 142.289 76.9072C142.468 77.0212 142.704 77.1351 142.997 77.249C143.306 77.363 143.591 77.4118 143.852 77.3955C144.128 77.363 144.324 77.306 144.438 77.2246C144.568 77.1432 144.665 77.0293 144.73 76.8828C144.812 76.7363 144.861 76.6305 144.877 76.5654C144.893 76.484 144.861 76.4027 144.779 76.3213C144.698 76.2399 144.641 76.1097 144.608 75.9307ZM139.213 94.7783C139.669 94.762 140.1 94.6888 140.507 94.5586C140.914 94.4284 141.483 94.0622 142.216 93.46C141.06 92.8577 140.458 92.1335 140.409 91.2871C140.377 90.4408 140.442 89.749 140.604 89.2119C140.784 88.6748 141.158 88.1133 141.728 87.5273C142.313 86.9414 142.997 86.6891 143.778 86.7705C144.576 86.8356 145.194 87.1042 145.634 87.5762C146.073 88.0319 146.374 88.8538 146.537 90.042C146.521 91.1488 146.309 92.2148 145.902 93.2402C145.495 94.2493 144.551 95.1364 143.07 95.9014C141.589 96.6663 140.312 97.0326 139.237 97L139.213 94.7783ZM171.195 92.9229C172.156 92.5973 173.026 92.7194 173.808 93.2891C174.605 93.8424 175.785 94.3714 177.348 94.876V97C175.98 96.9512 174.711 96.528 173.539 95.7305C172.367 94.9167 171.26 95.5677 170.219 97.6836C169.177 99.7995 167.737 102.119 165.897 104.642C164.058 107.181 162.113 109.02 160.062 110.159C158.028 111.299 155.961 111.974 153.861 112.186C151.762 112.413 149.809 112.137 148.002 111.355C146.179 110.59 144.966 109.622 144.364 108.45C143.746 107.278 143.51 106.57 143.656 106.326C143.786 106.082 144.193 106.229 144.877 106.766C147.335 108.572 149.955 109.394 152.738 109.231C155.505 109.069 157.865 108.312 159.818 106.961C161.788 105.61 163.651 103.657 165.409 101.102C167.167 98.5462 168.331 96.6257 168.9 95.3398C169.486 94.0378 170.251 93.2321 171.195 92.9229ZM181.913 78.0303C181.897 77.8512 181.889 77.6885 181.889 77.542C181.905 77.3792 181.946 77.2246 182.011 77.0781C182.092 76.9154 182.149 76.7607 182.182 76.6143C182.23 76.4515 182.23 76.2887 182.182 76.126C182.133 75.9632 182.051 75.833 181.938 75.7354C181.84 75.6214 181.685 75.5156 181.474 75.418C181.278 75.304 181.05 75.2471 180.79 75.2471C180.546 75.2471 180.31 75.2878 180.082 75.3691C179.854 75.4505 179.651 75.5726 179.472 75.7354C179.309 75.8981 179.171 76.1016 179.057 76.3457C178.943 76.5898 178.861 76.834 178.812 77.0781C178.78 77.3223 178.78 77.5583 178.812 77.7861C178.861 77.9977 178.959 78.2256 179.105 78.4697C179.252 78.6976 179.415 78.8766 179.594 79.0068C179.773 79.1208 180.009 79.2347 180.302 79.3486C180.611 79.4626 180.896 79.5114 181.156 79.4951C181.433 79.4626 181.628 79.4056 181.742 79.3242C181.872 79.2428 181.97 79.1289 182.035 78.9824C182.117 78.8359 182.165 78.7301 182.182 78.665C182.198 78.5837 182.165 78.5023 182.084 78.4209C182.003 78.3395 181.946 78.2093 181.913 78.0303ZM182.89 88.2354C183.638 88.9189 183.834 90.0176 183.476 91.5312C182.45 95.0306 180.399 96.8372 177.323 96.9512V94.7783C179.846 94.9248 181.075 93.3216 181.01 89.9688C180.961 88.4225 181.588 87.8447 182.89 88.2354ZM192.558 94.8271C191.939 94.7458 191.524 94.6562 191.312 94.5586C191.101 94.4609 190.906 94.3063 190.727 94.0947C190.548 93.8669 190.434 93.6146 190.385 93.3379C190.336 93.0449 190.32 92.7113 190.336 92.3369C190.352 91.9626 190.458 91.1243 190.653 89.8223C190.849 88.5202 190.995 87.5029 191.093 86.7705C191.19 86.0218 191.28 85.3464 191.361 84.7441C191.459 84.1419 191.573 83.1816 191.703 81.8633C191.671 81.0658 191.402 80.6995 190.897 80.7646C190.409 80.8298 190.035 81.1553 189.774 81.7412C189.156 82.9456 188.814 83.8571 188.749 84.4756C188.684 85.0778 188.603 85.8184 188.505 86.6973C188.407 87.5762 188.293 88.4144 188.163 89.2119C188.049 90.0094 187.943 90.7988 187.846 91.5801C187.764 92.3451 187.732 93.0042 187.748 93.5576C187.764 94.0947 187.854 94.5749 188.017 94.998C188.196 95.4212 188.432 95.7712 188.725 96.0479C189.018 96.3083 189.4 96.5361 189.872 96.7314C190.344 96.9105 191.239 97 192.558 97V94.8271ZM195.951 103.03C195.87 102.884 195.862 102.721 195.927 102.542C196.008 102.363 196.081 102.192 196.146 102.029C196.228 101.883 196.285 101.728 196.317 101.565C196.366 101.419 196.366 101.264 196.317 101.102C196.269 100.939 196.187 100.8 196.073 100.687C195.976 100.589 195.821 100.483 195.609 100.369C195.414 100.271 195.186 100.223 194.926 100.223C194.682 100.223 194.446 100.263 194.218 100.345C193.99 100.426 193.795 100.548 193.632 100.711C193.485 100.874 193.347 101.077 193.217 101.321C193.087 101.565 193.005 101.81 192.973 102.054C192.956 102.314 192.956 102.55 192.973 102.762C193.005 102.973 193.095 103.193 193.241 103.421C193.388 103.665 193.55 103.844 193.729 103.958C193.909 104.088 194.145 104.21 194.438 104.324C194.747 104.438 195.056 104.503 195.365 104.52C195.674 104.552 195.886 104.528 196 104.446C196.13 104.365 196.228 104.251 196.293 104.104C196.374 103.958 196.399 103.82 196.366 103.689C196.35 103.576 196.301 103.478 196.22 103.396C196.138 103.315 196.049 103.193 195.951 103.03ZM201.225 97V94.7295C200.867 94.762 200.46 94.6725 200.004 94.4609C199.548 94.2493 199.239 94.0215 199.076 93.7773C198.93 93.5332 198.799 93.224 198.686 92.8496C198.572 92.459 198.507 92.0195 198.49 91.5312C198.49 91.043 198.401 90.6279 198.222 90.2861C198.059 89.9281 197.766 89.7734 197.343 89.8223C196.936 89.8548 196.627 90.0257 196.415 90.335C196.22 90.6442 196.049 91.043 195.902 91.5312C195.756 92.0195 195.601 92.4834 195.438 92.9229C195.276 93.3623 194.91 93.7936 194.34 94.2168C193.786 94.6237 193.152 94.8027 192.436 94.7539V97C193.624 96.8698 194.421 96.707 194.828 96.5117C195.251 96.3164 195.642 96.0723 196 95.7793C196.358 95.4701 196.627 95.1364 196.806 94.7783C196.985 94.404 197.147 94.4772 197.294 94.998C197.457 95.5026 197.823 95.9421 198.393 96.3164C198.962 96.6908 199.906 96.9186 201.225 97ZM209.721 97V94.7295C209.363 94.762 208.956 94.6725 208.5 94.4609C208.044 94.2493 207.735 94.0215 207.572 93.7773C207.426 93.5332 207.296 93.224 207.182 92.8496C207.068 92.459 207.003 92.0195 206.986 91.5312C206.986 91.043 206.897 90.6279 206.718 90.2861C206.555 89.9281 206.262 89.7734 205.839 89.8223C205.432 89.8548 205.123 90.0257 204.911 90.335C204.716 90.6442 204.545 91.043 204.398 91.5312C204.252 92.0195 204.097 92.4834 203.935 92.9229C203.772 93.3623 203.406 93.7936 202.836 94.2168C202.283 94.6237 201.648 94.8027 200.932 94.7539V97C202.12 96.8698 202.917 96.707 203.324 96.5117C203.747 96.3164 204.138 96.0723 204.496 95.7793C204.854 95.4701 205.123 95.1364 205.302 94.7783C205.481 94.404 205.644 94.4772 205.79 94.998C205.953 95.5026 206.319 95.9421 206.889 96.3164C207.458 96.6908 208.402 96.9186 209.721 97ZM198.686 102.518C200.02 101.655 201.55 101.224 203.275 101.224C203.666 101.224 204.016 101.24 204.325 101.272C204.634 101.321 204.895 101.386 205.106 101.468C205.839 101.712 206.205 101.98 206.205 102.273C206.205 102.697 205.709 103.006 204.716 103.201C204.179 103.217 203.617 103.234 203.031 103.25C202.445 103.283 201.876 103.388 201.322 103.567C200.785 103.714 200.159 104.072 199.442 104.642C199.328 104.69 199.223 104.723 199.125 104.739C199.027 104.756 198.938 104.764 198.856 104.764C198.14 104.617 197.782 104.267 197.782 103.714C197.782 103.307 198.083 102.908 198.686 102.518ZM210.697 78.1035C212.13 77.1921 213.782 76.7363 215.653 76.7363C216.076 76.7363 216.451 76.7607 216.776 76.8096C217.102 76.8421 217.387 76.9072 217.631 77.0049C218.412 77.2653 218.803 77.5501 218.803 77.8594C218.803 78.2988 218.257 78.543 217.167 78.5918C216.597 78.6081 215.995 78.6325 215.36 78.665C214.726 78.6813 214.107 78.7871 213.505 78.9824C212.935 79.1452 212.26 79.5277 211.479 80.1299C211.365 80.1787 211.251 80.2113 211.137 80.2275C211.039 80.2438 210.941 80.252 210.844 80.252C210.095 80.252 209.721 79.959 209.721 79.373C209.721 78.9499 210.046 78.5267 210.697 78.1035ZM218.412 97V94.7295C218.054 94.762 217.647 94.6725 217.191 94.4609C216.736 94.2493 216.426 94.0215 216.264 93.7773C216.117 93.5332 215.987 93.224 215.873 92.8496C215.759 92.459 215.694 92.0195 215.678 91.5312C215.678 91.043 215.588 90.6279 215.409 90.2861C215.246 89.9281 214.953 89.7734 214.53 89.8223C214.123 89.8548 213.814 90.0257 213.603 90.335C213.407 90.6442 213.236 91.043 213.09 91.5312C212.943 92.0195 212.789 92.4834 212.626 92.9229C212.463 93.3623 212.097 93.7936 211.527 94.2168C210.974 94.6237 210.339 94.8027 209.623 94.7539V97C210.811 96.8698 211.609 96.707 212.016 96.5117C212.439 96.3164 212.829 96.0723 213.188 95.7793C213.546 95.4701 213.814 95.1364 213.993 94.7783C214.172 94.404 214.335 94.4772 214.481 94.998C214.644 95.5026 215.01 95.9421 215.58 96.3164C216.15 96.6908 217.094 96.9186 218.412 97ZM227.128 80.4961C226.314 81.2936 225.915 81.0413 225.932 79.7393C225.932 79.5114 225.989 79.2103 226.103 78.8359C226.216 78.4453 226.387 78.0872 226.615 77.7617C226.843 77.4199 227.055 77.1514 227.25 76.9561C227.445 76.7445 227.722 76.5492 228.08 76.3701C228.454 76.1748 228.951 76.0609 229.569 76.0283C230.204 75.9795 230.749 76.0771 231.205 76.3213C231.661 76.5654 232.051 76.9235 232.377 77.3955C232.719 77.8512 232.898 78.4046 232.914 79.0557C232.947 79.7067 232.857 80.3496 232.646 80.9844C232.434 81.6029 232.125 82.1969 231.718 82.7666C231.327 83.32 230.782 83.8896 230.082 84.4756C229.382 85.0615 228.845 85.3952 228.471 85.4766C226.957 85.623 226.729 85.1592 227.787 84.085C228.275 83.6618 228.674 83.2793 228.983 82.9375C229.293 82.5957 229.561 82.2783 229.789 81.9854C230.033 81.6761 230.245 81.3669 230.424 81.0576C230.619 80.7321 230.766 80.3659 230.863 79.959C230.961 79.5521 230.904 79.2103 230.692 78.9336C230.497 78.6569 230.253 78.4616 229.96 78.3477C229.667 78.2337 229.301 78.25 228.861 78.3965C228.422 78.543 228.072 78.8034 227.812 79.1777C227.567 79.5521 227.34 79.9915 227.128 80.4961ZM235.746 94.9248C235.209 94.8434 234.843 94.7214 234.647 94.5586C234.452 94.3796 234.428 93.9157 234.574 93.167C234.737 92.402 234.81 91.751 234.794 91.2139C234.778 90.6768 234.68 90.3024 234.501 90.0908C234.338 89.863 234.127 89.7165 233.866 89.6514C233.622 89.5863 233.386 89.6107 233.158 89.7246C232.947 89.8385 232.759 89.9932 232.597 90.1885C232.434 90.3838 232.263 90.75 232.084 91.2871C231.905 91.8079 231.677 92.3695 231.4 92.9717C231.124 93.5739 230.855 93.9401 230.595 94.0703C230.351 94.2005 230.106 94.1598 229.862 93.9482C229.634 93.7367 229.577 93.2728 229.691 92.5566C229.805 91.8242 229.838 91.3278 229.789 91.0674C229.757 90.807 229.659 90.571 229.496 90.3594C229.35 90.1478 229.162 90.0257 228.935 89.9932C228.723 89.9443 228.463 90.0094 228.153 90.1885C227.86 90.3512 227.6 90.6849 227.372 91.1895C227.144 91.694 226.9 92.2393 226.64 92.8252C226.379 93.4111 226.135 93.7936 225.907 93.9727C225.679 94.1517 225.443 94.168 225.199 94.0215C224.971 93.8587 224.923 93.3298 225.053 92.4346C225.183 91.5231 225.199 90.9535 225.102 90.7256C225.004 90.4814 224.882 90.3024 224.735 90.1885C224.605 90.0745 224.426 89.9932 224.198 89.9443C223.987 89.8955 223.759 89.9525 223.515 90.1152C223.271 90.278 223.083 90.4326 222.953 90.5791C222.839 90.7256 222.619 91.2464 222.294 92.1416C221.985 93.0205 221.48 93.696 220.78 94.168C220.08 94.6237 219.242 94.8434 218.266 94.8271V96.9756C219.551 97.0081 220.544 96.9023 221.244 96.6582C221.944 96.3978 222.449 96.0641 222.758 95.6572C223.083 95.2503 223.336 95.2585 223.515 95.6816C223.694 96.1048 223.954 96.4222 224.296 96.6338C224.654 96.8454 225.036 96.9512 225.443 96.9512C225.85 96.9349 226.249 96.7884 226.64 96.5117C227.03 96.235 227.315 95.8607 227.494 95.3887C227.689 94.9004 227.836 94.8027 227.934 95.0957C228.031 95.3887 228.202 95.6979 228.446 96.0234C228.707 96.349 228.992 96.5931 229.301 96.7559C229.61 96.9023 229.936 96.9674 230.277 96.9512C230.619 96.9349 230.945 96.8291 231.254 96.6338C231.563 96.4385 231.815 96.1374 232.011 95.7305C232.222 95.3073 232.369 95.0387 232.45 94.9248C232.548 94.8109 232.613 94.8353 232.646 94.998C232.694 95.1608 232.816 95.4375 233.012 95.8281C233.223 96.2025 233.541 96.4954 233.964 96.707C234.403 96.9023 234.997 97 235.746 97V94.9248ZM234.965 102.762C234.184 103.527 233.801 103.283 233.817 102.029C233.817 101.801 233.874 101.5 233.988 101.126C234.102 100.768 234.273 100.426 234.501 100.101C234.713 99.7751 234.916 99.5146 235.111 99.3193C235.29 99.124 235.551 98.9368 235.893 98.7578C236.251 98.5788 236.731 98.4648 237.333 98.416C237.935 98.3835 238.456 98.4811 238.896 98.709C239.351 98.9531 239.734 99.2949 240.043 99.7344C240.368 100.19 240.539 100.727 240.556 101.346C240.588 101.98 240.499 102.599 240.287 103.201C240.092 103.82 239.799 104.397 239.408 104.935C239.034 105.488 238.505 106.041 237.821 106.595C237.154 107.164 236.641 107.49 236.283 107.571C234.818 107.701 234.59 107.254 235.6 106.229C236.088 105.822 236.479 105.455 236.771 105.13C237.064 104.804 237.325 104.495 237.553 104.202C237.781 103.909 237.984 103.608 238.163 103.299C238.342 102.99 238.48 102.632 238.578 102.225C238.676 101.834 238.627 101.508 238.432 101.248C238.236 100.988 237.992 100.8 237.699 100.687C237.423 100.573 237.073 100.589 236.649 100.735C236.226 100.882 235.893 101.134 235.648 101.492C235.404 101.85 235.176 102.273 234.965 102.762ZM241.239 88.2354C241.988 88.9189 242.183 90.0176 241.825 91.5312C240.8 95.0306 238.749 96.8372 235.673 96.9512V94.7783C238.196 94.9248 239.424 93.3216 239.359 89.9688C239.311 88.4225 239.937 87.8447 241.239 88.2354ZM269.584 87.6494C271.488 87.1937 271.496 88.2272 269.608 90.75L268.388 91.2139C267.444 91.5068 265.132 92.5241 261.454 94.2656C257.792 95.9909 253.918 98.4811 249.833 101.736C245.748 105.008 244.063 108.06 244.779 110.892C244.779 112.096 245.268 113.756 246.244 115.872V116.165H246.049C244.112 114.928 242.81 113.138 242.143 110.794C241.687 108.906 242.045 106.823 243.217 104.544C244.568 102.249 247.522 99.6367 252.079 96.707C256.636 93.7773 260.616 91.5394 264.018 89.9932C267.419 88.4307 269.275 87.6494 269.584 87.6494ZM256.156 80.96C256.14 80.7809 256.132 80.6182 256.132 80.4717C256.148 80.3089 256.189 80.1543 256.254 80.0078C256.335 79.8451 256.392 79.6904 256.425 79.5439C256.474 79.3812 256.474 79.2184 256.425 79.0557C256.376 78.8929 256.295 78.7627 256.181 78.665C256.083 78.5511 255.928 78.4453 255.717 78.3477C255.521 78.2337 255.294 78.1768 255.033 78.1768C254.789 78.1768 254.553 78.2174 254.325 78.2988C254.097 78.3802 253.894 78.5023 253.715 78.665C253.552 78.8278 253.414 79.0312 253.3 79.2754C253.186 79.5195 253.104 79.7637 253.056 80.0078C253.023 80.252 253.023 80.488 253.056 80.7158C253.104 80.9274 253.202 81.1553 253.349 81.3994C253.495 81.6273 253.658 81.8063 253.837 81.9365C254.016 82.0505 254.252 82.1644 254.545 82.2783C254.854 82.3923 255.139 82.4411 255.399 82.4248C255.676 82.3923 255.871 82.3353 255.985 82.2539C256.116 82.1725 256.213 82.0586 256.278 81.9121C256.36 81.7656 256.409 81.6598 256.425 81.5947C256.441 81.5133 256.409 81.432 256.327 81.3506C256.246 81.2692 256.189 81.139 256.156 80.96ZM275.126 78.6162H275.419C276.591 78.7627 277.177 79.4219 277.177 80.5938V81.3506C277.063 86.7054 276.566 90.3675 275.688 92.3369C274.809 94.29 273.726 95.6735 272.44 96.4873L271.488 96.8291L271 96.5605L270.951 96.4141V96.1455C271.977 94.6318 272.701 93.11 273.124 91.5801C273.645 90.0827 274.027 88.1051 274.271 85.6475C274.402 84.4105 274.556 82.1644 274.735 78.9092L275.126 78.6162ZM282.963 95.584C283.37 95.1608 283.85 94.9167 284.403 94.8516C284.957 94.7702 285.575 94.7865 286.259 94.9004V97C285.347 96.9023 284.672 97.3174 284.232 98.2451C283.809 99.1729 283.215 100.361 282.45 101.81C281.685 103.274 279.545 104.837 276.029 106.497C273.604 106.888 273.295 106.245 275.102 104.568C276.501 103.396 277.689 102.436 278.666 101.688C279.643 100.955 280.432 99.9134 281.034 98.5625C281.636 97.2279 282.279 96.235 282.963 95.584ZM284.623 104.422C285.974 103.527 287.528 103.079 289.286 103.079C289.693 103.079 290.051 103.095 290.36 103.128C290.67 103.177 290.938 103.25 291.166 103.348C291.898 103.592 292.265 103.868 292.265 104.178C292.265 104.601 291.744 104.926 290.702 105.154C290.165 105.171 289.595 105.187 288.993 105.203C288.391 105.236 287.805 105.341 287.235 105.521C286.698 105.683 286.063 106.058 285.331 106.644C285.217 106.692 285.095 106.725 284.965 106.741C284.818 106.757 284.704 106.766 284.623 106.766C284.005 106.587 283.695 106.212 283.695 105.643C283.695 105.236 284.005 104.829 284.623 104.422ZM291.679 88.2354C292.427 88.9189 292.623 90.0176 292.265 91.5312C291.239 95.0306 289.188 96.8372 286.112 96.9512V94.7783C288.635 94.9248 289.864 93.3216 289.799 89.9688C289.75 88.4225 290.377 87.8447 291.679 88.2354ZM299.979 78.6162H300.272C301.444 78.7627 302.03 79.4219 302.03 80.5938V81.3506C301.916 86.7054 301.42 90.3675 300.541 92.3369C299.662 94.29 298.58 95.6735 297.294 96.4873L296.342 96.8291L295.854 96.5605L295.805 96.4141V96.1455C296.83 94.6318 297.554 93.11 297.978 91.5801C298.498 90.0827 298.881 88.1051 299.125 85.6475C299.255 84.4105 299.41 82.1644 299.589 78.9092L299.979 78.6162ZM321.049 79.3486C322.611 78.3558 324.426 77.8594 326.493 77.8594C326.949 77.8594 327.356 77.8838 327.714 77.9326C328.072 77.9814 328.389 78.0547 328.666 78.1523H328.642C329.504 78.4453 329.936 78.7546 329.936 79.0801C329.936 79.5684 329.341 79.8369 328.153 79.8857C327.519 79.9183 326.851 79.9508 326.151 79.9834C325.468 79.9997 324.792 80.1136 324.125 80.3252C323.507 80.5042 322.766 80.9274 321.903 81.5947V81.5703C321.773 81.6354 321.651 81.6761 321.537 81.6924C321.423 81.7087 321.309 81.7168 321.195 81.7168C320.382 81.7168 319.975 81.3913 319.975 80.7402C319.975 80.2845 320.333 79.8206 321.049 79.3486ZM341.19 88.5283C342.476 87.7471 343.021 88.4958 342.826 90.7744C342.387 93.2321 342.997 94.5505 344.657 94.7295V97C343.437 97 342.525 96.7721 341.923 96.3164C341.321 95.8607 340.946 95.2666 340.8 94.5342C340.653 93.7855 340.604 93.1182 340.653 92.5322C340.718 91.93 340.596 91.751 340.287 91.9951C339.978 92.223 339.278 92.7682 338.188 93.6309C337.097 94.4772 335.803 95.3398 334.306 96.2188C332.808 97.0814 330.717 97.7894 328.031 98.3428C325.362 98.9124 322.668 99.0752 319.95 98.8311C317.232 98.5869 315.198 97.9603 313.847 96.9512C312.512 95.9421 311.649 94.7539 311.259 93.3867C310.868 92.0195 310.901 90.6768 311.356 89.3584C311.828 88.04 312.512 87.0391 313.407 86.3555C314.774 85.3952 315.222 85.5905 314.75 86.9414C313.594 88.2923 313.188 89.863 313.529 91.6533C313.887 93.4274 315.173 94.6725 317.387 95.3887C319.6 96.0885 322.481 96.235 326.029 95.8281C329.594 95.4212 332.711 94.3633 335.38 92.6543C338.049 90.9453 339.986 89.57 341.19 88.5283ZM343.021 104.422C344.372 103.527 345.927 103.079 347.685 103.079C348.091 103.079 348.45 103.095 348.759 103.128C349.068 103.177 349.337 103.25 349.564 103.348C350.297 103.592 350.663 103.868 350.663 104.178C350.663 104.601 350.142 104.926 349.101 105.154C348.563 105.171 347.994 105.187 347.392 105.203C346.789 105.236 346.203 105.341 345.634 105.521C345.097 105.683 344.462 106.058 343.729 106.644C343.616 106.692 343.493 106.725 343.363 106.741C343.217 106.757 343.103 106.766 343.021 106.766C342.403 106.587 342.094 106.212 342.094 105.643C342.094 105.236 342.403 104.829 343.021 104.422ZM350.077 88.2354C350.826 88.9189 351.021 90.0176 350.663 91.5312C349.638 95.0306 347.587 96.8372 344.511 96.9512V94.7783C347.034 94.9248 348.262 93.3216 348.197 89.9688C348.148 88.4225 348.775 87.8447 350.077 88.2354ZM360.331 94.8271C359.713 94.7458 359.298 94.6562 359.086 94.5586C358.874 94.4609 358.679 94.3063 358.5 94.0947C358.321 93.8669 358.207 93.6146 358.158 93.3379C358.109 93.0449 358.093 92.7113 358.109 92.3369C358.126 91.9626 358.231 91.1243 358.427 89.8223C358.622 88.5202 358.769 87.5029 358.866 86.7705C358.964 86.0218 359.053 85.3464 359.135 84.7441C359.232 84.1419 359.346 83.1816 359.477 81.8633C359.444 81.0658 359.175 80.6995 358.671 80.7646C358.183 80.8298 357.808 81.1553 357.548 81.7412C356.929 82.9456 356.588 83.8571 356.522 84.4756C356.457 85.0778 356.376 85.8184 356.278 86.6973C356.181 87.5762 356.067 88.4144 355.937 89.2119C355.823 90.0094 355.717 90.7988 355.619 91.5801C355.538 92.3451 355.505 93.0042 355.521 93.5576C355.538 94.0947 355.627 94.5749 355.79 94.998C355.969 95.4212 356.205 95.7712 356.498 96.0479C356.791 96.3083 357.174 96.5361 357.646 96.7314C358.118 96.9105 359.013 97 360.331 97V94.8271ZM375.712 86.0137C376.2 86.8438 376.094 88.04 375.395 89.6025C374.76 90.6279 374.076 91.5312 373.344 92.3125C372.628 93.0775 371.724 93.8018 370.634 94.4854C369.543 95.1689 368.233 95.7712 366.703 96.292C365.173 96.7965 363.008 97.0326 360.209 97V94.7783C361.82 94.8597 363.546 94.6074 365.385 94.0215C367.224 93.4193 368.892 92.5241 370.39 91.3359C371.887 90.1315 373.1 88.5934 374.027 86.7217C374.678 85.4033 375.24 85.1673 375.712 86.0137ZM413.261 88.5283C414.547 87.7471 414.929 88.2923 414.408 90.1641C413.35 91.1406 412.618 91.7673 412.211 92.0439C411.804 92.3206 411.088 92.8171 410.062 93.5332C409.053 94.2331 407.759 95.0306 406.181 95.9258C404.602 96.8047 402.527 97.5697 399.955 98.2207C397.383 98.8717 394.739 99.0752 392.021 98.8311C389.302 98.5869 387.268 97.9603 385.917 96.9512C384.582 95.9421 383.72 94.7539 383.329 93.3867C382.938 92.0195 382.971 90.6768 383.427 89.3584C383.899 88.04 384.582 87.0391 385.478 86.3555C386.845 85.3952 387.292 85.5905 386.82 86.9414C385.665 88.2923 385.258 89.863 385.6 91.6533C385.958 93.4274 387.243 94.6725 389.457 95.3887C391.671 96.0885 394.551 96.235 398.1 95.8281C401.664 95.4212 404.854 94.2819 407.67 92.4102C410.193 90.8639 412.056 89.57 413.261 88.5283ZM396.244 107.181C396.228 107.002 396.22 106.831 396.22 106.668C396.236 106.521 396.277 106.367 396.342 106.204C396.423 106.058 396.48 105.903 396.513 105.74C396.562 105.594 396.562 105.439 396.513 105.276C396.464 105.114 396.382 104.975 396.269 104.861C396.171 104.764 396.016 104.658 395.805 104.544C395.609 104.446 395.382 104.397 395.121 104.397C394.877 104.397 394.641 104.438 394.413 104.52C394.185 104.601 393.982 104.723 393.803 104.886C393.64 105.049 393.502 105.252 393.388 105.496C393.274 105.74 393.192 105.984 393.144 106.229C393.111 106.473 393.111 106.701 393.144 106.912C393.192 107.14 393.29 107.368 393.437 107.596C393.583 107.84 393.746 108.019 393.925 108.133C394.104 108.263 394.34 108.385 394.633 108.499C394.942 108.613 395.227 108.654 395.487 108.621C395.764 108.605 395.959 108.556 396.073 108.475C396.203 108.393 396.301 108.279 396.366 108.133C396.448 107.986 396.496 107.872 396.513 107.791C396.529 107.726 396.496 107.653 396.415 107.571C396.334 107.49 396.277 107.36 396.244 107.181ZM423.954 94.2412C424.328 93.3623 424.499 92.6217 424.467 92.0195C424.451 91.4173 424.377 90.807 424.247 90.1885C424.117 89.57 423.783 89.1143 423.246 88.8213C422.709 88.5283 422.188 88.3981 421.684 88.4307C421.179 88.4632 420.797 88.6016 420.536 88.8457C420.276 89.0898 419.983 89.4886 419.657 90.042C419.348 90.5954 419.014 91.3441 418.656 92.2881C418.298 93.2158 419.006 94.0133 420.78 94.6807C420.015 96.6012 419.169 97.8301 418.241 98.3672C417.33 98.9206 415.954 99.8402 414.115 101.126C412.357 102.542 412.528 103.201 414.628 103.104C417.672 101.818 419.674 100.678 420.634 99.6855C421.61 98.709 422.31 97.7731 422.733 96.8779C423.173 95.9827 423.58 95.1038 423.954 94.2412ZM451.078 73.7334C450.264 74.5309 449.866 74.2786 449.882 72.9766C449.882 72.7487 449.939 72.4476 450.053 72.0732C450.167 71.6826 450.338 71.3245 450.565 70.999C450.793 70.6572 451.005 70.3887 451.2 70.1934C451.396 69.9818 451.672 69.7865 452.03 69.6074C452.405 69.4121 452.901 69.2982 453.52 69.2656C454.154 69.2168 454.7 69.3145 455.155 69.5586C455.611 69.8027 456.002 70.1608 456.327 70.6328C456.669 71.0885 456.848 71.6419 456.864 72.293C456.897 72.944 456.807 73.5869 456.596 74.2217C456.384 74.8402 456.075 75.4342 455.668 76.0039C455.277 76.5573 454.732 77.127 454.032 77.7129C453.332 78.2988 452.795 78.6325 452.421 78.7139C450.907 78.8604 450.679 78.3965 451.737 77.3223C452.226 76.8991 452.624 76.5166 452.934 76.1748C453.243 75.833 453.511 75.5156 453.739 75.2227C453.983 74.9134 454.195 74.6042 454.374 74.2949C454.569 73.9694 454.716 73.6032 454.813 73.1963C454.911 72.7894 454.854 72.4476 454.643 72.1709C454.447 71.8942 454.203 71.6989 453.91 71.585C453.617 71.471 453.251 71.4873 452.812 71.6338C452.372 71.7803 452.022 72.0407 451.762 72.415C451.518 72.7894 451.29 73.2288 451.078 73.7334ZM460.453 82.9619L461.015 83.1084L461.137 83.6699C461.137 85.8997 460.136 87.8203 458.134 89.4316C456.132 91.0267 453.593 91.8649 450.517 91.9463L448.832 91.7998C447.628 91.7347 446.7 92.3939 446.049 93.7773C444.193 98.0905 442.24 101.468 440.189 103.909C438.155 106.351 436.169 108.19 434.232 109.427C432.296 110.664 430.611 111.583 429.179 112.186C427.73 112.804 425.785 113.235 423.344 113.479C420.886 113.724 418.998 113.642 417.68 113.235C416.361 112.828 415.702 112.381 415.702 111.893V111.502C415.702 111.29 416.5 111.201 418.095 111.233C425.012 110.615 430.473 108.646 434.477 105.325C438.497 102.021 441.483 97.9928 443.437 93.2402C444.641 90.2943 446.26 88.8945 448.295 89.041H450.248C453.275 89.041 456.425 87.1611 459.696 83.4014L460.014 83.0596L460.453 82.9619ZM466.19 91.9463C466.695 91.4743 467.159 91.279 467.582 91.3604C468.005 91.4255 468.266 91.7917 468.363 92.459C468.298 93.1426 468.021 93.9076 467.533 94.7539C467.061 95.584 466.378 96.7721 465.482 98.3184C464.587 99.8646 462.382 101.468 458.866 103.128C456.441 103.519 456.132 102.876 457.938 101.199C459.338 100.027 460.526 99.0671 461.503 98.3184C462.479 97.5859 463.334 96.5036 464.066 95.0713C464.799 93.639 465.507 92.5973 466.19 91.9463ZM467.533 80.1543C467.517 79.9753 467.509 79.8125 467.509 79.666C467.525 79.5033 467.566 79.3486 467.631 79.2021C467.712 79.0394 467.769 78.8848 467.802 78.7383C467.851 78.5755 467.851 78.4128 467.802 78.25C467.753 78.0872 467.672 77.957 467.558 77.8594C467.46 77.7454 467.305 77.6396 467.094 77.542C466.898 77.4281 466.671 77.3711 466.41 77.3711C466.166 77.3711 465.93 77.4118 465.702 77.4932C465.474 77.5745 465.271 77.6966 465.092 77.8594C464.929 78.0221 464.791 78.2256 464.677 78.4697C464.563 78.7139 464.481 78.958 464.433 79.2021C464.4 79.4463 464.4 79.6823 464.433 79.9102C464.481 80.1217 464.579 80.3496 464.726 80.5938C464.872 80.8216 465.035 81.0007 465.214 81.1309C465.393 81.2448 465.629 81.3587 465.922 81.4727C466.231 81.5866 466.516 81.6354 466.776 81.6191C467.053 81.5866 467.248 81.5296 467.362 81.4482C467.493 81.3669 467.59 81.2529 467.655 81.1064C467.737 80.96 467.785 80.8542 467.802 80.7891C467.818 80.7077 467.785 80.6263 467.704 80.5449C467.623 80.4635 467.566 80.3333 467.533 80.1543ZM478.91 94.8271C478.487 94.8597 478.129 94.8678 477.836 94.8516C478.08 93.7936 478.137 92.9229 478.007 92.2393C477.877 91.5557 477.543 91.0674 477.006 90.7744C476.469 90.4814 475.948 90.3512 475.443 90.3838C474.939 90.4163 474.556 90.5547 474.296 90.7988C474.035 91.043 473.743 91.4417 473.417 91.9951C473.108 92.5485 472.774 93.2972 472.416 94.2412C472.058 95.1689 472.766 95.9665 474.54 96.6338C473.775 98.5544 472.929 99.7832 472.001 100.32C471.09 100.874 469.877 101.647 468.363 102.64C466.605 104.056 466.776 104.715 468.876 104.617C471.594 103.624 473.433 102.632 474.394 101.639C475.37 100.662 476.021 99.7344 476.347 98.8555C476.688 97.9766 477.006 97.3581 477.299 97H478.91V94.8271ZM478.178 102.762C477.396 103.527 477.014 103.283 477.03 102.029C477.03 101.801 477.087 101.5 477.201 101.126C477.315 100.768 477.486 100.426 477.714 100.101C477.925 99.7751 478.129 99.5146 478.324 99.3193C478.503 99.124 478.764 98.9368 479.105 98.7578C479.464 98.5788 479.944 98.4648 480.546 98.416C481.148 98.3835 481.669 98.4811 482.108 98.709C482.564 98.9531 482.947 99.2949 483.256 99.7344C483.581 100.19 483.752 100.727 483.769 101.346C483.801 101.98 483.712 102.599 483.5 103.201C483.305 103.82 483.012 104.397 482.621 104.935C482.247 105.488 481.718 106.041 481.034 106.595C480.367 107.164 479.854 107.49 479.496 107.571C478.031 107.701 477.803 107.254 478.812 106.229C479.301 105.822 479.691 105.455 479.984 105.13C480.277 104.804 480.538 104.495 480.766 104.202C480.993 103.909 481.197 103.608 481.376 103.299C481.555 102.99 481.693 102.632 481.791 102.225C481.889 101.834 481.84 101.508 481.645 101.248C481.449 100.988 481.205 100.8 480.912 100.687C480.635 100.573 480.285 100.589 479.862 100.735C479.439 100.882 479.105 101.134 478.861 101.492C478.617 101.85 478.389 102.273 478.178 102.762ZM484.452 88.2354C485.201 88.9189 485.396 90.0176 485.038 91.5312C484.013 95.0306 481.962 96.8372 478.886 96.9512V94.7783C481.409 94.9248 482.637 93.3216 482.572 89.9688C482.523 88.4225 483.15 87.8447 484.452 88.2354ZM526.151 84.8418C527.323 85.1673 527.909 85.8184 527.909 86.7949C528.072 88.5365 527.047 90.4326 524.833 92.4834C523.661 93.5739 522.497 94.4691 521.342 95.1689C520.186 95.8688 518.86 96.4466 517.362 96.9023C516.825 97.0163 516.378 97.0651 516.02 97.0488C515.678 97.0326 515.23 96.8291 514.677 96.4385C514.335 96.7965 513.993 97.2116 513.651 97.6836C511.649 100.532 509.965 102.656 508.598 104.056C507.247 105.472 505.31 107.238 502.787 109.354C499.988 111.258 496.952 112.503 493.681 113.089C488.505 113.74 484.794 112.812 482.548 110.306L482.45 109.964L482.768 109.622C488.757 111.038 493.811 110.794 497.929 108.89C499.735 107.978 501.623 106.709 503.593 105.081C505.904 103.34 507.841 101.484 509.403 99.5146C510.738 98.18 512.195 96.0072 513.773 92.9961C514.034 92.7845 514.229 92.6624 514.359 92.6299C514.506 92.5811 514.652 92.6055 514.799 92.7031C514.945 92.7845 515.076 92.9473 515.189 93.1914C515.32 93.4193 515.645 93.8994 516.166 94.6318C516.443 94.8271 516.654 94.7865 516.801 94.5098L516.483 91.3604C516.483 90.5791 516.955 89.7816 517.899 88.9678C521.708 85.9079 524.459 84.5326 526.151 84.8418ZM518.876 91.043C518.795 91.3359 518.778 91.8242 518.827 92.5078C518.892 93.1914 519.161 93.5332 519.633 93.5332C520.919 93.0286 522.123 92.2718 523.246 91.2627C524.385 90.2536 525.093 89.3177 525.37 88.4551C525.5 87.7064 525.248 87.3809 524.613 87.4785C522.546 87.6087 520.634 88.7969 518.876 91.043ZM516.288 76.9805C516.272 76.8014 516.264 76.6387 516.264 76.4922C516.28 76.3294 516.321 76.1748 516.386 76.0283C516.467 75.8656 516.524 75.7109 516.557 75.5645C516.605 75.4017 516.605 75.2389 516.557 75.0762C516.508 74.9134 516.426 74.7832 516.312 74.6855C516.215 74.5716 516.06 74.4658 515.849 74.3682C515.653 74.2542 515.425 74.1973 515.165 74.1973C514.921 74.1973 514.685 74.238 514.457 74.3193C514.229 74.4007 514.026 74.5228 513.847 74.6855C513.684 74.8483 513.546 75.0518 513.432 75.2959C513.318 75.54 513.236 75.7842 513.188 76.0283C513.155 76.2725 513.155 76.5085 513.188 76.7363C513.236 76.9479 513.334 77.1758 513.48 77.4199C513.627 77.6478 513.79 77.8268 513.969 77.957C514.148 78.071 514.384 78.1849 514.677 78.2988C514.986 78.4128 515.271 78.4616 515.531 78.4453C515.808 78.4128 516.003 78.3558 516.117 78.2744C516.247 78.193 516.345 78.0791 516.41 77.9326C516.492 77.7861 516.54 77.6803 516.557 77.6152C516.573 77.5339 516.54 77.4525 516.459 77.3711C516.378 77.2897 516.321 77.1595 516.288 76.9805ZM531.547 95.584C531.954 95.1608 532.434 94.9167 532.987 94.8516C533.541 94.7702 534.159 94.7865 534.843 94.9004V97C533.931 96.9023 533.256 97.3174 532.816 98.2451C532.393 99.1729 531.799 100.361 531.034 101.81C530.269 103.274 528.129 104.837 524.613 106.497C522.188 106.888 521.879 106.245 523.686 104.568C525.085 103.396 526.273 102.436 527.25 101.688C528.227 100.955 529.016 99.9134 529.618 98.5625C530.22 97.2279 530.863 96.235 531.547 95.584ZM541.776 81.2285L542.606 81.082C544.071 80.903 544.722 81.3831 544.56 82.5225C544.364 83.8245 543.982 84.7767 543.412 85.3789H543.192C542.916 85.2324 542.777 85.0208 542.777 84.7441L542.875 83.792C542.826 83.2223 542.558 83.0026 542.069 83.1328L541.361 83.3037L540.238 83.792C539.148 84.4105 538.562 85.2161 538.48 86.209L538.603 86.7461C539.091 87.7878 540.1 88.4958 541.63 88.8701C542.476 89.0166 543.453 88.8701 544.56 88.4307C545.862 87.861 546.741 87.5762 547.196 87.5762H547.611C548.246 87.5762 548.563 87.861 548.563 88.4307V88.5283C548.563 89.277 547.676 89.9036 545.902 90.4082C544.096 90.8477 542.509 92.0277 541.142 93.9482C539.774 95.8525 537.634 96.8617 534.721 96.9756V94.8027C535.486 94.7539 536.356 94.4447 537.333 93.875C538.31 93.3053 539.058 92.3695 539.579 91.0674C538.131 90.514 537.105 89.749 536.503 88.7725C535.917 87.7959 535.876 86.6322 536.381 85.2812C537.276 83.6862 538.83 82.4167 541.044 81.4727L541.776 81.2285ZM563.358 94.8271C562.74 94.7458 562.325 94.6562 562.113 94.5586C561.902 94.4609 561.706 94.3063 561.527 94.0947C561.348 93.8669 561.234 93.6146 561.186 93.3379C561.137 93.0449 561.12 92.7113 561.137 92.3369C561.153 91.9626 561.259 91.1243 561.454 89.8223C561.649 88.5202 561.796 87.5029 561.894 86.7705C561.991 86.0218 562.081 85.3464 562.162 84.7441C562.26 84.1419 562.374 83.1816 562.504 81.8633C562.471 81.0658 562.203 80.6995 561.698 80.7646C561.21 80.8298 560.836 81.1553 560.575 81.7412C559.957 82.9456 559.615 83.8571 559.55 84.4756C559.485 85.0778 559.403 85.8184 559.306 86.6973C559.208 87.5762 559.094 88.4144 558.964 89.2119C558.85 90.0094 558.744 90.7988 558.646 91.5801C558.565 92.3451 558.533 93.0042 558.549 93.5576C558.565 94.0947 558.655 94.5749 558.817 94.998C558.996 95.4212 559.232 95.7712 559.525 96.0479C559.818 96.3083 560.201 96.5361 560.673 96.7314C561.145 96.9105 562.04 97 563.358 97V94.8271ZM568.778 88.2354C569.527 88.9189 569.722 90.0176 569.364 91.5312C568.339 95.0306 566.288 96.8372 563.212 96.9512V94.7783C565.735 94.9248 566.964 93.3216 566.898 89.9688C566.85 88.4225 567.476 87.8447 568.778 88.2354ZM567.045 103.519C566.964 103.372 566.955 103.209 567.021 103.03C567.102 102.851 567.175 102.68 567.24 102.518C567.322 102.371 567.379 102.216 567.411 102.054C567.46 101.907 567.46 101.753 567.411 101.59C567.362 101.427 567.281 101.289 567.167 101.175C567.069 101.077 566.915 100.971 566.703 100.857C566.508 100.76 566.28 100.711 566.02 100.711C565.775 100.711 565.539 100.752 565.312 100.833C565.084 100.914 564.888 101.036 564.726 101.199C564.579 101.362 564.441 101.565 564.311 101.81C564.18 102.054 564.099 102.298 564.066 102.542C564.05 102.802 564.05 103.038 564.066 103.25C564.099 103.462 564.188 103.681 564.335 103.909C564.481 104.153 564.644 104.332 564.823 104.446C565.002 104.576 565.238 104.699 565.531 104.812C565.84 104.926 566.15 104.992 566.459 105.008C566.768 105.04 566.98 105.016 567.094 104.935C567.224 104.853 567.322 104.739 567.387 104.593C567.468 104.446 567.493 104.308 567.46 104.178C567.444 104.064 567.395 103.966 567.313 103.885C567.232 103.803 567.143 103.681 567.045 103.519ZM10.6729 156.582C10.9658 155.247 11.6901 154.58 12.8457 154.58C13.1387 154.58 13.4479 154.678 13.7734 154.873C14.1478 155.117 14.335 155.654 14.335 156.484C14.335 157.038 14.2536 157.518 14.0908 157.925C13.9281 158.332 13.7083 158.657 13.4316 158.901C13.041 159.211 12.6178 159.365 12.1621 159.365C11.1042 159.365 10.5752 158.714 10.5752 157.412C10.5752 157.135 10.6077 156.859 10.6729 156.582ZM29.8867 183.56C29.5286 184.536 29.2194 185.024 28.959 185.024C28.8125 185.024 28.6904 184.959 28.5928 184.829C28.5114 184.715 28.4382 184.528 28.373 184.268C28.2266 183.796 28.1126 183.096 28.0312 182.168C27.9499 181.24 27.901 179.466 27.8848 176.846C27.8848 176.455 27.8848 176.064 27.8848 175.674C27.901 175.283 27.9092 174.884 27.9092 174.478C27.9417 171.857 28.0882 169.619 28.3486 167.764C28.609 165.908 28.9753 164.386 29.4473 163.198C30.5703 161.164 32.0514 159.626 33.8906 158.584C35.7298 157.542 36.9261 156.745 37.4795 156.191C37.7074 155.605 37.9352 155.133 38.1631 154.775C38.4072 154.417 38.7165 154.141 39.0908 153.945C39.4814 153.75 39.807 153.652 40.0674 153.652C40.3441 153.652 40.6289 153.734 40.9219 153.896C41.2148 154.043 41.4753 154.263 41.7031 154.556C41.931 154.832 42.1182 155.117 42.2646 155.41C42.4111 155.687 42.5332 155.923 42.6309 156.118C42.7285 156.297 42.875 156.509 43.0703 156.753C43.2656 156.997 43.5098 157.217 43.8027 157.412C44.112 157.591 44.641 157.713 45.3896 157.778V159.976C44.5433 159.959 43.9329 159.854 43.5586 159.658C43.1842 159.463 42.8424 159.268 42.5332 159.072C42.224 159.74 41.7438 160.138 41.0928 160.269C40.458 160.399 39.7663 160.203 39.0176 159.683C37.276 160.138 36.1611 160.496 35.6729 160.757C35.1846 161.017 34.7044 161.343 34.2324 161.733C33.7604 162.14 33.3617 162.507 33.0361 162.832C32.5316 163.337 32.0921 163.939 31.7178 164.639C31.3597 165.355 31.083 166.136 30.8877 166.982C30.7087 167.764 30.5703 168.586 30.4727 169.448C30.375 170.311 30.2773 172.004 30.1797 174.526C30.0983 177.049 30.0576 178.872 30.0576 179.995C30.0576 181.118 30.0007 182.298 29.8867 183.535V183.56ZM54.0322 160V157.729C53.6742 157.762 53.2673 157.673 52.8115 157.461C52.3558 157.249 52.0465 157.021 51.8838 156.777C51.7373 156.533 51.6071 156.224 51.4932 155.85C51.3792 155.459 51.3141 155.02 51.2979 154.531C51.2979 154.043 51.2083 153.628 51.0293 153.286C50.8665 152.928 50.5736 152.773 50.1504 152.822C49.7435 152.855 49.4342 153.026 49.2227 153.335C49.0273 153.644 48.8564 154.043 48.71 154.531C48.5635 155.02 48.4089 155.483 48.2461 155.923C48.0833 156.362 47.7171 156.794 47.1475 157.217C46.5941 157.624 45.9593 157.803 45.2432 157.754V160C46.4313 159.87 47.2288 159.707 47.6357 159.512C48.0589 159.316 48.4495 159.072 48.8076 158.779C49.1657 158.47 49.4342 158.136 49.6133 157.778C49.7923 157.404 49.9551 157.477 50.1016 157.998C50.2643 158.503 50.6305 158.942 51.2002 159.316C51.7699 159.691 52.7139 159.919 54.0322 160ZM42.9971 165.518C44.3317 164.655 45.8617 164.224 47.5869 164.224C47.9775 164.224 48.3275 164.24 48.6367 164.272C48.946 164.321 49.2064 164.386 49.418 164.468C50.1504 164.712 50.5166 164.98 50.5166 165.273C50.5166 165.697 50.0202 166.006 49.0273 166.201C48.4902 166.217 47.9287 166.234 47.3428 166.25C46.7568 166.283 46.1872 166.388 45.6338 166.567C45.0967 166.714 44.4701 167.072 43.7539 167.642C43.64 167.69 43.5342 167.723 43.4365 167.739C43.3389 167.756 43.2493 167.764 43.168 167.764C42.4518 167.617 42.0938 167.267 42.0938 166.714C42.0938 166.307 42.3949 165.908 42.9971 165.518ZM55.0088 141.104C56.4411 140.192 58.0931 139.736 59.9648 139.736C60.388 139.736 60.7624 139.761 61.0879 139.81C61.4134 139.842 61.6982 139.907 61.9424 140.005C62.7236 140.265 63.1143 140.55 63.1143 140.859C63.1143 141.299 62.569 141.543 61.4785 141.592C60.9089 141.608 60.3066 141.632 59.6719 141.665C59.0371 141.681 58.4186 141.787 57.8164 141.982C57.2467 142.145 56.5713 142.528 55.79 143.13C55.6761 143.179 55.5622 143.211 55.4482 143.228C55.3506 143.244 55.2529 143.252 55.1553 143.252C54.4066 143.252 54.0322 142.959 54.0322 142.373C54.0322 141.95 54.3577 141.527 55.0088 141.104ZM62.7236 160V157.729C62.3656 157.762 61.9587 157.673 61.5029 157.461C61.0472 157.249 60.738 157.021 60.5752 156.777C60.4287 156.533 60.2985 156.224 60.1846 155.85C60.0706 155.459 60.0055 155.02 59.9893 154.531C59.9893 154.043 59.8997 153.628 59.7207 153.286C59.5579 152.928 59.265 152.773 58.8418 152.822C58.4349 152.855 58.1257 153.026 57.9141 153.335C57.7188 153.644 57.5479 154.043 57.4014 154.531C57.2549 155.02 57.1003 155.483 56.9375 155.923C56.7747 156.362 56.4085 156.794 55.8389 157.217C55.2855 157.624 54.6507 157.803 53.9346 157.754V160C55.1227 159.87 55.9202 159.707 56.3271 159.512C56.7503 159.316 57.141 159.072 57.499 158.779C57.8571 158.47 58.1257 158.136 58.3047 157.778C58.4837 157.404 58.6465 157.477 58.793 157.998C58.9557 158.503 59.3219 158.942 59.8916 159.316C60.4613 159.691 61.4053 159.919 62.7236 160ZM80.0576 157.925C79.5205 157.843 79.1543 157.721 78.959 157.559C78.7637 157.38 78.7393 156.916 78.8857 156.167C79.0485 155.402 79.1217 154.751 79.1055 154.214C79.0892 153.677 78.9915 153.302 78.8125 153.091C78.6497 152.863 78.4382 152.716 78.1777 152.651C77.9336 152.586 77.6976 152.611 77.4697 152.725C77.2581 152.839 77.071 152.993 76.9082 153.188C76.7454 153.384 76.5745 153.75 76.3955 154.287C76.2165 154.808 75.9886 155.369 75.7119 155.972C75.4352 156.574 75.1667 156.94 74.9062 157.07C74.6621 157.201 74.418 157.16 74.1738 156.948C73.946 156.737 73.889 156.273 74.0029 155.557C74.1169 154.824 74.1494 154.328 74.1006 154.067C74.068 153.807 73.9704 153.571 73.8076 153.359C73.6611 153.148 73.474 153.026 73.2461 152.993C73.0345 152.944 72.7741 153.009 72.4648 153.188C72.1719 153.351 71.9115 153.685 71.6836 154.189C71.4557 154.694 71.2116 155.239 70.9512 155.825C70.6908 156.411 70.4466 156.794 70.2188 156.973C69.9909 157.152 69.7549 157.168 69.5107 157.021C69.2829 156.859 69.234 156.33 69.3643 155.435C69.4945 154.523 69.5107 153.953 69.4131 153.726C69.3154 153.481 69.1934 153.302 69.0469 153.188C68.9167 153.075 68.7376 152.993 68.5098 152.944C68.2982 152.896 68.0703 152.952 67.8262 153.115C67.582 153.278 67.3949 153.433 67.2646 153.579C67.1507 153.726 66.931 154.246 66.6055 155.142C66.2962 156.021 65.7917 156.696 65.0918 157.168C64.3919 157.624 63.5537 157.843 62.5771 157.827V159.976C63.863 160.008 64.8558 159.902 65.5557 159.658C66.2555 159.398 66.7601 159.064 67.0693 158.657C67.3949 158.25 67.6471 158.258 67.8262 158.682C68.0052 159.105 68.2656 159.422 68.6074 159.634C68.9655 159.845 69.348 159.951 69.7549 159.951C70.1618 159.935 70.5605 159.788 70.9512 159.512C71.3418 159.235 71.6266 158.861 71.8057 158.389C72.001 157.9 72.1475 157.803 72.2451 158.096C72.3428 158.389 72.5137 158.698 72.7578 159.023C73.0182 159.349 73.3031 159.593 73.6123 159.756C73.9215 159.902 74.2471 159.967 74.5889 159.951C74.9307 159.935 75.2562 159.829 75.5654 159.634C75.8747 159.438 76.127 159.137 76.3223 158.73C76.5339 158.307 76.6803 158.039 76.7617 157.925C76.8594 157.811 76.9245 157.835 76.957 157.998C77.0059 158.161 77.1279 158.438 77.3232 158.828C77.5348 159.202 77.8522 159.495 78.2754 159.707C78.7148 159.902 79.3089 160 80.0576 160V157.925ZM83.6221 143.569C84.8265 143.309 87.276 144.245 90.9707 146.377C92.9889 147.939 93.998 149.201 93.998 150.161C94.1771 151.675 92.9971 152.936 90.458 153.945C88.6025 154.417 87.04 155.215 85.7705 156.338C83.9476 158.779 82.0107 160 79.96 160V157.827C80.7738 157.713 81.4329 157.445 81.9375 157.021C82.4583 156.582 82.9303 155.98 83.3535 155.215C81.3027 153.864 80.3506 152.432 80.4971 150.918C80.4971 149.486 81.7747 148.005 84.3301 146.475L83.0361 145.327C82.2386 144.399 82.4339 143.813 83.6221 143.569ZM82.4014 151.04V151.553C82.4014 152.399 83.2477 152.904 84.9404 153.066C86.6331 153.213 87.5527 151.992 87.6992 149.404C87.5527 148.574 87.1296 148.159 86.4297 148.159H85.6729C84.3382 148.387 83.2477 149.347 82.4014 151.04ZM89.3838 149.624C89.1559 150.194 89.1396 150.723 89.335 151.211C89.5303 151.683 89.8883 151.919 90.4092 151.919C90.9463 151.919 91.3857 151.292 91.7275 150.039C91.3369 149.225 90.7917 148.802 90.0918 148.77C89.8639 148.77 89.6279 149.054 89.3838 149.624ZM118.241 155.923C119.201 155.597 120.072 155.719 120.854 156.289C121.651 156.842 122.831 157.371 124.394 157.876V160C123.026 159.951 121.757 159.528 120.585 158.73C119.413 157.917 118.306 158.568 117.265 160.684C116.223 162.799 114.783 165.119 112.943 167.642C111.104 170.181 109.159 172.02 107.108 173.159C105.074 174.299 103.007 174.974 100.907 175.186C98.8076 175.413 96.8545 175.137 95.0479 174.355C93.2249 173.59 92.0124 172.622 91.4102 171.45C90.7917 170.278 90.5557 169.57 90.7021 169.326C90.8324 169.082 91.2393 169.229 91.9229 169.766C94.3805 171.572 97.001 172.394 99.7842 172.231C102.551 172.069 104.911 171.312 106.864 169.961C108.834 168.61 110.697 166.657 112.455 164.102C114.213 161.546 115.377 159.626 115.946 158.34C116.532 157.038 117.297 156.232 118.241 155.923ZM128.959 141.03C128.943 140.851 128.935 140.688 128.935 140.542C128.951 140.379 128.992 140.225 129.057 140.078C129.138 139.915 129.195 139.761 129.228 139.614C129.276 139.451 129.276 139.289 129.228 139.126C129.179 138.963 129.097 138.833 128.983 138.735C128.886 138.621 128.731 138.516 128.52 138.418C128.324 138.304 128.096 138.247 127.836 138.247C127.592 138.247 127.356 138.288 127.128 138.369C126.9 138.451 126.697 138.573 126.518 138.735C126.355 138.898 126.216 139.102 126.103 139.346C125.989 139.59 125.907 139.834 125.858 140.078C125.826 140.322 125.826 140.558 125.858 140.786C125.907 140.998 126.005 141.226 126.151 141.47C126.298 141.698 126.461 141.877 126.64 142.007C126.819 142.121 127.055 142.235 127.348 142.349C127.657 142.463 127.942 142.511 128.202 142.495C128.479 142.463 128.674 142.406 128.788 142.324C128.918 142.243 129.016 142.129 129.081 141.982C129.162 141.836 129.211 141.73 129.228 141.665C129.244 141.584 129.211 141.502 129.13 141.421C129.049 141.34 128.992 141.209 128.959 141.03ZM129.936 151.235C130.684 151.919 130.88 153.018 130.521 154.531C129.496 158.031 127.445 159.837 124.369 159.951V157.778C126.892 157.925 128.121 156.322 128.056 152.969C128.007 151.423 128.633 150.845 129.936 151.235ZM139.604 157.827C138.985 157.746 138.57 157.656 138.358 157.559C138.147 157.461 137.951 157.306 137.772 157.095C137.593 156.867 137.479 156.615 137.431 156.338C137.382 156.045 137.366 155.711 137.382 155.337C137.398 154.963 137.504 154.124 137.699 152.822C137.895 151.52 138.041 150.503 138.139 149.771C138.236 149.022 138.326 148.346 138.407 147.744C138.505 147.142 138.619 146.182 138.749 144.863C138.716 144.066 138.448 143.7 137.943 143.765C137.455 143.83 137.081 144.155 136.82 144.741C136.202 145.946 135.86 146.857 135.795 147.476C135.73 148.078 135.648 148.818 135.551 149.697C135.453 150.576 135.339 151.414 135.209 152.212C135.095 153.009 134.989 153.799 134.892 154.58C134.81 155.345 134.778 156.004 134.794 156.558C134.81 157.095 134.9 157.575 135.062 157.998C135.242 158.421 135.478 158.771 135.771 159.048C136.063 159.308 136.446 159.536 136.918 159.731C137.39 159.91 138.285 160 139.604 160V157.827ZM142.997 166.03C142.916 165.884 142.908 165.721 142.973 165.542C143.054 165.363 143.127 165.192 143.192 165.029C143.274 164.883 143.331 164.728 143.363 164.565C143.412 164.419 143.412 164.264 143.363 164.102C143.314 163.939 143.233 163.8 143.119 163.687C143.021 163.589 142.867 163.483 142.655 163.369C142.46 163.271 142.232 163.223 141.972 163.223C141.728 163.223 141.492 163.263 141.264 163.345C141.036 163.426 140.84 163.548 140.678 163.711C140.531 163.874 140.393 164.077 140.263 164.321C140.132 164.565 140.051 164.81 140.019 165.054C140.002 165.314 140.002 165.55 140.019 165.762C140.051 165.973 140.141 166.193 140.287 166.421C140.434 166.665 140.596 166.844 140.775 166.958C140.954 167.088 141.19 167.21 141.483 167.324C141.793 167.438 142.102 167.503 142.411 167.52C142.72 167.552 142.932 167.528 143.046 167.446C143.176 167.365 143.274 167.251 143.339 167.104C143.42 166.958 143.445 166.82 143.412 166.689C143.396 166.576 143.347 166.478 143.266 166.396C143.184 166.315 143.095 166.193 142.997 166.03ZM148.271 160V157.729C147.912 157.762 147.506 157.673 147.05 157.461C146.594 157.249 146.285 157.021 146.122 156.777C145.976 156.533 145.845 156.224 145.731 155.85C145.618 155.459 145.552 155.02 145.536 154.531C145.536 154.043 145.447 153.628 145.268 153.286C145.105 152.928 144.812 152.773 144.389 152.822C143.982 152.855 143.673 153.026 143.461 153.335C143.266 153.644 143.095 154.043 142.948 154.531C142.802 155.02 142.647 155.483 142.484 155.923C142.322 156.362 141.955 156.794 141.386 157.217C140.832 157.624 140.198 157.803 139.481 157.754V160C140.67 159.87 141.467 159.707 141.874 159.512C142.297 159.316 142.688 159.072 143.046 158.779C143.404 158.47 143.673 158.136 143.852 157.778C144.031 157.404 144.193 157.477 144.34 157.998C144.503 158.503 144.869 158.942 145.438 159.316C146.008 159.691 146.952 159.919 148.271 160ZM156.767 160V157.729C156.409 157.762 156.002 157.673 155.546 157.461C155.09 157.249 154.781 157.021 154.618 156.777C154.472 156.533 154.341 156.224 154.228 155.85C154.114 155.459 154.049 155.02 154.032 154.531C154.032 154.043 153.943 153.628 153.764 153.286C153.601 152.928 153.308 152.773 152.885 152.822C152.478 152.855 152.169 153.026 151.957 153.335C151.762 153.644 151.591 154.043 151.444 154.531C151.298 155.02 151.143 155.483 150.98 155.923C150.818 156.362 150.451 156.794 149.882 157.217C149.328 157.624 148.694 157.803 147.978 157.754V160C149.166 159.87 149.963 159.707 150.37 159.512C150.793 159.316 151.184 159.072 151.542 158.779C151.9 158.47 152.169 158.136 152.348 157.778C152.527 157.404 152.689 157.477 152.836 157.998C152.999 158.503 153.365 158.942 153.935 159.316C154.504 159.691 155.448 159.919 156.767 160ZM145.731 165.518C147.066 164.655 148.596 164.224 150.321 164.224C150.712 164.224 151.062 164.24 151.371 164.272C151.68 164.321 151.941 164.386 152.152 164.468C152.885 164.712 153.251 164.98 153.251 165.273C153.251 165.697 152.755 166.006 151.762 166.201C151.225 166.217 150.663 166.234 150.077 166.25C149.491 166.283 148.922 166.388 148.368 166.567C147.831 166.714 147.204 167.072 146.488 167.642C146.374 167.69 146.269 167.723 146.171 167.739C146.073 167.756 145.984 167.764 145.902 167.764C145.186 167.617 144.828 167.267 144.828 166.714C144.828 166.307 145.129 165.908 145.731 165.518ZM157.743 141.104C159.175 140.192 160.827 139.736 162.699 139.736C163.122 139.736 163.497 139.761 163.822 139.81C164.148 139.842 164.433 139.907 164.677 140.005C165.458 140.265 165.849 140.55 165.849 140.859C165.849 141.299 165.303 141.543 164.213 141.592C163.643 141.608 163.041 141.632 162.406 141.665C161.771 141.681 161.153 141.787 160.551 141.982C159.981 142.145 159.306 142.528 158.524 143.13C158.41 143.179 158.297 143.211 158.183 143.228C158.085 143.244 157.987 143.252 157.89 143.252C157.141 143.252 156.767 142.959 156.767 142.373C156.767 141.95 157.092 141.527 157.743 141.104ZM165.458 160V157.729C165.1 157.762 164.693 157.673 164.237 157.461C163.782 157.249 163.472 157.021 163.31 156.777C163.163 156.533 163.033 156.224 162.919 155.85C162.805 155.459 162.74 155.02 162.724 154.531C162.724 154.043 162.634 153.628 162.455 153.286C162.292 152.928 161.999 152.773 161.576 152.822C161.169 152.855 160.86 153.026 160.648 153.335C160.453 153.644 160.282 154.043 160.136 154.531C159.989 155.02 159.835 155.483 159.672 155.923C159.509 156.362 159.143 156.794 158.573 157.217C158.02 157.624 157.385 157.803 156.669 157.754V160C157.857 159.87 158.655 159.707 159.062 159.512C159.485 159.316 159.875 159.072 160.233 158.779C160.591 158.47 160.86 158.136 161.039 157.778C161.218 157.404 161.381 157.477 161.527 157.998C161.69 158.503 162.056 158.942 162.626 159.316C163.196 159.691 164.14 159.919 165.458 160ZM174.174 143.496C173.36 144.294 172.961 144.041 172.978 142.739C172.978 142.511 173.035 142.21 173.148 141.836C173.262 141.445 173.433 141.087 173.661 140.762C173.889 140.42 174.101 140.151 174.296 139.956C174.491 139.744 174.768 139.549 175.126 139.37C175.5 139.175 175.997 139.061 176.615 139.028C177.25 138.979 177.795 139.077 178.251 139.321C178.707 139.565 179.097 139.924 179.423 140.396C179.765 140.851 179.944 141.405 179.96 142.056C179.993 142.707 179.903 143.35 179.691 143.984C179.48 144.603 179.171 145.197 178.764 145.767C178.373 146.32 177.828 146.89 177.128 147.476C176.428 148.062 175.891 148.395 175.517 148.477C174.003 148.623 173.775 148.159 174.833 147.085C175.321 146.662 175.72 146.279 176.029 145.938C176.339 145.596 176.607 145.278 176.835 144.985C177.079 144.676 177.291 144.367 177.47 144.058C177.665 143.732 177.812 143.366 177.909 142.959C178.007 142.552 177.95 142.21 177.738 141.934C177.543 141.657 177.299 141.462 177.006 141.348C176.713 141.234 176.347 141.25 175.907 141.396C175.468 141.543 175.118 141.803 174.857 142.178C174.613 142.552 174.385 142.992 174.174 143.496ZM182.792 157.925C182.255 157.843 181.889 157.721 181.693 157.559C181.498 157.38 181.474 156.916 181.62 156.167C181.783 155.402 181.856 154.751 181.84 154.214C181.824 153.677 181.726 153.302 181.547 153.091C181.384 152.863 181.173 152.716 180.912 152.651C180.668 152.586 180.432 152.611 180.204 152.725C179.993 152.839 179.805 152.993 179.643 153.188C179.48 153.384 179.309 153.75 179.13 154.287C178.951 154.808 178.723 155.369 178.446 155.972C178.17 156.574 177.901 156.94 177.641 157.07C177.396 157.201 177.152 157.16 176.908 156.948C176.68 156.737 176.623 156.273 176.737 155.557C176.851 154.824 176.884 154.328 176.835 154.067C176.802 153.807 176.705 153.571 176.542 153.359C176.396 153.148 176.208 153.026 175.98 152.993C175.769 152.944 175.508 153.009 175.199 153.188C174.906 153.351 174.646 153.685 174.418 154.189C174.19 154.694 173.946 155.239 173.686 155.825C173.425 156.411 173.181 156.794 172.953 156.973C172.725 157.152 172.489 157.168 172.245 157.021C172.017 156.859 171.968 156.33 172.099 155.435C172.229 154.523 172.245 153.953 172.147 153.726C172.05 153.481 171.928 153.302 171.781 153.188C171.651 153.075 171.472 152.993 171.244 152.944C171.033 152.896 170.805 152.952 170.561 153.115C170.316 153.278 170.129 153.433 169.999 153.579C169.885 153.726 169.665 154.246 169.34 155.142C169.031 156.021 168.526 156.696 167.826 157.168C167.126 157.624 166.288 157.843 165.312 157.827V159.976C166.597 160.008 167.59 159.902 168.29 159.658C168.99 159.398 169.494 159.064 169.804 158.657C170.129 158.25 170.382 158.258 170.561 158.682C170.74 159.105 171 159.422 171.342 159.634C171.7 159.845 172.082 159.951 172.489 159.951C172.896 159.935 173.295 159.788 173.686 159.512C174.076 159.235 174.361 158.861 174.54 158.389C174.735 157.9 174.882 157.803 174.979 158.096C175.077 158.389 175.248 158.698 175.492 159.023C175.753 159.349 176.037 159.593 176.347 159.756C176.656 159.902 176.981 159.967 177.323 159.951C177.665 159.935 177.991 159.829 178.3 159.634C178.609 159.438 178.861 159.137 179.057 158.73C179.268 158.307 179.415 158.039 179.496 157.925C179.594 157.811 179.659 157.835 179.691 157.998C179.74 158.161 179.862 158.438 180.058 158.828C180.269 159.202 180.587 159.495 181.01 159.707C181.449 159.902 182.043 160 182.792 160V157.925ZM182.011 165.762C181.229 166.527 180.847 166.283 180.863 165.029C180.863 164.801 180.92 164.5 181.034 164.126C181.148 163.768 181.319 163.426 181.547 163.101C181.758 162.775 181.962 162.515 182.157 162.319C182.336 162.124 182.597 161.937 182.938 161.758C183.297 161.579 183.777 161.465 184.379 161.416C184.981 161.383 185.502 161.481 185.941 161.709C186.397 161.953 186.78 162.295 187.089 162.734C187.414 163.19 187.585 163.727 187.602 164.346C187.634 164.98 187.545 165.599 187.333 166.201C187.138 166.82 186.845 167.397 186.454 167.935C186.08 168.488 185.551 169.041 184.867 169.595C184.2 170.164 183.687 170.49 183.329 170.571C181.864 170.701 181.636 170.254 182.646 169.229C183.134 168.822 183.524 168.455 183.817 168.13C184.11 167.804 184.371 167.495 184.599 167.202C184.826 166.909 185.03 166.608 185.209 166.299C185.388 165.99 185.526 165.632 185.624 165.225C185.722 164.834 185.673 164.508 185.478 164.248C185.282 163.988 185.038 163.8 184.745 163.687C184.468 163.573 184.118 163.589 183.695 163.735C183.272 163.882 182.938 164.134 182.694 164.492C182.45 164.85 182.222 165.273 182.011 165.762ZM188.285 151.235C189.034 151.919 189.229 153.018 188.871 154.531C187.846 158.031 185.795 159.837 182.719 159.951V157.778C185.242 157.925 186.47 156.322 186.405 152.969C186.356 151.423 186.983 150.845 188.285 151.235ZM216.63 150.649C218.534 150.194 218.542 151.227 216.654 153.75L215.434 154.214C214.49 154.507 212.178 155.524 208.5 157.266C204.838 158.991 200.964 161.481 196.879 164.736C192.794 168.008 191.109 171.06 191.825 173.892C191.825 175.096 192.313 176.756 193.29 178.872V179.165H193.095C191.158 177.928 189.856 176.138 189.188 173.794C188.733 171.906 189.091 169.823 190.263 167.544C191.614 165.249 194.568 162.637 199.125 159.707C203.682 156.777 207.662 154.539 211.063 152.993C214.465 151.431 216.321 150.649 216.63 150.649ZM203.202 143.96C203.186 143.781 203.178 143.618 203.178 143.472C203.194 143.309 203.235 143.154 203.3 143.008C203.381 142.845 203.438 142.69 203.471 142.544C203.52 142.381 203.52 142.218 203.471 142.056C203.422 141.893 203.34 141.763 203.227 141.665C203.129 141.551 202.974 141.445 202.763 141.348C202.567 141.234 202.34 141.177 202.079 141.177C201.835 141.177 201.599 141.217 201.371 141.299C201.143 141.38 200.94 141.502 200.761 141.665C200.598 141.828 200.46 142.031 200.346 142.275C200.232 142.52 200.15 142.764 200.102 143.008C200.069 143.252 200.069 143.488 200.102 143.716C200.15 143.927 200.248 144.155 200.395 144.399C200.541 144.627 200.704 144.806 200.883 144.937C201.062 145.05 201.298 145.164 201.591 145.278C201.9 145.392 202.185 145.441 202.445 145.425C202.722 145.392 202.917 145.335 203.031 145.254C203.161 145.173 203.259 145.059 203.324 144.912C203.406 144.766 203.454 144.66 203.471 144.595C203.487 144.513 203.454 144.432 203.373 144.351C203.292 144.269 203.235 144.139 203.202 143.96ZM222.172 141.616H222.465C223.637 141.763 224.223 142.422 224.223 143.594V144.351C224.109 149.705 223.612 153.368 222.733 155.337C221.854 157.29 220.772 158.674 219.486 159.487L218.534 159.829L218.046 159.561L217.997 159.414V159.146C219.022 157.632 219.747 156.11 220.17 154.58C220.691 153.083 221.073 151.105 221.317 148.647C221.448 147.41 221.602 145.164 221.781 141.909L222.172 141.616ZM230.009 158.584C230.416 158.161 230.896 157.917 231.449 157.852C232.003 157.77 232.621 157.786 233.305 157.9V160C232.393 159.902 231.718 160.317 231.278 161.245C230.855 162.173 230.261 163.361 229.496 164.81C228.731 166.274 226.591 167.837 223.075 169.497C220.65 169.888 220.341 169.245 222.147 167.568C223.547 166.396 224.735 165.436 225.712 164.688C226.688 163.955 227.478 162.913 228.08 161.562C228.682 160.228 229.325 159.235 230.009 158.584ZM231.669 167.422C233.02 166.527 234.574 166.079 236.332 166.079C236.739 166.079 237.097 166.095 237.406 166.128C237.715 166.177 237.984 166.25 238.212 166.348C238.944 166.592 239.311 166.868 239.311 167.178C239.311 167.601 238.79 167.926 237.748 168.154C237.211 168.171 236.641 168.187 236.039 168.203C235.437 168.236 234.851 168.341 234.281 168.521C233.744 168.683 233.109 169.058 232.377 169.644C232.263 169.692 232.141 169.725 232.011 169.741C231.864 169.757 231.75 169.766 231.669 169.766C231.05 169.587 230.741 169.212 230.741 168.643C230.741 168.236 231.05 167.829 231.669 167.422ZM238.725 151.235C239.473 151.919 239.669 153.018 239.311 154.531C238.285 158.031 236.234 159.837 233.158 159.951V157.778C235.681 157.925 236.91 156.322 236.845 152.969C236.796 151.423 237.423 150.845 238.725 151.235ZM247.025 141.616H247.318C248.49 141.763 249.076 142.422 249.076 143.594V144.351C248.962 149.705 248.466 153.368 247.587 155.337C246.708 157.29 245.626 158.674 244.34 159.487L243.388 159.829L242.899 159.561L242.851 159.414V159.146C243.876 157.632 244.6 156.11 245.023 154.58C245.544 153.083 245.927 151.105 246.171 148.647C246.301 147.41 246.456 145.164 246.635 141.909L247.025 141.616ZM268.095 142.349C269.657 141.356 271.472 140.859 273.539 140.859C273.995 140.859 274.402 140.884 274.76 140.933C275.118 140.981 275.435 141.055 275.712 141.152H275.688C276.55 141.445 276.981 141.755 276.981 142.08C276.981 142.568 276.387 142.837 275.199 142.886C274.564 142.918 273.897 142.951 273.197 142.983C272.514 143 271.838 143.114 271.171 143.325C270.552 143.504 269.812 143.927 268.949 144.595V144.57C268.819 144.635 268.697 144.676 268.583 144.692C268.469 144.709 268.355 144.717 268.241 144.717C267.427 144.717 267.021 144.391 267.021 143.74C267.021 143.285 267.379 142.821 268.095 142.349ZM288.236 151.528C289.522 150.747 290.067 151.496 289.872 153.774C289.433 156.232 290.043 157.55 291.703 157.729V160C290.482 160 289.571 159.772 288.969 159.316C288.367 158.861 287.992 158.267 287.846 157.534C287.699 156.785 287.65 156.118 287.699 155.532C287.764 154.93 287.642 154.751 287.333 154.995C287.024 155.223 286.324 155.768 285.233 156.631C284.143 157.477 282.849 158.34 281.352 159.219C279.854 160.081 277.763 160.789 275.077 161.343C272.408 161.912 269.714 162.075 266.996 161.831C264.278 161.587 262.243 160.96 260.893 159.951C259.558 158.942 258.695 157.754 258.305 156.387C257.914 155.02 257.947 153.677 258.402 152.358C258.874 151.04 259.558 150.039 260.453 149.355C261.82 148.395 262.268 148.59 261.796 149.941C260.64 151.292 260.233 152.863 260.575 154.653C260.933 156.427 262.219 157.673 264.433 158.389C266.646 159.089 269.527 159.235 273.075 158.828C276.64 158.421 279.757 157.363 282.426 155.654C285.095 153.945 287.032 152.57 288.236 151.528ZM290.067 167.422C291.418 166.527 292.973 166.079 294.73 166.079C295.137 166.079 295.495 166.095 295.805 166.128C296.114 166.177 296.382 166.25 296.61 166.348C297.343 166.592 297.709 166.868 297.709 167.178C297.709 167.601 297.188 167.926 296.146 168.154C295.609 168.171 295.04 168.187 294.438 168.203C293.835 168.236 293.249 168.341 292.68 168.521C292.143 168.683 291.508 169.058 290.775 169.644C290.661 169.692 290.539 169.725 290.409 169.741C290.263 169.757 290.149 169.766 290.067 169.766C289.449 169.587 289.14 169.212 289.14 168.643C289.14 168.236 289.449 167.829 290.067 167.422ZM297.123 151.235C297.872 151.919 298.067 153.018 297.709 154.531C296.684 158.031 294.633 159.837 291.557 159.951V157.778C294.079 157.925 295.308 156.322 295.243 152.969C295.194 151.423 295.821 150.845 297.123 151.235ZM307.377 157.827C306.758 157.746 306.343 157.656 306.132 157.559C305.92 157.461 305.725 157.306 305.546 157.095C305.367 156.867 305.253 156.615 305.204 156.338C305.155 156.045 305.139 155.711 305.155 155.337C305.172 154.963 305.277 154.124 305.473 152.822C305.668 151.52 305.814 150.503 305.912 149.771C306.01 149.022 306.099 148.346 306.181 147.744C306.278 147.142 306.392 146.182 306.522 144.863C306.49 144.066 306.221 143.7 305.717 143.765C305.229 143.83 304.854 144.155 304.594 144.741C303.975 145.946 303.633 146.857 303.568 147.476C303.503 148.078 303.422 148.818 303.324 149.697C303.227 150.576 303.113 151.414 302.982 152.212C302.868 153.009 302.763 153.799 302.665 154.58C302.584 155.345 302.551 156.004 302.567 156.558C302.584 157.095 302.673 157.575 302.836 157.998C303.015 158.421 303.251 158.771 303.544 159.048C303.837 159.308 304.219 159.536 304.691 159.731C305.163 159.91 306.059 160 307.377 160V157.827ZM322.758 149.014C323.246 149.844 323.14 151.04 322.44 152.603C321.806 153.628 321.122 154.531 320.39 155.312C319.674 156.077 318.77 156.802 317.68 157.485C316.589 158.169 315.279 158.771 313.749 159.292C312.219 159.797 310.054 160.033 307.255 160V157.778C308.866 157.86 310.591 157.607 312.431 157.021C314.27 156.419 315.938 155.524 317.436 154.336C318.933 153.132 320.146 151.593 321.073 149.722C321.724 148.403 322.286 148.167 322.758 149.014ZM360.307 151.528C361.592 150.747 361.975 151.292 361.454 153.164C360.396 154.141 359.664 154.767 359.257 155.044C358.85 155.321 358.134 155.817 357.108 156.533C356.099 157.233 354.805 158.031 353.227 158.926C351.648 159.805 349.573 160.57 347.001 161.221C344.429 161.872 341.785 162.075 339.066 161.831C336.348 161.587 334.314 160.96 332.963 159.951C331.628 158.942 330.766 157.754 330.375 156.387C329.984 155.02 330.017 153.677 330.473 152.358C330.945 151.04 331.628 150.039 332.523 149.355C333.891 148.395 334.338 148.59 333.866 149.941C332.711 151.292 332.304 152.863 332.646 154.653C333.004 156.427 334.289 157.673 336.503 158.389C338.716 159.089 341.597 159.235 345.146 158.828C348.71 158.421 351.9 157.282 354.716 155.41C357.239 153.864 359.102 152.57 360.307 151.528ZM343.29 170.181C343.274 170.002 343.266 169.831 343.266 169.668C343.282 169.521 343.323 169.367 343.388 169.204C343.469 169.058 343.526 168.903 343.559 168.74C343.607 168.594 343.607 168.439 343.559 168.276C343.51 168.114 343.428 167.975 343.314 167.861C343.217 167.764 343.062 167.658 342.851 167.544C342.655 167.446 342.427 167.397 342.167 167.397C341.923 167.397 341.687 167.438 341.459 167.52C341.231 167.601 341.028 167.723 340.849 167.886C340.686 168.049 340.548 168.252 340.434 168.496C340.32 168.74 340.238 168.984 340.189 169.229C340.157 169.473 340.157 169.701 340.189 169.912C340.238 170.14 340.336 170.368 340.482 170.596C340.629 170.84 340.792 171.019 340.971 171.133C341.15 171.263 341.386 171.385 341.679 171.499C341.988 171.613 342.273 171.654 342.533 171.621C342.81 171.605 343.005 171.556 343.119 171.475C343.249 171.393 343.347 171.279 343.412 171.133C343.493 170.986 343.542 170.872 343.559 170.791C343.575 170.726 343.542 170.653 343.461 170.571C343.38 170.49 343.323 170.36 343.29 170.181ZM371 157.241C371.374 156.362 371.545 155.622 371.513 155.02C371.496 154.417 371.423 153.807 371.293 153.188C371.163 152.57 370.829 152.114 370.292 151.821C369.755 151.528 369.234 151.398 368.729 151.431C368.225 151.463 367.842 151.602 367.582 151.846C367.322 152.09 367.029 152.489 366.703 153.042C366.394 153.595 366.06 154.344 365.702 155.288C365.344 156.216 366.052 157.013 367.826 157.681C367.061 159.601 366.215 160.83 365.287 161.367C364.376 161.921 363 162.84 361.161 164.126C359.403 165.542 359.574 166.201 361.674 166.104C364.717 164.818 366.719 163.678 367.68 162.686C368.656 161.709 369.356 160.773 369.779 159.878C370.219 158.983 370.626 158.104 371 157.241ZM404.521 155.923C405.481 155.597 406.352 155.719 407.133 156.289C407.93 156.842 409.11 157.371 410.673 157.876V160C409.306 159.951 408.036 159.528 406.864 158.73C405.692 157.917 404.586 158.568 403.544 160.684C402.502 162.799 401.062 165.119 399.223 167.642C397.383 170.181 395.438 172.02 393.388 173.159C391.353 174.299 389.286 174.974 387.187 175.186C385.087 175.413 383.134 175.137 381.327 174.355C379.504 173.59 378.292 172.622 377.689 171.45C377.071 170.278 376.835 169.57 376.981 169.326C377.112 169.082 377.519 169.229 378.202 169.766C380.66 171.572 383.28 172.394 386.063 172.231C388.83 172.069 391.19 171.312 393.144 169.961C395.113 168.61 396.977 166.657 398.734 164.102C400.492 161.546 401.656 159.626 402.226 158.34C402.812 157.038 403.576 156.232 404.521 155.923ZM423.051 145.62C424.548 145.604 425.37 146.377 425.517 147.939C425.679 149.502 424.8 151.268 422.88 153.237L420.78 155.142L419.364 156.558C421.008 157.957 420.105 158.413 416.654 157.925C414.896 158.95 413.627 159.569 412.846 159.78C412.064 159.976 411.34 160.041 410.673 159.976V157.803L411.454 157.729C413.017 157.404 413.887 156.842 414.066 156.045L412.626 153.872C412.3 153.27 412.17 152.79 412.235 152.432C412.252 151.406 414.026 149.754 417.558 147.476C419.901 146.092 421.732 145.474 423.051 145.62ZM415.238 152.651C415.238 153.726 415.694 154.45 416.605 154.824H417.045C418.526 154.45 420.357 153.066 422.538 150.674C423.026 150.055 423.148 149.323 422.904 148.477L422.66 148.184L422.392 148.135C420.959 148.314 419.332 148.997 417.509 150.186C415.995 151.292 415.238 152.114 415.238 152.651ZM429.252 141.616H429.545C430.717 141.763 431.303 142.422 431.303 143.594V144.351C431.189 149.705 430.692 153.368 429.813 155.337C428.935 157.29 427.852 158.674 426.566 159.487L425.614 159.829L425.126 159.561L425.077 159.414V159.146C426.103 157.632 426.827 156.11 427.25 154.58C427.771 153.083 428.153 151.105 428.397 148.647C428.528 147.41 428.682 145.164 428.861 141.909L429.252 141.616ZM437.089 158.584C437.496 158.161 437.976 157.917 438.529 157.852C439.083 157.77 439.701 157.786 440.385 157.9V160C439.473 159.902 438.798 160.317 438.358 161.245C437.935 162.173 437.341 163.361 436.576 164.81C435.811 166.274 433.671 167.837 430.155 169.497C427.73 169.888 427.421 169.245 429.228 167.568C430.627 166.396 431.815 165.436 432.792 164.688C433.769 163.955 434.558 162.913 435.16 161.562C435.762 160.228 436.405 159.235 437.089 158.584ZM444.755 132.729H445.341C446.301 133.364 446.781 134.593 446.781 136.416C446.586 140.404 445.943 144.074 444.853 147.427L444.389 147.549C443.754 146.93 443.437 145.97 443.437 144.668C443.437 143.757 443.632 140.811 444.022 135.83V133.804C444.022 133.364 444.267 133.006 444.755 132.729ZM451.566 143.252C453.064 143.35 453.853 144.22 453.935 145.864V146.597C453.935 148.957 453.251 151.667 451.884 154.727C450.679 156.598 449.402 157.876 448.051 158.56C446.716 159.243 445.048 159.674 443.046 159.854C442.46 159.951 441.532 160 440.263 160V157.876C441.288 157.843 442.021 157.77 442.46 157.656C442.916 157.542 443.29 157.298 443.583 156.924L443.534 154.604L443.949 152.31C444.275 150.91 445.04 149.168 446.244 147.085C447.823 144.823 449.597 143.545 451.566 143.252ZM445.707 155.679C445.74 156.037 445.943 156.232 446.317 156.265C448.319 155.223 449.727 153.595 450.541 151.382C451.322 149.51 451.737 148.07 451.786 147.061C451.656 146.263 451.298 145.864 450.712 145.864C449.8 145.864 448.848 146.808 447.855 148.696C447.4 149.543 446.903 150.861 446.366 152.651C446.09 153.351 445.87 154.36 445.707 155.679ZM487.699 138.052L487.919 138.076C488.651 138.158 489.075 138.743 489.188 139.834L489.042 141.152L487.87 150.894C487.431 156.916 486.454 161.05 484.94 163.296C483.834 165.575 482.385 167.552 480.595 169.229C478.804 170.921 476.786 172.264 474.54 173.257C472.31 174.25 470.072 174.583 467.826 174.258C465.596 173.932 463.798 173.07 462.431 171.67C461.08 170.286 460.339 168.675 460.209 166.836C459.965 163.841 460.868 161.09 462.919 158.584C464.97 156.077 468.046 153.994 472.147 152.334C472.636 152.122 472.969 152.188 473.148 152.529C473.344 152.855 473.319 153.188 473.075 153.53C469.25 155.809 466.581 157.803 465.067 159.512C463.554 161.221 462.756 163.28 462.675 165.688C462.593 168.097 464.042 169.798 467.021 170.791C471.024 171.702 474.556 170.938 477.616 168.496C480.676 166.071 482.849 163.044 484.135 159.414L484.184 159.097L485.136 153.994L485.697 147.354C486.12 143.48 486.283 140.77 486.186 139.224C486.251 138.621 486.755 138.231 487.699 138.052ZM497.123 157.827C496.505 157.746 496.09 157.656 495.878 157.559C495.666 157.461 495.471 157.306 495.292 157.095C495.113 156.867 494.999 156.615 494.95 156.338C494.901 156.045 494.885 155.711 494.901 155.337C494.918 154.963 495.023 154.124 495.219 152.822C495.414 151.52 495.561 150.503 495.658 149.771C495.756 149.022 495.845 148.346 495.927 147.744C496.024 147.142 496.138 146.182 496.269 144.863C496.236 144.066 495.967 143.7 495.463 143.765C494.975 143.83 494.6 144.155 494.34 144.741C493.721 145.946 493.38 146.857 493.314 147.476C493.249 148.078 493.168 148.818 493.07 149.697C492.973 150.576 492.859 151.414 492.729 152.212C492.615 153.009 492.509 153.799 492.411 154.58C492.33 155.345 492.297 156.004 492.313 156.558C492.33 157.095 492.419 157.575 492.582 157.998C492.761 158.421 492.997 158.771 493.29 159.048C493.583 159.308 493.965 159.536 494.438 159.731C494.91 159.91 495.805 160 497.123 160V157.827ZM509.379 145.62C510.876 145.604 511.698 146.377 511.845 147.939C512.007 149.502 511.129 151.268 509.208 153.237L507.108 155.142L505.692 156.558C507.336 157.957 506.433 158.413 502.982 157.925C501.225 158.95 499.955 159.569 499.174 159.78C498.393 159.976 497.668 160.041 497.001 159.976V157.803L497.782 157.729C499.345 157.404 500.215 156.842 500.395 156.045L498.954 153.872C498.629 153.27 498.498 152.79 498.563 152.432C498.58 151.406 500.354 149.754 503.886 147.476C506.229 146.092 508.061 145.474 509.379 145.62ZM501.566 152.651C501.566 153.726 502.022 154.45 502.934 154.824H503.373C504.854 154.45 506.685 153.066 508.866 150.674C509.354 150.055 509.477 149.323 509.232 148.477L508.988 148.184L508.72 148.135C507.287 148.314 505.66 148.997 503.837 150.186C502.323 151.292 501.566 152.114 501.566 152.651ZM525.541 154.946C526.046 154.474 526.509 154.279 526.933 154.36C527.356 154.425 527.616 154.792 527.714 155.459C527.649 156.143 527.372 156.908 526.884 157.754C526.412 158.584 525.728 159.772 524.833 161.318C523.938 162.865 521.732 164.468 518.217 166.128C515.792 166.519 515.482 165.876 517.289 164.199C518.689 163.027 519.877 162.067 520.854 161.318C521.83 160.586 522.685 159.504 523.417 158.071C524.149 156.639 524.857 155.597 525.541 154.946ZM533.427 149.307L533.964 149.551C534.631 150.202 535.144 151.04 535.502 152.065C535.876 153.075 536.047 154.092 536.015 155.117C535.982 156.126 535.583 157.16 534.818 158.218C534.053 159.276 533.101 160.195 531.962 160.977C530.839 161.758 529.496 162.425 527.934 162.979C526.16 163.19 525.842 162.596 526.981 161.196C528.837 159.976 530.294 158.893 531.352 157.949C532.426 157.005 533.077 156.045 533.305 155.068C533.533 154.076 533.419 153.123 532.963 152.212C532.523 151.3 532.279 150.617 532.23 150.161V149.795C532.491 149.323 532.89 149.16 533.427 149.307ZM552.543 157.827C551.924 157.746 551.509 157.656 551.298 157.559C551.086 157.461 550.891 157.306 550.712 157.095C550.533 156.867 550.419 156.615 550.37 156.338C550.321 156.045 550.305 155.711 550.321 155.337C550.338 154.963 550.443 154.124 550.639 152.822C550.834 151.52 550.98 150.503 551.078 149.771C551.176 149.022 551.265 148.346 551.347 147.744C551.444 147.142 551.558 146.182 551.688 144.863C551.656 144.066 551.387 143.7 550.883 143.765C550.395 143.83 550.02 144.155 549.76 144.741C549.141 145.946 548.799 146.857 548.734 147.476C548.669 148.078 548.588 148.818 548.49 149.697C548.393 150.576 548.279 151.414 548.148 152.212C548.035 153.009 547.929 153.799 547.831 154.58C547.75 155.345 547.717 156.004 547.733 156.558C547.75 157.095 547.839 157.575 548.002 157.998C548.181 158.421 548.417 158.771 548.71 159.048C549.003 159.308 549.385 159.536 549.857 159.731C550.329 159.91 551.225 160 552.543 160V157.827ZM552.421 157.778C552.877 157.762 553.308 157.689 553.715 157.559C554.122 157.428 554.691 157.062 555.424 156.46C554.268 155.858 553.65 155.166 553.568 154.385C553.503 153.587 553.568 152.92 553.764 152.383C553.975 151.846 554.366 151.284 554.936 150.698C555.521 150.112 556.205 149.86 556.986 149.941C557.784 150.007 558.402 150.275 558.842 150.747C559.281 151.203 559.582 152.025 559.745 153.213C559.729 154.287 559.517 155.312 559.11 156.289C558.703 157.266 557.759 158.136 556.278 158.901C554.797 159.666 553.52 160.033 552.445 160L552.421 157.778Z" fill="#CCCCCC"/>
</svg>
