<svg width="249" height="141" viewBox="0 0 249 141" fill="none" xmlns="http://www.w3.org/2000/svg">
<g clip-path="url(#clip0)">
<g filter="url(#filter0_d)">
<path d="M197.221 117.17L197.221 61.4873C197.221 59.0847 194.637 57.1365 191.451 57.1365L49.1633 57.1365C45.9772 57.1365 43.3936 59.0847 43.3936 61.4873L43.3936 117.17L197.221 117.17Z" fill="#597EF7"/>
</g>
<rect x="43.1221" y="113.779" width="154.04" height="3.48883" fill="#E4EBF7"/>
<path d="M81.9052 86.348C82.6185 86.115 83.2618 86.2125 83.8352 86.6405C84.4207 87.0566 85.2895 87.4577 86.4415 87.844L86.424 89.4157C85.4128 89.3682 84.4769 89.0446 83.6163 88.4448C82.7559 87.833 81.9316 88.3056 81.1433 89.8626C80.3551 91.4197 79.2701 93.124 77.8883 94.9756C76.5064 96.8392 75.0521 98.184 73.5252 99.0102C72.0103 99.8364 70.4752 100.319 68.9199 100.458C67.3644 100.61 65.9214 100.389 64.5911 99.7958C63.2485 99.2147 62.3592 98.4881 61.9233 97.616C61.4753 96.7438 61.3065 96.2179 61.4169 96.0385C61.5153 95.8589 61.8152 95.9707 62.3166 96.3737C64.1202 97.7309 66.0525 98.3607 68.1132 98.2632C70.162 98.1656 71.9145 97.6251 73.3709 96.6416C74.8393 95.6582 76.2344 94.2284 77.5562 92.3521C78.878 90.4758 79.755 89.0642 80.1871 88.1175C80.6314 87.1588 81.2041 86.569 81.9052 86.348ZM95.7018 78.8774C96.8099 78.8777 97.4118 79.4565 97.5073 80.6139C97.6148 81.7715 96.9499 83.0709 95.5125 84.5123L93.9431 85.9041L92.8837 86.9402C94.0885 87.9895 93.4163 88.3193 90.8671 87.9295C89.558 88.6737 88.6135 89.1209 88.0336 89.271C87.4539 89.4091 86.9175 89.4513 86.4242 89.3976L86.4422 87.7898L87.0208 87.742C88.1797 87.5141 88.8287 87.1057 88.9677 86.5171L87.9198 84.8974C87.6839 84.4491 87.5915 84.0927 87.6427 83.8283C87.6632 83.0697 88.9896 81.8619 91.6218 80.205C93.3675 79.2006 94.7275 78.7581 95.7018 78.8774ZM89.8629 84.0157C89.854 84.8106 90.1853 85.3503 90.8566 85.6348L91.1818 85.6384C92.2808 85.3736 93.6471 84.3651 95.2807 82.6127C95.6471 82.159 95.7435 81.6181 95.5698 80.9898L95.3916 80.771L95.1933 80.7327C94.132 80.8533 92.922 81.3457 91.5633 82.2098C90.4341 83.0163 89.8673 83.6183 89.8629 84.0157ZM100.323 75.9659L100.54 75.9683C101.406 76.0863 101.834 76.5789 101.825 77.4461L101.818 78.0061C101.69 81.9675 101.292 84.6732 100.626 86.1232C99.9592 87.5611 99.1469 88.5759 98.1887 89.1675L97.4814 89.4125L97.1223 89.2098L97.0874 89.101L97.0896 88.9023C97.8608 87.7907 98.4093 86.6706 98.7351 85.542C99.1328 84.4383 99.4322 82.9782 99.6331 81.1616C99.7397 80.2474 99.8726 78.5866 100.032 76.1794L100.323 75.9659ZM105.982 88.5859C106.287 88.2761 106.644 88.0995 107.054 88.0558C107.464 88.0002 107.922 88.0173 108.427 88.1073L108.409 89.6609C107.736 89.5811 107.233 89.8827 106.9 90.5655C106.579 91.2485 106.13 92.1228 105.552 93.1883C104.973 94.2659 103.377 95.4044 100.762 96.6039C98.964 96.8729 98.7405 96.3946 100.091 95.169C101.137 94.3135 102.024 93.6127 102.752 93.0668C103.481 92.5329 104.074 91.7686 104.531 90.774C104.987 89.7914 105.471 89.062 105.982 88.5859ZM111.868 69.5181L112.302 69.5229C113.007 70.0005 113.352 70.9138 113.337 72.2626C113.16 75.2117 112.654 77.9222 111.819 80.3942L111.475 80.4807C111.01 80.0178 110.783 79.3046 110.794 78.3411C110.802 77.6667 110.971 75.4884 111.301 71.8063L111.317 70.3069C111.321 69.9817 111.505 69.7188 111.868 69.5181ZM116.822 77.3604C117.929 77.445 118.506 78.0959 118.552 79.313L118.546 79.8549C118.527 81.6012 117.999 83.6008 116.962 85.8537C116.055 87.2288 115.099 88.1637 114.094 88.6583C113.101 89.1531 111.863 89.4585 110.38 89.5745C109.945 89.6419 109.259 89.6704 108.319 89.6599L108.337 88.0882C109.096 88.0726 109.638 88.0244 109.964 87.9438C110.303 87.8632 110.582 87.6857 110.801 87.4111L110.784 85.6945L111.11 83.9998C111.363 82.9667 111.943 81.6844 112.852 80.1527C114.039 78.4917 115.362 77.5609 116.822 77.3604ZM112.383 86.5073C112.404 86.7725 112.553 86.9187 112.83 86.9459C114.32 86.1916 115.375 84.9989 115.996 83.3677C116.589 81.9891 116.908 80.9267 116.953 80.1804C116.863 79.5892 116.601 79.2912 116.168 79.2864C115.493 79.2788 114.781 79.9695 114.031 81.3583C113.687 81.9808 113.308 82.9523 112.896 84.2726C112.686 84.7882 112.515 85.5331 112.383 86.5073ZM132.619 76.7597C133.784 76.038 135.131 75.6856 136.66 75.7027C136.997 75.7065 137.298 75.7279 137.563 75.767C137.827 75.8061 138.062 75.8629 138.266 75.9374L138.248 75.9372C138.883 76.1611 139.2 76.3935 139.197 76.6344C139.193 76.9957 138.751 77.1895 137.872 77.2158C137.402 77.2347 136.908 77.2532 136.39 77.2716C135.884 77.278 135.383 77.3567 134.887 77.5077C134.428 77.6351 133.877 77.9421 133.233 78.4288L133.233 78.4107C133.136 78.4578 133.046 78.4869 132.961 78.498C132.877 78.5091 132.792 78.5142 132.708 78.5133C132.106 78.5066 131.808 78.2623 131.813 77.7806C131.817 77.4434 132.086 77.1031 132.619 76.7597ZM146.85 83.8203C147.808 83.2528 148.086 83.6594 147.686 85.0401C146.895 85.754 146.348 86.2116 146.044 86.413C145.741 86.6144 145.207 86.9758 144.442 87.4973C143.69 88.0068 142.726 88.5863 141.55 89.2356C140.375 89.8729 138.833 90.4219 136.924 90.8824C135.016 91.3429 133.057 91.4716 131.048 91.2685C129.039 91.0654 127.539 90.585 126.547 89.8271C125.568 89.0694 124.94 88.1831 124.662 87.1682C124.384 86.1533 124.419 85.16 124.767 84.1882C125.128 83.2166 125.642 82.4816 126.31 81.9831C127.329 81.2839 127.659 81.4321 127.298 82.4278C126.432 83.4179 126.118 84.5767 126.356 85.9043C126.607 87.22 127.548 88.152 129.18 88.7001C130.812 89.2363 132.942 89.3685 135.571 89.0967C138.212 88.825 140.582 88.0083 142.681 86.6465C144.561 85.5232 145.95 84.5811 146.85 83.8203ZM153.627 88.5573C153.17 88.492 152.863 88.4223 152.708 88.3483C152.552 88.2743 152.409 88.1583 152.278 88.0002C152.147 87.8301 152.065 87.6425 152.031 87.4374C151.998 87.2202 151.988 86.9732 152.003 86.6963C152.018 86.4194 152.104 85.8001 152.259 84.8382C152.414 83.8763 152.531 83.1248 152.609 82.5837C152.688 82.0305 152.76 81.5314 152.825 81.0865C152.902 80.6417 152.994 79.932 153.101 78.9576C153.084 78.3672 152.888 78.094 152.514 78.138C152.153 78.1821 151.873 78.4199 151.675 78.8513C151.208 79.7375 150.947 80.4091 150.894 80.8662C150.841 81.3113 150.775 81.8586 150.695 82.5081C150.615 83.1577 150.524 83.777 150.421 84.366C150.33 84.9552 150.246 85.5384 150.167 86.1157C150.1 86.6811 150.071 87.1686 150.078 87.5782C150.086 87.9758 150.148 88.3318 150.265 88.6463C150.394 88.9609 150.566 89.2218 150.78 89.4289C150.995 89.624 151.276 89.7958 151.624 89.9442C151.972 90.0806 152.633 90.1542 153.609 90.1651L153.627 88.5573ZM153.537 88.5202C153.874 88.5119 154.194 88.4612 154.496 88.3683C154.798 88.2753 155.223 88.009 155.77 87.5694C154.92 87.1143 154.468 86.5973 154.414 86.0186C154.372 85.4279 154.426 84.9346 154.575 84.5388C154.736 84.1431 155.03 83.7309 155.456 83.302C155.894 82.8733 156.402 82.6922 156.98 82.7589C157.569 82.8137 158.025 83.0175 158.346 83.3704C158.667 83.7112 158.883 84.3219 158.994 85.2024C158.973 85.9972 158.808 86.7541 158.499 87.4734C158.19 88.1927 157.484 88.8292 156.382 89.383C155.28 89.9368 154.331 90.1973 153.537 90.1643L153.537 88.5202ZM166.044 84.8836C166.005 85.124 165.971 85.5272 165.94 86.0929C165.91 86.6587 166.03 87.2021 166.301 87.723C166.585 88.2321 167.213 88.5643 168.187 88.7197L168.169 90.3456C166.736 90.3296 165.776 90.0118 165.289 89.392C164.802 88.7603 164.622 88.2102 164.747 87.7418C164.254 88.7481 163.605 89.6864 162.801 90.5567C162.08 91.5002 161.297 92.0576 160.451 92.2289C158.785 92.5837 158.41 92.182 159.327 91.0239C160.589 90.1105 161.478 89.2592 161.993 88.47C162.52 87.6809 163.196 86.4538 164.021 84.7887L164.168 84.5736C164.536 84.0116 164.918 83.7629 165.315 83.8275C165.712 83.8922 165.955 84.2442 166.044 84.8836ZM173.081 71.1043C173.071 70.9717 173.066 70.8512 173.067 70.7428C173.081 70.6225 173.112 70.5084 173.162 70.4005C173.223 70.2808 173.267 70.1668 173.292 70.0587C173.329 69.9387 173.331 69.8182 173.296 69.6974C173.261 69.5766 173.202 69.4795 173.118 69.4063C173.047 69.3212 172.934 69.2417 172.778 69.1677C172.634 69.0818 172.466 69.0377 172.273 69.0356C172.093 69.0336 171.918 69.0617 171.748 69.12C171.579 69.1784 171.428 69.267 171.294 69.386C171.172 69.5051 171.068 69.6545 170.982 69.8342C170.895 70.0139 170.833 70.1939 170.795 70.3741C170.769 70.5545 170.767 70.7292 170.789 70.898C170.824 71.055 170.894 71.2244 171 71.4063C171.107 71.5761 171.226 71.7099 171.357 71.8077C171.489 71.8935 171.662 71.9798 171.878 72.0665C172.106 72.1534 172.316 72.1918 172.509 72.1819C172.714 72.1601 172.859 72.1196 172.944 72.0603C173.041 72.0012 173.114 71.9177 173.164 71.8098C173.225 71.7021 173.262 71.6242 173.275 71.5762C173.288 71.5161 173.264 71.4556 173.205 71.3947C173.145 71.3338 173.104 71.237 173.081 71.1043ZM177.321 79.7878C178.429 79.7882 179.031 80.367 179.126 81.5244C179.234 82.6819 178.569 83.9814 177.131 85.4228L175.562 86.8146L174.503 87.8507C175.707 88.9 175.035 89.2297 172.486 88.84C171.177 89.5842 170.232 90.0314 169.653 90.1815C169.073 90.3196 168.536 90.3617 168.043 90.3081L168.061 88.7003L168.64 88.6525C169.799 88.4245 170.448 88.0162 170.587 87.4276L169.539 85.8079C169.303 85.3596 169.21 85.0032 169.262 84.7388C169.282 83.9802 170.608 82.7724 173.241 81.1155C174.986 80.1111 176.346 79.6686 177.321 79.7878ZM171.482 84.9262C171.473 85.721 171.804 86.2607 172.476 86.5453L172.801 86.5489C173.9 86.2841 175.266 85.2755 176.9 83.5231C177.266 83.0695 177.362 82.5286 177.189 81.9003L177.011 81.6815L176.812 81.6431C175.751 81.7638 174.541 82.2562 173.182 83.1203C172.053 83.9268 171.486 84.5287 171.482 84.9262Z" fill="white"/>
<g filter="url(#filter1_d)">
<path d="M20.3342 118.676L23.1948 118.656C23.82 118.653 24.325 118.264 24.3177 117.793C24.3123 117.319 23.7993 116.94 23.1718 116.944L20.311 116.964C19.6836 116.968 19.1804 117.355 19.1858 117.828C19.1884 117.878 19.1934 117.928 19.2053 117.977C19.303 118.378 19.7712 118.68 20.3342 118.676Z" fill="black"/>
</g>
<g filter="url(#filter2_d)">
<path d="M134.877 121.867C137.204 121.853 139.072 120.416 139.05 118.661L139.007 115.13C138.983 113.376 137.082 111.967 134.756 111.985L36.4614 112.676L36.5834 122.56L134.877 121.867Z" fill="#313C40"/>
</g>
<g filter="url(#filter3_d)">
<path d="M23.2895 119.145L36.5831 122.562L36.4622 112.672L23.2457 116.436C22.9688 116.515 22.7839 116.718 22.7909 116.942L22.8122 118.648C22.8125 118.678 22.8174 118.708 22.8246 118.738C22.8701 118.924 23.0447 119.082 23.2895 119.145Z" fill="#E4EBF7"/>
</g>
<path d="M130.012 111.507L130.571 115.072C130.635 115.48 131.072 115.797 131.614 115.829L137.518 116.178C138.147 116.217 138.696 115.861 138.746 115.386L139.111 111.876C139.16 111.4 138.691 110.986 138.061 110.948L131.235 110.544C130.895 110.524 130.56 110.62 130.322 110.807C130.251 110.864 130.189 110.929 130.141 110.996C130.031 111.152 129.984 111.328 130.012 111.507Z" fill="#FF7946"/>
<g filter="url(#filter4_d)">
<path d="M151.704 120.791L225.561 125.163L226.93 112.012L153.073 107.641L151.704 120.791Z" fill="#FF7946"/>
</g>
<g filter="url(#filter5_d)">
<path d="M151.704 120.791L158.169 121.173L159.54 108.023L153.073 107.641L151.704 120.791Z" fill="#253368"/>
</g>
<g filter="url(#filter6_d)">
<path d="M136.324 116.309L147.724 120.553L151.704 120.791L153.073 107.64L149.124 107.406L136.911 110.662L136.324 116.309Z" fill="#E4EBF7"/>
</g>
<g filter="url(#filter7_d)">
<path d="M147.779 120.58L151.757 120.815L153.123 107.666L149.147 107.431L147.779 120.58Z" fill="#F5F5F5"/>
</g>
<g filter="url(#filter8_d)">
<path d="M225.601 125.169L229.63 125.352L230.997 112.202L226.962 112.035L225.601 125.169Z" fill="#F5F5F5"/>
</g>
<g filter="url(#filter9_d)">
<g clip-path="url(#clip1)">
<rect width="37.4665" height="40.6433" rx="7" transform="matrix(0.932102 -0.362197 0.362446 0.932005 94.4902 21.8633)" fill="#4B4B4B"/>
<path d="M127.532 37.9148C130.746 36.6657 132.34 33.0506 131.092 29.8402C129.843 26.6299 126.225 25.04 123.011 26.2891C119.796 27.5382 118.203 31.1533 119.451 34.3636C120.699 37.574 124.317 39.1639 127.532 37.9148Z" fill="#19BCFE"/>
<path fill-rule="evenodd" clip-rule="evenodd" d="M120.412 54.0652C121.956 53.4653 123.198 52.2776 123.865 50.7633C124.533 49.2491 124.571 47.5323 123.972 45.9906L121.711 40.1778L115.891 42.4395C114.347 43.0393 113.105 44.227 112.437 45.7413C111.77 47.2555 111.731 48.9724 112.331 50.514C112.93 52.0557 114.119 53.2959 115.634 53.9619C117.15 54.6278 118.868 54.665 120.412 54.0652Z" fill="#09CF83"/>
<path fill-rule="evenodd" clip-rule="evenodd" d="M115.891 42.4382L121.712 40.1765L117.191 28.5508L111.37 30.8125C109.827 31.4124 108.584 32.6001 107.917 34.1143C107.249 35.6286 107.211 37.3454 107.81 38.8871C108.41 40.4287 109.598 41.669 111.114 42.3349C112.629 43.0009 114.348 43.038 115.891 42.4382Z" fill="#A259FF"/>
<path fill-rule="evenodd" clip-rule="evenodd" d="M111.371 30.8132L117.191 28.5515L112.67 16.9258L106.85 19.1875C105.306 19.7874 104.064 20.9751 103.396 22.4893C102.729 24.0036 102.69 25.7204 103.29 27.2621C103.889 28.8037 105.078 30.044 106.593 30.7099C108.109 31.3759 109.827 31.413 111.371 30.8132Z" fill="#F24E1E"/>
<path fill-rule="evenodd" clip-rule="evenodd" d="M123.011 26.2898L117.191 28.5515L112.67 16.9258L118.49 14.6641C120.034 14.0642 121.753 14.1014 123.268 14.7674C124.784 15.4333 125.972 16.6736 126.571 18.2152C127.171 19.7569 127.133 21.4737 126.465 22.988C125.797 24.5022 124.555 25.6899 123.011 26.2898Z" fill="#FF7262"/>
</g>
</g>
<g filter="url(#filter10_d)">
<path d="M143.945 14.168H186.094V55.8698H143.945V14.168Z" fill="#0C0824"/>
<path d="M143.944 14.1719H186.092V55.8737H143.944V14.1719ZM142.027 57.823H188.009V12.2227H142.027V57.823ZM173.027 30.9305C171.513 30.9305 170.996 31.7105 170.996 32.3536C170.996 33.0552 171.34 33.5429 173.372 34.6136C176.38 36.0952 177.313 37.5167 177.313 39.6029C177.313 42.7214 174.976 44.3968 171.815 44.3968C170.458 44.4479 169.11 44.1612 167.887 43.5616C167.752 43.5032 167.734 43.4063 167.734 43.2493V40.3813C167.734 40.1859 167.829 40.1274 167.964 40.226C169.113 40.9772 170.45 41.3761 171.815 41.3752C173.329 41.3752 173.961 40.7321 173.961 39.8551C173.961 39.1536 173.521 38.5306 171.585 37.5167C168.864 36.1921 167.734 34.8441 167.734 32.6059C167.734 30.092 169.669 28.0074 173.022 28.0074C174.189 27.9564 175.355 28.1421 176.451 28.5536C176.514 28.5953 176.565 28.6533 176.599 28.7217C176.633 28.7901 176.648 28.8664 176.643 28.9428V31.6153C176.643 31.7707 176.548 31.8692 176.356 31.8108C175.343 31.2176 174.191 30.9146 173.022 30.9338L173.027 30.9305ZM156.549 33.2489C156.989 33.2873 157.334 33.2874 158.101 33.2874C160.343 33.2874 162.45 32.4889 162.45 29.3904C162.45 26.915 160.936 25.6689 158.389 25.6689C157.622 25.6689 156.894 25.7073 156.549 25.7274V33.2489ZM153.138 22.8928C153.138 22.7558 153.406 22.659 153.56 22.659C155.207 22.5905 156.855 22.5582 158.503 22.5621C163.811 22.5621 165.88 25.5236 165.88 29.3053C165.88 34.2545 162.354 36.3792 158.026 36.3792C157.298 36.3792 157.048 36.3407 156.531 36.3407V43.8239C156.531 43.9792 156.474 44.0577 156.301 44.0577H153.37C153.217 44.0577 153.14 43.9993 153.14 43.8239V22.9012L153.138 22.8928Z" fill="#31C5F0"/>
</g>
<g filter="url(#filter11_d)">
<path d="M59.5117 26.2695H89.8291V55.7484H59.5117V26.2695Z" fill="#1C0A00"/>
<path d="M59.5127 26.2725H89.8301V55.7513H59.5127V26.2725ZM58.1318 57.1293H91.2062V24.8945H58.1318V57.1293ZM79.7955 36.3833C79.7955 36.2735 79.8369 36.218 79.9609 36.218H82.1249C82.2348 36.218 82.2903 36.2593 82.2903 36.3833V47.2522C82.2903 47.362 82.2631 47.4175 82.1249 47.4175H79.9904C79.8522 47.4175 79.8109 47.349 79.8109 47.238V36.3833H79.7967H79.7955ZM79.6443 33.2567C79.6443 32.884 79.7924 32.5266 80.056 32.2631C80.3197 31.9996 80.6772 31.8516 81.05 31.8516C81.4228 31.8516 81.7803 31.9996 82.044 32.2631C82.3076 32.5266 82.4557 32.884 82.4557 33.2567C82.4693 33.447 82.4413 33.6381 82.3738 33.8166C82.3062 33.9951 82.2006 34.1568 82.0643 34.2904C81.928 34.4241 81.7643 34.5265 81.5844 34.5906C81.4046 34.6548 81.213 34.679 81.0228 34.6618C80.8365 34.6735 80.6499 34.6449 80.4756 34.578C80.3014 34.5111 80.1436 34.4074 80.013 34.2741C79.8824 34.1408 79.7821 33.9809 79.7189 33.8053C79.6557 33.6297 79.6311 33.4426 79.6467 33.2567H79.6443ZM73.4429 40.9163C73.0566 39.3813 72.1436 36.0539 71.8034 34.4422H71.7762C71.4868 36.0539 70.7568 38.7814 70.178 40.9163H73.4429ZM69.6122 43.1479L68.5231 47.2806C68.4959 47.3904 68.4546 47.4187 68.3164 47.4187H66.2929C66.1547 47.4187 66.1276 47.3774 66.1547 47.2121L70.0681 33.5153C70.1634 33.1418 70.2098 32.7576 70.2063 32.3723C70.2063 32.2755 70.2477 32.2341 70.3162 32.2341H73.2102C73.3071 32.2341 73.3484 32.2613 73.3756 32.3723L77.7579 47.2357C77.7851 47.3455 77.7579 47.4152 77.6481 47.4152H75.36C75.2502 47.4152 75.1805 47.388 75.1533 47.2971L74.0229 43.1503H69.6134L69.6122 43.1479Z" fill="#FF7F18"/>
</g>
</g>
<defs>
<filter id="filter0_d" x="39.3936" y="57.1367" width="161.827" height="68.0334" filterUnits="userSpaceOnUse" color-interpolation-filters="sRGB">
<feFlood flood-opacity="0" result="BackgroundImageFix"/>
<feColorMatrix in="SourceAlpha" type="matrix" values="0 0 0 0 0 0 0 0 0 0 0 0 0 0 0 0 0 0 127 0"/>
<feOffset dy="4"/>
<feGaussianBlur stdDeviation="2"/>
<feColorMatrix type="matrix" values="0 0 0 0 0 0 0 0 0 0 0 0 0 0 0 0 0 0 0.25 0"/>
<feBlend mode="normal" in2="BackgroundImageFix" result="effect1_dropShadow"/>
<feBlend mode="normal" in="SourceGraphic" in2="effect1_dropShadow" result="shape"/>
</filter>
<filter id="filter1_d" x="9.18555" y="112.943" width="25.132" height="21.7324" filterUnits="userSpaceOnUse" color-interpolation-filters="sRGB">
<feFlood flood-opacity="0" result="BackgroundImageFix"/>
<feColorMatrix in="SourceAlpha" type="matrix" values="0 0 0 0 0 0 0 0 0 0 0 0 0 0 0 0 0 0 127 0"/>
<feOffset dy="6"/>
<feGaussianBlur stdDeviation="5"/>
<feColorMatrix type="matrix" values="0 0 0 0 0 0 0 0 0 0 0 0 0 0 0 0 0 0 0.15 0"/>
<feBlend mode="normal" in2="BackgroundImageFix" result="effect1_dropShadow"/>
<feBlend mode="normal" in="SourceGraphic" in2="effect1_dropShadow" result="shape"/>
</filter>
<filter id="filter2_d" x="26.4609" y="107.984" width="122.589" height="30.5752" filterUnits="userSpaceOnUse" color-interpolation-filters="sRGB">
<feFlood flood-opacity="0" result="BackgroundImageFix"/>
<feColorMatrix in="SourceAlpha" type="matrix" values="0 0 0 0 0 0 0 0 0 0 0 0 0 0 0 0 0 0 127 0"/>
<feOffset dy="6"/>
<feGaussianBlur stdDeviation="5"/>
<feColorMatrix type="matrix" values="0 0 0 0 0 0 0 0 0 0 0 0 0 0 0 0 0 0 0.15 0"/>
<feBlend mode="normal" in2="BackgroundImageFix" result="effect1_dropShadow"/>
<feBlend mode="normal" in="SourceGraphic" in2="effect1_dropShadow" result="shape"/>
</filter>
<filter id="filter3_d" x="12.791" y="108.672" width="33.7924" height="29.8896" filterUnits="userSpaceOnUse" color-interpolation-filters="sRGB">
<feFlood flood-opacity="0" result="BackgroundImageFix"/>
<feColorMatrix in="SourceAlpha" type="matrix" values="0 0 0 0 0 0 0 0 0 0 0 0 0 0 0 0 0 0 127 0"/>
<feOffset dy="6"/>
<feGaussianBlur stdDeviation="5"/>
<feColorMatrix type="matrix" values="0 0 0 0 0 0 0 0 0 0 0 0 0 0 0 0 0 0 0.15 0"/>
<feBlend mode="normal" in2="BackgroundImageFix" result="effect1_dropShadow"/>
<feBlend mode="normal" in="SourceGraphic" in2="effect1_dropShadow" result="shape"/>
</filter>
<filter id="filter4_d" x="141.704" y="103.641" width="95.2261" height="37.5217" filterUnits="userSpaceOnUse" color-interpolation-filters="sRGB">
<feFlood flood-opacity="0" result="BackgroundImageFix"/>
<feColorMatrix in="SourceAlpha" type="matrix" values="0 0 0 0 0 0 0 0 0 0 0 0 0 0 0 0 0 0 127 0"/>
<feOffset dy="6"/>
<feGaussianBlur stdDeviation="5"/>
<feColorMatrix type="matrix" values="0 0 0 0 0 0 0 0 0 0 0 0 0 0 0 0 0 0 0.15 0"/>
<feBlend mode="normal" in2="BackgroundImageFix" result="effect1_dropShadow"/>
<feBlend mode="normal" in="SourceGraphic" in2="effect1_dropShadow" result="shape"/>
</filter>
<filter id="filter5_d" x="141.704" y="103.641" width="27.8358" height="33.5317" filterUnits="userSpaceOnUse" color-interpolation-filters="sRGB">
<feFlood flood-opacity="0" result="BackgroundImageFix"/>
<feColorMatrix in="SourceAlpha" type="matrix" values="0 0 0 0 0 0 0 0 0 0 0 0 0 0 0 0 0 0 127 0"/>
<feOffset dy="6"/>
<feGaussianBlur stdDeviation="5"/>
<feColorMatrix type="matrix" values="0 0 0 0 0 0 0 0 0 0 0 0 0 0 0 0 0 0 0.15 0"/>
<feBlend mode="normal" in2="BackgroundImageFix" result="effect1_dropShadow"/>
<feBlend mode="normal" in="SourceGraphic" in2="effect1_dropShadow" result="shape"/>
</filter>
<filter id="filter6_d" x="126.324" y="103.406" width="36.7488" height="33.3842" filterUnits="userSpaceOnUse" color-interpolation-filters="sRGB">
<feFlood flood-opacity="0" result="BackgroundImageFix"/>
<feColorMatrix in="SourceAlpha" type="matrix" values="0 0 0 0 0 0 0 0 0 0 0 0 0 0 0 0 0 0 127 0"/>
<feOffset dy="6"/>
<feGaussianBlur stdDeviation="5"/>
<feColorMatrix type="matrix" values="0 0 0 0 0 0 0 0 0 0 0 0 0 0 0 0 0 0 0.15 0"/>
<feBlend mode="normal" in2="BackgroundImageFix" result="effect1_dropShadow"/>
<feBlend mode="normal" in="SourceGraphic" in2="effect1_dropShadow" result="shape"/>
</filter>
<filter id="filter7_d" x="137.779" y="103.432" width="25.3444" height="33.3841" filterUnits="userSpaceOnUse" color-interpolation-filters="sRGB">
<feFlood flood-opacity="0" result="BackgroundImageFix"/>
<feColorMatrix in="SourceAlpha" type="matrix" values="0 0 0 0 0 0 0 0 0 0 0 0 0 0 0 0 0 0 127 0"/>
<feOffset dy="6"/>
<feGaussianBlur stdDeviation="5"/>
<feColorMatrix type="matrix" values="0 0 0 0 0 0 0 0 0 0 0 0 0 0 0 0 0 0 0.15 0"/>
<feBlend mode="normal" in2="BackgroundImageFix" result="effect1_dropShadow"/>
<feBlend mode="normal" in="SourceGraphic" in2="effect1_dropShadow" result="shape"/>
</filter>
<filter id="filter8_d" x="215.602" y="108.035" width="25.3955" height="33.3175" filterUnits="userSpaceOnUse" color-interpolation-filters="sRGB">
<feFlood flood-opacity="0" result="BackgroundImageFix"/>
<feColorMatrix in="SourceAlpha" type="matrix" values="0 0 0 0 0 0 0 0 0 0 0 0 0 0 0 0 0 0 127 0"/>
<feOffset dy="6"/>
<feGaussianBlur stdDeviation="5"/>
<feColorMatrix type="matrix" values="0 0 0 0 0 0 0 0 0 0 0 0 0 0 0 0 0 0 0.15 0"/>
<feBlend mode="normal" in2="BackgroundImageFix" result="effect1_dropShadow"/>
<feBlend mode="normal" in="SourceGraphic" in2="effect1_dropShadow" result="shape"/>
</filter>
<filter id="filter9_d" x="89.4902" y="6.29297" width="59.6536" height="61.45" filterUnits="userSpaceOnUse" color-interpolation-filters="sRGB">
<feFlood flood-opacity="0" result="BackgroundImageFix"/>
<feColorMatrix in="SourceAlpha" type="matrix" values="0 0 0 0 0 0 0 0 0 0 0 0 0 0 0 0 0 0 127 0"/>
<feOffset dy="3"/>
<feGaussianBlur stdDeviation="2.5"/>
<feColorMatrix type="matrix" values="0 0 0 0 0 0 0 0 0 0 0 0 0 0 0 0 0 0 0.25 0"/>
<feBlend mode="normal" in2="BackgroundImageFix" result="effect1_dropShadow"/>
<feBlend mode="normal" in="SourceGraphic" in2="effect1_dropShadow" result="shape"/>
</filter>
<filter id="filter10_d" x="133.743" y="6.29492" width="62.5502" height="63.451" filterUnits="userSpaceOnUse" color-interpolation-filters="sRGB">
<feFlood flood-opacity="0" result="BackgroundImageFix"/>
<feColorMatrix in="SourceAlpha" type="matrix" values="0 0 0 0 0 0 0 0 0 0 0 0 0 0 0 0 0 0 127 0"/>
<feOffset dy="3"/>
<feGaussianBlur stdDeviation="2.5"/>
<feColorMatrix type="matrix" values="0 0 0 0 0 0 0 0 0 0 0 0 0 0 0 0 0 0 0.25 0"/>
<feBlend mode="normal" in2="BackgroundImageFix" result="effect1_dropShadow"/>
<feBlend mode="normal" in="SourceGraphic" in2="effect1_dropShadow" result="shape"/>
</filter>
<filter id="filter11_d" x="50.7695" y="20.1172" width="47.7993" height="47.7843" filterUnits="userSpaceOnUse" color-interpolation-filters="sRGB">
<feFlood flood-opacity="0" result="BackgroundImageFix"/>
<feColorMatrix in="SourceAlpha" type="matrix" values="0 0 0 0 0 0 0 0 0 0 0 0 0 0 0 0 0 0 127 0"/>
<feOffset dy="3"/>
<feGaussianBlur stdDeviation="2.5"/>
<feColorMatrix type="matrix" values="0 0 0 0 0 0 0 0 0 0 0 0 0 0 0 0 0 0 0.25 0"/>
<feBlend mode="normal" in2="BackgroundImageFix" result="effect1_dropShadow"/>
<feBlend mode="normal" in="SourceGraphic" in2="effect1_dropShadow" result="shape"/>
</filter>
<clipPath id="clip0">
<rect width="249" height="141" fill="white"/>
</clipPath>
<clipPath id="clip1">
<rect width="37.4665" height="40.6433" rx="7" transform="matrix(0.932102 -0.362197 0.362446 0.932005 94.4902 21.8633)" fill="white"/>
</clipPath>
</defs>
</svg>
