<svg width="249" height="183" viewBox="0 0 249 183" fill="none" xmlns="http://www.w3.org/2000/svg">
<g filter="url(#filter0_d)">
<path fill-rule="evenodd" clip-rule="evenodd" d="M209.94 24.844H44.8203V13.4557C44.8203 10.9853 46.8312 8.98242 49.3114 8.98242H205.449C207.929 8.98242 209.94 10.9853 209.94 13.4557V24.844Z" fill="#253368"/>
<path fill-rule="evenodd" clip-rule="evenodd" d="M56.3998 16.4304C56.3998 17.9808 55.1458 19.2378 53.5986 19.2378C52.0518 19.2378 50.7979 17.9808 50.7979 16.4304C50.7979 14.8801 52.0518 13.623 53.5986 13.623C55.1458 13.623 56.3998 14.8801 56.3998 16.4304Z" fill="#FF7946"/>
<path fill-rule="evenodd" clip-rule="evenodd" d="M66.8567 16.4304C66.8567 17.9808 65.6027 19.2378 64.0557 19.2378C62.5089 19.2378 61.2549 17.9808 61.2549 16.4304C61.2549 14.8801 62.5089 13.623 64.0557 13.623C65.6027 13.623 66.8567 14.8801 66.8567 16.4304Z" fill="#FAAD14"/>
<path fill-rule="evenodd" clip-rule="evenodd" d="M77.3147 16.4304C77.3147 17.9808 76.0607 19.2378 74.5137 19.2378C72.9669 19.2378 71.7129 17.9808 71.7129 16.4304C71.7129 14.8801 72.9669 13.623 74.5137 13.623C76.0607 13.623 77.3147 14.8801 77.3147 16.4304Z" fill="#7CB305"/>
<path fill-rule="evenodd" clip-rule="evenodd" d="M49.8217 134.276C47.0597 134.276 44.8203 132.276 44.8203 129.808V23.4414H209.949V129.808C209.949 132.276 207.709 134.276 204.947 134.276H49.8217Z" fill="#E4E9F2"/>
<path d="M196.88 32.5938H101.263C100.162 32.5938 99.2695 33.4861 99.2695 34.5869V123.794C99.2695 124.895 100.162 125.788 101.263 125.788H196.88C197.98 125.788 198.873 124.895 198.873 123.794V34.5869C198.873 33.4861 197.98 32.5938 196.88 32.5938Z" fill="white"/>
<path d="M89.9735 32.4277H57.4383C56.3376 32.4277 55.4453 33.3201 55.4453 34.4208V123.628C55.4453 124.729 56.3376 125.621 57.4383 125.621H89.9735C91.0742 125.621 91.9665 124.729 91.9665 123.628V34.4208C91.9665 33.3201 91.0742 32.4277 89.9735 32.4277Z" fill="white"/>
<path d="M82.8028 61.8906H64.5451C63.92 61.8906 63.4131 62.3974 63.4131 63.0227V65.8228C63.4131 66.448 63.92 66.9549 64.5451 66.9549H82.8028C83.4281 66.9549 83.9348 66.448 83.9348 65.8228V63.0227C83.9348 62.3974 83.4281 61.8906 82.8028 61.8906Z" fill="#ADC6FF"/>
<path d="M82.82 71.709H64.5281C63.9122 71.709 63.4131 72.2081 63.4131 72.8239V75.505C63.4131 76.1208 63.9122 76.6201 64.5281 76.6201H82.82C83.4357 76.6201 83.9348 76.1208 83.9348 75.505V72.8239C83.9348 72.2081 83.4357 71.709 82.82 71.709Z" fill="#FF7946"/>
<path d="M82.82 81.3633H64.5281C63.9122 81.3633 63.4131 81.8624 63.4131 82.4783V85.1593C63.4131 85.7752 63.9122 86.2744 64.5281 86.2744H82.82C83.4357 86.2744 83.9348 85.7752 83.9348 85.1593V82.4783C83.9348 81.8624 83.4357 81.3633 82.82 81.3633Z" fill="#FAAD14"/>
<path d="M167.664 101.934H110.559C109.825 101.934 109.23 102.529 109.23 103.262V103.268C109.23 104.001 109.825 104.596 110.559 104.596H167.664C168.397 104.596 168.992 104.001 168.992 103.268V103.262C168.992 102.529 168.397 101.934 167.664 101.934Z" fill="#ADC6FF"/>
<path d="M167.664 115.578H110.559C109.825 115.578 109.23 116.173 109.23 116.907V116.912C109.23 117.646 109.825 118.241 110.559 118.241H167.664C168.397 118.241 168.992 117.646 168.992 116.912V116.907C168.992 116.173 168.397 115.578 167.664 115.578Z" fill="#ADC6FF"/>
<path d="M187.584 108.592H110.559C109.825 108.592 109.23 109.187 109.23 109.921V109.926C109.23 110.66 109.825 111.255 110.559 111.255H187.584C188.318 111.255 188.913 110.66 188.913 109.926V109.921C188.913 109.187 188.318 108.592 187.584 108.592Z" fill="#ADC6FF"/>
<path d="M73.6719 58.6804C78.7347 58.6804 82.8389 54.5293 82.8389 49.4086C82.8389 44.2879 78.7347 40.1367 73.6719 40.1367C68.609 40.1367 64.5049 44.2879 64.5049 49.4086C64.5049 54.5293 68.609 58.6804 73.6719 58.6804Z" fill="#FAAD14"/>
<path d="M73.6726 58.6781C76.3148 58.6795 78.8222 57.499 80.5221 55.4532C79.1827 52.8815 76.5452 51.2715 73.6711 51.2715C70.7972 51.2715 68.1597 52.8815 66.8203 55.4532C68.521 57.4994 71.0296 58.6801 73.6726 58.6781Z" fill="#253368"/>
<path d="M73.7221 51.6422C75.6261 51.6422 77.1698 50.0809 77.1698 48.1551C77.1698 46.2292 75.6261 44.668 73.7221 44.668C71.818 44.668 70.2744 46.2292 70.2744 48.1551C70.2744 50.0809 71.818 51.6422 73.7221 51.6422Z" fill="#253368"/>
<path d="M186.365 40H112.634C111.179 40 110 42.3437 110 45.2345V93.7659C110 96.6567 111.179 99 112.634 99H186.365C187.821 99 189 96.6567 189 93.7659V45.2345C189 42.3437 187.821 40 186.365 40Z" fill="#597EF7"/>
<path fill-rule="evenodd" clip-rule="evenodd" d="M46.5384 113.036C42.091 113.036 38.4855 109.43 38.4855 104.983C38.4855 100.535 42.091 96.929 46.5384 96.929C50.986 96.929 54.5914 100.535 54.5914 104.983C54.5914 109.43 50.986 113.036 46.5384 113.036ZM70.7068 108.626V101.339L64.9647 99.8804C64.5436 98.3557 63.9385 96.9076 63.1746 95.5614L66.2039 90.4678L61.0522 85.3157L55.9589 88.3453C54.6127 87.5812 53.1648 86.9761 51.6403 86.555L50.1812 80.8125H42.8956L41.4366 86.555C39.9121 86.9761 38.4641 87.5812 37.1179 88.3453L32.0247 85.3157L26.873 90.4678L29.9023 95.5614C29.1384 96.9076 28.5333 98.3558 28.1121 99.8804L22.3701 101.339V108.626L28.1121 110.085C28.5333 111.609 29.1384 113.057 29.9023 114.404L26.873 119.497L32.0247 124.649L37.1179 121.62C38.4641 122.384 39.9121 122.989 41.4366 123.41L42.8956 129.153H50.1812L51.6403 123.41C53.1648 122.989 54.6127 122.384 55.9589 121.62L61.0522 124.649L66.2039 119.497L63.1746 114.404C63.9385 113.057 64.5436 111.609 64.9647 110.085L70.7068 108.626Z" fill="#597EF7"/>
<path fill-rule="evenodd" clip-rule="evenodd" d="M82.7307 143.062C78.5988 143.062 75.2492 139.712 75.2492 135.58C75.2492 131.448 78.5988 128.098 82.7307 128.098C86.8627 128.098 90.2124 131.448 90.2124 135.58C90.2124 139.712 86.8627 143.062 82.7307 143.062ZM105.184 138.964V132.195L99.8496 130.84C99.4584 129.423 98.8963 128.078 98.1866 126.827L101.001 122.095L96.2147 117.309L91.4828 120.123C90.2321 119.413 88.8869 118.851 87.4705 118.46L86.1151 113.125H79.3464L77.991 118.46C76.5746 118.851 75.2294 119.413 73.9786 120.123L69.2469 117.309L64.4607 122.095L67.275 126.827C66.5652 128.078 66.0031 129.423 65.6119 130.84L60.2773 132.195V138.964L65.6119 140.32C66.0031 141.737 66.5652 143.082 67.275 144.333L64.4607 149.065L69.2469 153.851L73.9786 151.037C75.2294 151.747 76.5746 152.309 77.991 152.7L79.3464 158.035H86.1151L87.4705 152.7C88.8869 152.309 90.2321 151.747 91.4828 151.037L96.2147 153.851L101.001 149.065L98.1866 144.333C98.8963 143.082 99.4584 141.737 99.8496 140.32L105.184 138.964Z" fill="#253368"/>
<path fill-rule="evenodd" clip-rule="evenodd" d="M85.1517 102.805L76.2776 101.091L85.6652 90.4449C84.8283 90.3109 83.9703 90.2402 83.0956 90.2402C74.1874 90.2402 66.9658 97.4623 66.9658 106.371C66.9658 115.28 74.1874 122.502 83.0956 122.502C92.0039 122.502 99.2255 115.28 99.2255 106.371C99.2255 105.744 99.1885 105.126 99.1189 104.517L85.1517 102.805Z" fill="#A3B5D6"/>
<path fill-rule="evenodd" clip-rule="evenodd" d="M85.1529 102.806L68.4624 99.5835C67.5034 101.647 66.967 103.947 66.967 106.372C66.967 108.556 67.4018 110.638 68.1879 112.537L32.3924 145.746C30.2101 152.621 36.7946 159.046 43.613 156.695L44.0886 156.531L77.0505 121.33C78.9178 122.086 80.9585 122.503 83.0968 122.503C92.0051 122.503 99.2266 115.281 99.2266 106.372C99.2266 101.534 97.0957 97.1929 93.7217 94.2363L85.1529 102.806Z" fill="#CCD7EE"/>
<path fill-rule="evenodd" clip-rule="evenodd" d="M68.156 124.693L64.6465 121.184L68.156 117.674L71.6656 121.184L68.156 124.693Z" fill="#A3B5D6"/>
<g clip-path="url(#clip0)">
<path fill-rule="evenodd" clip-rule="evenodd" d="M203.464 78.3166C198.534 80.956 196.678 87.0921 199.317 92.0218C201.957 96.9516 208.093 98.8083 213.022 96.1689C217.952 93.5294 219.809 87.3934 217.169 82.4636C214.53 77.5339 208.394 75.6772 203.464 78.3166Z" fill="#597EF7"/>
<path fill-rule="evenodd" clip-rule="evenodd" d="M208.476 82.6129C209.171 82.7829 209.721 83.2319 210.108 83.9543C210.424 84.5443 210.531 85.1218 210.449 85.6618C210.411 85.8522 210.242 86.3458 209.928 87.1488C209.815 87.4575 209.756 87.7525 209.763 88.0272C209.76 88.3389 209.841 88.636 210.002 88.9371L210.155 89.2228C210.219 89.3421 210.174 89.4907 210.055 89.5546L209.199 90.013C209.08 90.0769 208.931 90.0319 208.867 89.9125L208.714 89.6268C208.476 89.1813 208.342 88.7573 208.331 88.3605C208.319 87.9331 208.512 87.1945 208.904 86.1326L208.986 85.7943C209.054 85.4013 209.008 85.0543 208.84 84.7413C208.615 84.3199 208.32 84.0593 207.963 83.9409C207.593 83.829 207.191 83.8891 206.758 84.1212C206.216 84.4113 205.909 84.7926 205.849 85.2586C205.795 85.6106 205.876 86.0188 206.085 86.4673C206.139 86.5847 206.092 86.7242 205.978 86.7853L205.133 87.2374C205.01 87.3034 204.855 87.2533 204.796 87.1268C204.423 86.3338 204.348 85.5871 204.573 84.8727C204.802 84.0842 205.365 83.4575 206.244 82.9869C207.026 82.5678 207.762 82.4373 208.476 82.6129Z" fill="white"/>
<path fill-rule="evenodd" clip-rule="evenodd" d="M210.782 91.6883L210.464 91.859C210.2 92.0004 209.871 91.9009 209.729 91.6368L209.559 91.318C209.417 91.0539 209.517 90.7252 209.781 90.5838L210.1 90.4131C210.364 90.2717 210.693 90.3712 210.834 90.6353L211.005 90.9541C211.146 91.2182 211.047 91.5469 210.782 91.6883Z" fill="white"/>
</g>
<path fill-rule="evenodd" clip-rule="evenodd" d="M199.03 128.029C193.002 128.029 188.114 132.917 188.114 138.946V138.974C188.114 145.003 193.002 149.891 199.03 149.891H215.128C215.729 149.891 216.319 149.842 216.894 149.748L220.013 152.761C220.098 152.843 220.211 152.889 220.329 152.889C220.58 152.889 220.784 152.685 220.784 152.434L220.784 148.313C223.937 146.399 226.044 142.932 226.044 138.974V138.946C226.044 132.917 221.157 128.029 215.128 128.029H199.03Z" fill="#253368"/>
<path d="M201.677 101.875H178.692C170.079 101.875 163.098 108.857 163.098 117.47C163.098 126.083 170.079 133.066 178.692 133.066H201.677C210.29 133.066 217.272 126.083 217.272 117.47C217.272 108.857 210.29 101.875 201.677 101.875Z" fill="#597EF7"/>
<path fill-rule="evenodd" clip-rule="evenodd" d="M170.611 128.529V136.694C170.611 137.052 170.902 137.343 171.261 137.343C171.429 137.343 171.591 137.278 171.712 137.161L177.711 131.372L170.611 128.529Z" fill="#597EF7"/>
<path d="M179.748 119.419C181.139 119.419 182.266 118.291 182.266 116.901C182.266 115.51 181.139 114.383 179.748 114.383C178.358 114.383 177.23 115.51 177.23 116.901C177.23 118.291 178.358 119.419 179.748 119.419Z" fill="white"/>
<path d="M190.064 119.419C191.454 119.419 192.582 118.291 192.582 116.901C192.582 115.51 191.454 114.383 190.064 114.383C188.673 114.383 187.546 115.51 187.546 116.901C187.546 118.291 188.673 119.419 190.064 119.419Z" fill="white"/>
<path d="M200.622 119.419C202.013 119.419 203.14 118.291 203.14 116.901C203.14 115.51 202.013 114.383 200.622 114.383C199.232 114.383 198.104 115.51 198.104 116.901C198.104 118.291 199.232 119.419 200.622 119.419Z" fill="white"/>
<path d="M134.557 48.6772C135.463 48.1014 136.515 47.8135 137.714 47.8135C137.979 47.8135 138.215 47.8276 138.422 47.856C138.63 47.8843 138.814 47.9268 138.975 47.9834H138.96C139.461 48.1533 139.711 48.3327 139.711 48.5215C139.711 48.8047 139.366 48.9604 138.677 48.9888C138.309 49.0076 137.922 49.0265 137.516 49.0454C137.12 49.0549 136.728 49.1209 136.341 49.2437C135.982 49.3475 135.553 49.5929 135.052 49.98V49.9658C134.977 50.0036 134.906 50.0272 134.84 50.0366C134.774 50.0461 134.708 50.0508 134.642 50.0508C134.17 50.0508 133.934 49.862 133.934 49.4844C133.934 49.2201 134.141 48.951 134.557 48.6772ZM145.771 54.0864C146.517 53.6333 146.739 53.9495 146.437 55.0352C145.823 55.6016 145.399 55.965 145.163 56.1255C144.927 56.286 144.511 56.5739 143.917 56.9893C143.331 57.3952 142.581 57.8577 141.665 58.377C140.749 58.8867 139.546 59.3304 138.054 59.708C136.563 60.0856 135.029 60.2036 133.452 60.062C131.876 59.9204 130.696 59.557 129.912 58.9717C129.138 58.3864 128.638 57.6973 128.411 56.9043C128.185 56.1113 128.203 55.3325 128.468 54.5679C128.742 53.8032 129.138 53.2227 129.657 52.8262C130.45 52.2692 130.71 52.3825 130.436 53.166C129.766 53.9495 129.53 54.8605 129.728 55.8989C129.936 56.9279 130.681 57.6501 131.965 58.0654C133.249 58.4714 134.92 58.5563 136.978 58.3203C139.045 58.0843 140.896 57.4235 142.529 56.3379C143.992 55.4411 145.073 54.6906 145.771 54.0864ZM151.124 57.7397C150.765 57.6925 150.525 57.6406 150.402 57.584C150.279 57.5273 150.166 57.4377 150.062 57.3149C149.958 57.1828 149.892 57.0365 149.864 56.876C149.835 56.7061 149.826 56.5125 149.835 56.2954C149.845 56.0783 149.906 55.5921 150.02 54.8369C150.133 54.0817 150.218 53.4917 150.274 53.0669C150.331 52.6326 150.383 52.2409 150.43 51.8916C150.487 51.5423 150.553 50.9854 150.628 50.2207C150.61 49.7581 150.454 49.5457 150.161 49.5835C149.878 49.6213 149.661 49.8101 149.51 50.1499C149.151 50.8485 148.953 51.3771 148.915 51.7358C148.877 52.0851 148.83 52.5146 148.773 53.0244C148.717 53.5342 148.651 54.0203 148.575 54.4829C148.509 54.9455 148.448 55.4033 148.391 55.8564C148.344 56.3001 148.325 56.6825 148.334 57.0034C148.344 57.3149 148.396 57.5934 148.49 57.8389C148.594 58.0843 148.731 58.2873 148.901 58.4478C149.071 58.5988 149.293 58.731 149.566 58.8442C149.84 58.9481 150.359 59 151.124 59V57.7397ZM151.053 57.7114C151.318 57.702 151.568 57.6595 151.804 57.584C152.04 57.5085 152.37 57.2961 152.795 56.9468C152.125 56.5975 151.766 56.1963 151.719 55.7432C151.681 55.2806 151.719 54.8936 151.832 54.582C151.955 54.2705 152.181 53.9448 152.512 53.605C152.852 53.2651 153.248 53.1188 153.701 53.166C154.164 53.2038 154.522 53.3595 154.777 53.6333C155.032 53.8976 155.207 54.3743 155.301 55.0635C155.292 55.6865 155.169 56.2812 154.933 56.8477C154.697 57.4141 154.15 57.9191 153.291 58.3628C152.431 58.8065 151.69 59.0189 151.067 59L151.053 57.7114ZM160.824 54.752C160.795 54.9408 160.772 55.257 160.753 55.7007C160.734 56.1444 160.833 56.5692 161.05 56.9751C161.277 57.3716 161.772 57.6265 162.537 57.7397V59.0142C161.414 59.0142 160.659 58.7734 160.271 58.292C159.884 57.8011 159.738 57.3716 159.833 57.0034C159.455 57.7964 158.955 58.5374 158.332 59.2266C157.775 59.9723 157.166 60.416 156.505 60.5576C155.202 60.8503 154.905 60.5387 155.613 59.623C156.595 58.8962 157.284 58.2212 157.68 57.5981C158.086 56.9751 158.605 56.0075 159.238 54.6953L159.351 54.5254C159.634 54.0817 159.932 53.8835 160.243 53.9307C160.555 53.9779 160.748 54.2516 160.824 54.752ZM166.219 43.8911C166.209 43.7873 166.205 43.6929 166.205 43.6079C166.214 43.5135 166.238 43.4238 166.275 43.3389C166.323 43.2445 166.356 43.1548 166.375 43.0698C166.403 42.9754 166.403 42.881 166.375 42.7866C166.346 42.6922 166.299 42.6167 166.233 42.5601C166.176 42.494 166.087 42.4326 165.964 42.376C165.851 42.3099 165.718 42.2769 165.567 42.2769C165.426 42.2769 165.289 42.3005 165.157 42.3477C165.025 42.3949 164.907 42.4657 164.803 42.5601C164.708 42.6545 164.628 42.7725 164.562 42.9141C164.496 43.0557 164.449 43.1973 164.42 43.3389C164.402 43.4805 164.402 43.6174 164.42 43.7495C164.449 43.8722 164.505 44.0044 164.59 44.146C164.675 44.2782 164.77 44.382 164.874 44.4575C164.977 44.5236 165.114 44.5897 165.284 44.6558C165.464 44.7218 165.629 44.7502 165.78 44.7407C165.94 44.7218 166.054 44.6888 166.12 44.6416C166.195 44.5944 166.252 44.5283 166.29 44.4434C166.337 44.3584 166.365 44.297 166.375 44.2593C166.384 44.2121 166.365 44.1649 166.318 44.1177C166.271 44.0705 166.238 43.995 166.219 43.8911ZM169.617 50.6597C170.486 50.6502 170.962 51.0986 171.047 52.0049C171.142 52.9111 170.632 53.9354 169.518 55.0776L168.3 56.1821L167.479 57.0034C168.432 57.8153 167.909 58.0796 165.907 57.7964C164.888 58.3911 164.151 58.7498 163.698 58.8726C163.245 58.9858 162.825 59.0236 162.438 58.9858V57.7256L162.891 57.6831C163.797 57.4943 164.302 57.1686 164.406 56.7061L163.571 55.4458C163.382 55.0965 163.306 54.818 163.344 54.6104C163.354 54.0156 164.383 53.0575 166.431 51.7358C167.791 50.9334 168.853 50.5747 169.617 50.6597ZM165.086 54.7378C165.086 55.3608 165.35 55.7809 165.879 55.998H166.134C166.993 55.7809 168.055 54.9785 169.32 53.5908C169.603 53.2321 169.674 52.8073 169.532 52.3164L169.391 52.1465L169.235 52.1182C168.404 52.222 167.46 52.6185 166.403 53.3076C165.525 53.9495 165.086 54.4263 165.086 54.7378ZM132.659 85.6353C133.216 85.4465 133.721 85.5173 134.174 85.8477C134.637 86.1686 135.321 86.4754 136.228 86.7681V88C135.435 87.9717 134.698 87.7262 134.019 87.2637C133.339 86.7917 132.697 87.1693 132.093 88.3965C131.489 89.6237 130.653 90.9689 129.586 92.4321C128.52 93.9048 127.392 94.9715 126.202 95.6323C125.022 96.2931 123.823 96.6849 122.605 96.8076C121.388 96.9398 120.255 96.7793 119.207 96.3262C118.15 95.8825 117.446 95.3208 117.097 94.6411C116.738 93.9614 116.602 93.5508 116.687 93.4092C116.762 93.2676 116.998 93.3525 117.395 93.6641C118.82 94.7119 120.34 95.1886 121.954 95.0942C123.559 94.9998 124.928 94.5609 126.061 93.7773C127.203 92.9938 128.284 91.861 129.303 90.3789C130.323 88.8968 130.998 87.7829 131.328 87.0371C131.668 86.2819 132.112 85.8146 132.659 85.6353ZM138.875 76.9976C138.866 76.8937 138.861 76.7993 138.861 76.7144C138.871 76.62 138.894 76.5303 138.932 76.4453C138.979 76.3509 139.012 76.2612 139.031 76.1763C139.06 76.0819 139.06 75.9875 139.031 75.8931C139.003 75.7987 138.956 75.7231 138.89 75.6665C138.833 75.6004 138.743 75.5391 138.621 75.4824C138.507 75.4163 138.375 75.3833 138.224 75.3833C138.083 75.3833 137.946 75.4069 137.813 75.4541C137.681 75.5013 137.563 75.5721 137.459 75.6665C137.365 75.7609 137.285 75.8789 137.219 76.0205C137.153 76.1621 137.105 76.3037 137.077 76.4453C137.058 76.5869 137.058 76.7238 137.077 76.856C137.105 76.9787 137.162 77.1108 137.247 77.2524C137.332 77.3846 137.426 77.4884 137.53 77.564C137.634 77.63 137.771 77.6961 137.941 77.7622C138.12 77.8283 138.285 77.8566 138.437 77.8472C138.597 77.8283 138.71 77.7952 138.776 77.748C138.852 77.7008 138.909 77.6348 138.946 77.5498C138.993 77.4648 139.022 77.4035 139.031 77.3657C139.041 77.3185 139.022 77.2713 138.975 77.2241C138.927 77.1769 138.894 77.1014 138.875 76.9976ZM139.442 82.9165C139.876 83.313 139.989 83.9502 139.782 84.8281C139.187 86.8577 137.998 87.9056 136.213 87.9717V86.7114C137.677 86.7964 138.389 85.8665 138.352 83.9219C138.323 83.0251 138.687 82.6899 139.442 82.9165ZM145.049 86.7397C144.691 86.6925 144.45 86.6406 144.327 86.584C144.204 86.5273 144.091 86.4377 143.987 86.3149C143.883 86.1828 143.817 86.0365 143.789 85.876C143.761 85.7061 143.751 85.5125 143.761 85.2954C143.77 85.0783 143.832 84.5921 143.945 83.8369C144.058 83.0817 144.143 82.4917 144.2 82.0669C144.256 81.6326 144.308 81.2409 144.355 80.8916C144.412 80.5423 144.478 79.9854 144.554 79.2207C144.535 78.7581 144.379 78.5457 144.086 78.5835C143.803 78.6213 143.586 78.8101 143.435 79.1499C143.076 79.8485 142.878 80.3771 142.84 80.7358C142.803 81.0851 142.755 81.5146 142.699 82.0244C142.642 82.5342 142.576 83.0203 142.5 83.4829C142.434 83.9455 142.373 84.4033 142.316 84.8564C142.269 85.3001 142.25 85.6825 142.26 86.0034C142.269 86.3149 142.321 86.5934 142.416 86.8389C142.519 87.0843 142.656 87.2873 142.826 87.4478C142.996 87.5988 143.218 87.731 143.492 87.8442C143.765 87.9481 144.285 88 145.049 88V86.7397ZM147.018 91.4976C146.97 91.4126 146.966 91.3182 147.003 91.2144C147.051 91.1105 147.093 91.0114 147.131 90.917C147.178 90.832 147.211 90.7424 147.23 90.6479C147.258 90.563 147.258 90.4733 147.23 90.3789C147.202 90.2845 147.154 90.2043 147.088 90.1382C147.032 90.0815 146.942 90.0202 146.819 89.9541C146.706 89.8975 146.574 89.8691 146.423 89.8691C146.281 89.8691 146.144 89.8927 146.012 89.9399C145.88 89.9871 145.767 90.0579 145.672 90.1523C145.587 90.2467 145.507 90.3647 145.432 90.5063C145.356 90.6479 145.309 90.7896 145.29 90.9312C145.281 91.0822 145.281 91.2191 145.29 91.3418C145.309 91.4645 145.361 91.592 145.446 91.7241C145.531 91.8657 145.625 91.9696 145.729 92.0356C145.833 92.1112 145.97 92.182 146.14 92.248C146.319 92.3141 146.498 92.3519 146.678 92.3613C146.857 92.3802 146.98 92.366 147.046 92.3188C147.121 92.2716 147.178 92.2056 147.216 92.1206C147.263 92.0356 147.277 91.9554 147.258 91.8799C147.249 91.8138 147.221 91.7572 147.173 91.71C147.126 91.6628 147.074 91.592 147.018 91.4976ZM150.076 88V86.6831C149.868 86.702 149.632 86.6501 149.368 86.5273C149.104 86.4046 148.924 86.2725 148.83 86.1309C148.745 85.9893 148.67 85.8099 148.604 85.5928C148.537 85.3662 148.5 85.1113 148.49 84.8281C148.49 84.5449 148.438 84.3042 148.334 84.106C148.24 83.8983 148.07 83.8086 147.825 83.8369C147.589 83.8558 147.409 83.9549 147.287 84.1343C147.173 84.3136 147.074 84.5449 146.989 84.8281C146.904 85.1113 146.815 85.3804 146.72 85.6353C146.626 85.8901 146.413 86.1403 146.083 86.3857C145.762 86.6217 145.394 86.7256 144.979 86.6973V88C145.668 87.9245 146.13 87.8301 146.366 87.7168C146.612 87.6035 146.838 87.4619 147.046 87.292C147.254 87.1126 147.409 86.9191 147.513 86.7114C147.617 86.4943 147.711 86.5368 147.796 86.8389C147.891 87.1315 148.103 87.3864 148.434 87.6035C148.764 87.8206 149.312 87.9528 150.076 88ZM155.004 88V86.6831C154.796 86.702 154.56 86.6501 154.296 86.5273C154.032 86.4046 153.852 86.2725 153.758 86.1309C153.673 85.9893 153.597 85.8099 153.531 85.5928C153.465 85.3662 153.427 85.1113 153.418 84.8281C153.418 84.5449 153.366 84.3042 153.262 84.106C153.168 83.8983 152.998 83.8086 152.752 83.8369C152.516 83.8558 152.337 83.9549 152.214 84.1343C152.101 84.3136 152.002 84.5449 151.917 84.8281C151.832 85.1113 151.742 85.3804 151.648 85.6353C151.554 85.8901 151.341 86.1403 151.011 86.3857C150.69 86.6217 150.322 86.7256 149.906 86.6973V88C150.595 87.9245 151.058 87.8301 151.294 87.7168C151.539 87.6035 151.766 87.4619 151.974 87.292C152.181 87.1126 152.337 86.9191 152.441 86.7114C152.545 86.4943 152.639 86.5368 152.724 86.8389C152.819 87.1315 153.031 87.3864 153.361 87.6035C153.692 87.8206 154.239 87.9528 155.004 88ZM148.604 91.2002C149.378 90.6999 150.265 90.4497 151.266 90.4497C151.492 90.4497 151.695 90.4591 151.875 90.478C152.054 90.5063 152.205 90.5441 152.328 90.5913C152.752 90.7329 152.965 90.8887 152.965 91.0586C152.965 91.304 152.677 91.4834 152.101 91.5967C151.79 91.6061 151.464 91.6156 151.124 91.625C150.784 91.6439 150.454 91.7052 150.133 91.8091C149.821 91.894 149.458 92.1017 149.042 92.4321C148.976 92.4604 148.915 92.4793 148.858 92.4888C148.802 92.4982 148.75 92.5029 148.703 92.5029C148.287 92.418 148.08 92.215 148.08 91.894C148.08 91.658 148.254 91.4268 148.604 91.2002ZM155.57 77.04C156.401 76.5114 157.359 76.2471 158.445 76.2471C158.69 76.2471 158.907 76.2612 159.096 76.2896C159.285 76.3084 159.45 76.3462 159.592 76.4028C160.045 76.5539 160.271 76.7191 160.271 76.8984C160.271 77.1533 159.955 77.2949 159.323 77.3232C158.992 77.3327 158.643 77.3468 158.275 77.3657C157.907 77.3752 157.548 77.4365 157.199 77.5498C156.868 77.6442 156.477 77.866 156.023 78.2153C155.957 78.2437 155.891 78.2625 155.825 78.272C155.769 78.2814 155.712 78.2861 155.655 78.2861C155.221 78.2861 155.004 78.1162 155.004 77.7764C155.004 77.5309 155.193 77.2855 155.57 77.04ZM160.045 88V86.6831C159.837 86.702 159.601 86.6501 159.337 86.5273C159.073 86.4046 158.893 86.2725 158.799 86.1309C158.714 85.9893 158.638 85.8099 158.572 85.5928C158.506 85.3662 158.468 85.1113 158.459 84.8281C158.459 84.5449 158.407 84.3042 158.303 84.106C158.209 83.8983 158.039 83.8086 157.793 83.8369C157.557 83.8558 157.378 83.9549 157.255 84.1343C157.142 84.3136 157.043 84.5449 156.958 84.8281C156.873 85.1113 156.783 85.3804 156.689 85.6353C156.595 85.8901 156.382 86.1403 156.052 86.3857C155.731 86.6217 155.363 86.7256 154.947 86.6973V88C155.636 87.9245 156.099 87.8301 156.335 87.7168C156.58 87.6035 156.807 87.4619 157.015 87.292C157.222 87.1126 157.378 86.9191 157.482 86.7114C157.586 86.4943 157.68 86.5368 157.765 86.8389C157.86 87.1315 158.072 87.3864 158.402 87.6035C158.733 87.8206 159.28 87.9528 160.045 88ZM165.1 78.4277C164.628 78.8903 164.397 78.744 164.406 77.9888C164.406 77.8566 164.439 77.682 164.505 77.4648C164.571 77.2383 164.671 77.0306 164.803 76.8418C164.935 76.6436 165.058 76.4878 165.171 76.3745C165.284 76.2518 165.445 76.1385 165.652 76.0347C165.869 75.9214 166.157 75.8553 166.516 75.8364C166.884 75.8081 167.201 75.8647 167.465 76.0063C167.729 76.1479 167.956 76.3556 168.145 76.6294C168.343 76.8937 168.447 77.2147 168.456 77.5923C168.475 77.9699 168.423 78.3428 168.3 78.7109C168.178 79.0697 167.998 79.4142 167.762 79.7446C167.536 80.0656 167.219 80.396 166.813 80.7358C166.408 81.0757 166.096 81.2692 165.879 81.3164C165.001 81.4014 164.869 81.1323 165.482 80.5093C165.766 80.2638 165.997 80.042 166.176 79.8438C166.356 79.6455 166.511 79.4614 166.644 79.2915C166.785 79.1121 166.908 78.9328 167.012 78.7534C167.125 78.5646 167.21 78.3522 167.267 78.1162C167.323 77.8802 167.29 77.682 167.167 77.5215C167.054 77.361 166.913 77.2477 166.743 77.1816C166.573 77.1156 166.36 77.125 166.105 77.21C165.851 77.2949 165.648 77.446 165.497 77.6631C165.355 77.8802 165.223 78.1351 165.1 78.4277ZM170.099 86.7964C169.787 86.7492 169.575 86.6784 169.461 86.584C169.348 86.4801 169.334 86.2111 169.419 85.7769C169.513 85.3332 169.556 84.9556 169.546 84.644C169.537 84.3325 169.48 84.1154 169.376 83.9927C169.282 83.8605 169.159 83.7756 169.008 83.7378C168.867 83.7 168.73 83.7142 168.598 83.7803C168.475 83.8464 168.366 83.936 168.272 84.0493C168.178 84.1626 168.078 84.375 167.975 84.6865C167.871 84.9886 167.739 85.3143 167.578 85.6636C167.418 86.0129 167.262 86.2253 167.111 86.3008C166.969 86.3763 166.828 86.3527 166.686 86.23C166.554 86.1073 166.521 85.8382 166.587 85.4229C166.653 84.998 166.672 84.7101 166.644 84.5591C166.625 84.408 166.568 84.2712 166.474 84.1484C166.389 84.0257 166.28 83.9549 166.148 83.936C166.025 83.9077 165.874 83.9455 165.695 84.0493C165.525 84.1437 165.374 84.3372 165.242 84.6299C165.11 84.9225 164.968 85.2388 164.817 85.5786C164.666 85.9185 164.524 86.1403 164.392 86.2441C164.26 86.348 164.123 86.3574 163.981 86.2725C163.849 86.1781 163.821 85.8713 163.896 85.3521C163.972 84.8234 163.981 84.493 163.925 84.3608C163.868 84.2192 163.797 84.1154 163.712 84.0493C163.637 83.9832 163.533 83.936 163.401 83.9077C163.278 83.8794 163.146 83.9124 163.004 84.0068C162.863 84.1012 162.754 84.1909 162.679 84.2759C162.613 84.3608 162.485 84.6629 162.296 85.1821C162.117 85.6919 161.824 86.0837 161.418 86.3574C161.013 86.6217 160.526 86.7492 159.96 86.7397V87.9858C160.706 88.0047 161.282 87.9434 161.688 87.8018C162.093 87.6507 162.386 87.4572 162.565 87.2212C162.754 86.9852 162.901 86.9899 163.004 87.2354C163.108 87.4808 163.259 87.6649 163.458 87.7876C163.665 87.9103 163.887 87.9717 164.123 87.9717C164.359 87.9622 164.59 87.8773 164.817 87.7168C165.043 87.5563 165.209 87.3392 165.312 87.0654C165.426 86.7822 165.511 86.7256 165.567 86.8955C165.624 87.0654 165.723 87.2448 165.865 87.4336C166.016 87.6224 166.181 87.764 166.36 87.8584C166.54 87.9434 166.729 87.9811 166.927 87.9717C167.125 87.9622 167.314 87.9009 167.493 87.7876C167.673 87.6743 167.819 87.4997 167.932 87.2637C168.055 87.0182 168.14 86.8625 168.187 86.7964C168.244 86.7303 168.281 86.7445 168.3 86.8389C168.329 86.9333 168.399 87.0938 168.513 87.3203C168.635 87.5374 168.819 87.7074 169.065 87.8301C169.32 87.9434 169.664 88 170.099 88V86.7964ZM169.646 91.3418C169.192 91.7855 168.971 91.6439 168.98 90.917C168.98 90.7848 169.013 90.6102 169.079 90.3931C169.145 90.1854 169.244 89.9871 169.376 89.7983C169.499 89.6095 169.617 89.4585 169.73 89.3452C169.834 89.2319 169.985 89.1234 170.184 89.0195C170.391 88.9157 170.67 88.8496 171.019 88.8213C171.368 88.8024 171.67 88.859 171.925 88.9912C172.19 89.1328 172.411 89.3311 172.591 89.5859C172.78 89.8503 172.879 90.1618 172.888 90.5205C172.907 90.8887 172.855 91.2474 172.732 91.5967C172.619 91.9554 172.449 92.2905 172.223 92.6021C172.006 92.923 171.699 93.244 171.302 93.5649C170.915 93.8953 170.618 94.0841 170.41 94.1313C169.561 94.2069 169.428 93.9473 170.014 93.3525C170.297 93.1165 170.523 92.9041 170.693 92.7153C170.863 92.5265 171.014 92.3472 171.146 92.1772C171.279 92.0073 171.397 91.8327 171.5 91.6533C171.604 91.474 171.685 91.2663 171.741 91.0303C171.798 90.8037 171.77 90.6149 171.656 90.4639C171.543 90.3128 171.401 90.2043 171.231 90.1382C171.071 90.0721 170.868 90.0815 170.623 90.1665C170.377 90.2515 170.184 90.3978 170.042 90.6055C169.9 90.8132 169.768 91.0586 169.646 91.3418ZM173.285 82.9165C173.719 83.313 173.832 83.9502 173.625 84.8281C173.03 86.8577 171.84 87.9056 170.056 87.9717V86.7114C171.519 86.7964 172.232 85.8665 172.194 83.9219C172.166 83.0251 172.529 82.6899 173.285 82.9165Z" fill="white"/>
</g>
<defs>
<filter id="filter0_d" x="-11" y="-7" width="271" height="195" filterUnits="userSpaceOnUse" color-interpolation-filters="sRGB">
<feFlood flood-opacity="0" result="BackgroundImageFix"/>
<feColorMatrix in="SourceAlpha" type="matrix" values="0 0 0 0 0 0 0 0 0 0 0 0 0 0 0 0 0 0 127 0"/>
<feOffset dy="3"/>
<feGaussianBlur stdDeviation="5.5"/>
<feColorMatrix type="matrix" values="0 0 0 0 0 0 0 0 0 0 0 0 0 0 0 0 0 0 0.15 0"/>
<feBlend mode="normal" in2="BackgroundImageFix" result="effect1_dropShadow"/>
<feBlend mode="normal" in="SourceGraphic" in2="effect1_dropShadow" result="shape"/>
</filter>
<clipPath id="clip0">
<rect width="24" height="24" fill="white" transform="translate(192 82.3281) rotate(-28.1648)"/>
</clipPath>
</defs>
</svg>
